{
.appVersion = "3436";
.formatVersion = 3;
DisplayStrings = (
"·",
".",
"̣yỵ",
"Разъяреннй чтец гоистично бьт пятью жердями шустрого фехтовальщика. Все счастливе семьи похожи друг на друга, каждая несчастливая семья несчастлива по-своему. Все смешалось в доме Облонских. Жена узнала, что муж бл в связи с бвшею в их доме француженкою-гувернанткой, и объявила мужу, что не может жить с ним в одном доме. Положение то продолжалось уже третий день и мучительно чувствовалось и самими супругами, и всеми членами семьи, и домочадцами. 01234567890",
"̃",
"/i-cy.dotless/je-cy.dotless",
"Ј",
"ј",
"Ľ",
L,
"ł",
"ľ",
"̊",
"/ringcomb.case Ååů̊",
"Ж",
"ы",
"YỴ",
"×",
"ľưứựừửữ",
"èẻợởỡ̇/caroncomb.alt ̂̃̉",
"ẳ",
"İ",
"Ĭ"
);
classes = (
{
automatic = 1;

glyphs = (
{
glyphname = A;
kernLeft = LHAuppers;
kernRight = Auppers;
lastChange = "2026-06-06 19:43:46 +0000";
layers = (
{
anchors = (
{
name = bottom;
pos = (341,0);
},
{
name = ogonek;
pos = (613,10);
},
{
name = top;
pos = (341,700);
}
);
guides = (
{
angle = 66.8014;
pos = (212,343);
}
);
layerId = m01;
shapes = (
{
closed = 1;
nodes = (
(281,0,l),
(302,83,l),
(171,104,ls),
(137,110,o),
(116,116,o),
(126,141,cs),
(150,199,l),
(368,199,l),
(448,1,l),
(641,1,l),
(342,718,l),
(40,0,l)
);
},
{
closed = 1;
nodes = (
(263,462,l),
(359,224,l),
(161,224,l)
);
}
);
width = 671;
}
);
unicode = 65;
},
{
glyphname = AE;
kernLeft = LHAuppers;
lastChange = "2026-06-08 02:08:58 +0000";
layers = (
{
anchors = (
{
name = bottom;
pos = (475,0);
},
{
name = top;
pos = (475,700);
}
);
guides = (
{
angle = 60.2838;
pos = (325,440);
}
);
layerId = m01;
shapes = (
{
closed = 1;
nodes = (
(281,0,l),
(302,83,l),
(210,104,ls),
(176,112,o),
(141,118,o),
(155,142,cs),
(188,199,l),
(447,199,l),
(448,0,l),
(899,0,l),
(899,173,l),
(891,173,l),
(823,62,o),
(760,33,o),
(632,32,c),
(632,337,l),
(745,337,o),
(785,330,o),
(829,260,c),
(837,260,l),
(837,441,l),
(829,441,l),
(783,378,o),
(745,373,o),
(632,373,c),
(631,670,l),
(743,670,o),
(836,626,o),
(891,532,c),
(899,532,l),
(899,700,l),
(446,700,l),
(40,0,l)
);
},
{
closed = 1;
nodes = (
(446,652,l),
(447,224,l),
(202,224,l)
);
}
);
width = 949;
}
);
unicode = 198;
},
{
glyphname = B;
kernRight = RHroundedUpper;
lastChange = "2026-06-08 00:35:12 +0000";
layers = (
{
anchors = (
{
name = bottom;
pos = (350,0);
},
{
name = center;
pos = (175,210);
},
{
name = top;
pos = (350,700);
}
);
layerId = m01;
shapes = (
{
closed = 1;
nodes = (
(390,0,l),
(564,0,o),
(660,72,o),
(660,193,cs),
(660,289,o),
(581,352,o),
(481,370,c),
(573,396,o),
(626,454,o),
(626,530,cs),
(626,637,o),
(521,700,o),
(359,700,c),
(50,700,l),
(50,685,l),
(92,669,l),
(92,0,l)
);
},
{
closed = 1;
nodes = (
(272,346,l),
(316,346,ls),
(423,346,o),
(482,287,o),
(482,193,cs),
(482,92,o),
(416,30,o),
(322,30,cs),
(272,30,l)
);
},
{
closed = 1;
nodes = (
(272,670,l),
(315,670,ls),
(395,670,o),
(454,611,o),
(454,530,cs),
(454,442,o),
(395,382,o),
(315,380,cs),
(272,379,l)
);
}
);
width = 700;
}
);
unicode = 66;
},
{
glyphname = C;
kernLeft = roundedUppers;
lastChange = "2026-06-04 01:24:10 +0000";
layers = (
{
anchors = (
{
name = bottom;
pos = (329,0);
},
{
name = top;
pos = (329,700);
}
);
layerId = m01;
shapes = (
{
closed = 1;
nodes = (
(467,-9,o),
(553,17,o),
(605,58,c),
(617,221,l),
(597,221,l),
(565,73,o),
(461,22,o),
(395,22,cs),
(285,22,o),
(235,161,o),
(235,346,cs),
(235,527,o),
(272,673,o),
(380,673,cs),
(432,673,o),
(523,632,o),
(565,438,c),
(585,438,l),
(609,644,l),
(518,694,o),
(451,710,o),
(361,705,cs),
(171,694,o),
(40,548,o),
(40,349,cs),
(40,147,o),
(165,-9,o),
(367,-9,cs)
);
}
);
width = 657;
}
);
unicode = 67;
},
{
glyphname = D;
kernRight = RHroundedUpper;
lastChange = "2026-06-04 02:24:23 +0000";
layers = (
{
anchors = (
{
name = bottom;
pos = (350,0);
},
{
name = center;
pos = (175,350);
},
{
name = top;
pos = (350,700);
}
);
layerId = m01;
shapes = (
{
closed = 1;
nodes = (
(341,0,ls),
(476,0,o),
(660,39,o),
(660,350,cs),
(660,661,o),
(476,700,o),
(341,700,cs),
(256,700,l),
(81,700,l),
(40,700,l),
(40,685,l),
(81,669,l),
(81,0,l)
);
},
{
closed = 1;
nodes = (
(256,672,l),
(309,672,ls),
(384,672,o),
(486,614,o),
(486,350,cs),
(486,86,o),
(384,28,o),
(309,28,cs),
(256,28,l)
);
}
);
width = 700;
}
);
unicode = 68;
},
{
glyphname = E;
lastChange = "2026-06-08 02:09:32 +0000";
layers = (
{
anchors = (
{
name = bottom;
pos = (283,0);
},
{
name = ogonek;
pos = (509,10);
},
{
name = top;
pos = (283,700);
},
{
name = top_viet;
pos = (286,741);
},
{
name = topleft;
pos = (20,700);
}
);
layerId = m01;
shapes = (
{
closed = 1;
nodes = (
(525,0,l),
(525,173,l),
(516,173,l),
(449,62,o),
(386,33,o),
(258,32,c),
(258,337,l),
(373,337,o),
(411,330,o),
(455,260,c),
(463,260,l),
(463,441,l),
(455,441,l),
(409,378,o),
(372,373,o),
(258,373,c),
(257,670,l),
(369,670,o),
(462,626,o),
(517,531,c),
(525,531,l),
(525,700,l),
(40,700,l),
(40,684,l),
(82,668,l),
(82,0,l)
);
}
);
width = 565;
}
);
unicode = 69;
},
{
glyphname = Schwa;
kernLeft = roundedUppers;
kernRight = RHroundedUpper;
lastChange = "2026-06-04 00:55:16 +0000";
layers = (
{
layerId = m01;
shapes = (
{
closed = 1;
nodes = (
(525,-11,o),
(657,104,o),
(657,340,cs),
(657,587,o),
(525,711,o),
(347,711,cs),
(139,711,o),
(38,549,o),
(40,453,c),
(238,453,l),
(251,522,l),
(117,545,l),
(153,577,o),
(195,593,o),
(245,593,cs),
(370,593,o),
(468,522,o),
(468,348,c),
(40,348,l),
(40,127,o),
(154,-11,o),
(346,-11,cs)
);
},
{
closed = 1;
nodes = (
(281,15,o),
(218,103,o),
(218,278,c),
(468,278,l),
(468,103,o),
(420,15,o),
(347,15,cs)
);
}
);
width = 697;
}
);
unicode = 399;
},
{
glyphname = F;
kernRight = RHTuppers;
lastChange = "2026-06-04 02:27:02 +0000";
layers = (
{
anchors = (
{
name = bottom;
pos = (283,0);
},
{
name = top;
pos = (283,700);
}
);
layerId = m01;
shapes = (
{
closed = 1;
nodes = (
(258,0,l),
(258,337,l),
(373,337,o),
(411,330,o),
(456,260,c),
(463,260,l),
(463,440,l),
(456,440,l),
(409,378,o),
(371,373,o),
(258,373,c),
(257,670,l),
(369,670,o),
(462,627,o),
(517,532,c),
(525,532,l),
(525,700,l),
(40,700,l),
(40,684,l),
(82,668,l),
(84,0,l)
);
}
);
width = 565;
}
);
unicode = 70;
},
{
glyphname = G;
kernLeft = roundedUppers;
lastChange = "2026-06-04 00:52:23 +0000";
layers = (
{
anchors = (
{
name = bottom;
pos = (350,0);
},
{
name = top;
pos = (350,700);
}
);
layerId = m01;
shapes = (
{
closed = 1;
nodes = (
(416,-16,o),
(516,13,o),
(586,85,c),
(586,0,l),
(615,0,l),
(615,364,l),
(314,364,l),
(314,335,l),
(431,335,l),
(430,125,ls),
(430,98,o),
(421,64,o),
(404,44,cs),
(386,21,o),
(356,17,o),
(329,22,cs),
(211,45,o),
(227,381,o),
(234,472,cs),
(239,546,o),
(262,675,o),
(351,681,cs),
(467,689,o),
(510,533,o),
(538,437,c),
(610,628,l),
(525,692,o),
(426,721,o),
(321,708,cs),
(210,694,o),
(116,638,o),
(74,533,cs),
(28,419,o),
(30,288,o),
(74,174,cs),
(114,68,o),
(204,3,o),
(315,-7,cs)
);
}
);
width = 655;
}
);
unicode = 71;
},
{
glyphname = H;
lastChange = "2026-06-04 02:29:19 +0000";
layers = (
{
anchors = (
{
name = bottom;
pos = (337,0);
},
{
name = center;
pos = (337,560);
},
{
name = top;
pos = (337,700);
},
{
name = topleft;
pos = (20,700);
}
);
layerId = m01;
shapes = (
{
closed = 1;
nodes = (
(624,0,l),
(624,700,l),
(459,700,l),
(459,0,l)
);
},
{
closed = 1;
nodes = (
(215,0,l),
(215,700,l),
(50,700,l),
(50,0,l)
);
},
{
closed = 1;
nodes = (
(481,299,l),
(387,416,l),
(189,416,l),
(283,299,l)
);
}
);
width = 674;
}
);
unicode = 72;
},
{
glyphname = I;
lastChange = "2026-06-08 02:23:23 +0000";
layers = (
{
anchors = (
{
name = bottom;
pos = (165,0);
},
{
name = ogonek;
pos = (270,10);
},
{
name = top;
pos = (150,700);
},
{
name = topleft;
pos = (20,700);
}
);
layerId = m01;
shapes = (
{
closed = 1;
nodes = (
(250,0,l),
(250,713,l),
(40,697,l),
(40,684,l),
(84,667,l),
(84,0,l)
);
}
);
width = 300;
}
);
unicode = 73;
},
{
glyphname = J;
kernRight = RHroundedUpper;
lastChange = "2026-06-04 03:40:32 +0000";
layers = (
{
anchors = (
{
name = bottom;
pos = (314,0);
},
{
name = top;
pos = (314,700);
}
);
layerId = m01;
shapes = (
{
closed = 1;
nodes = (
(517,-8,o),
(577,70,o),
(577,254,cs),
(577,700,l),
(397,700,l),
(395,200,ls),
(395,143,o),
(397,24,o),
(316,24,cs),
(229,24,o),
(229,183,o),
(229,260,c),
(40,245,l),
(40,94,o),
(123,-8,o),
(306,-8,cs)
);
}
);
width = 627;
},
{
associatedMasterId = m01;
layerId = "DEE0B8B6-D144-472D-98F5-AD853ACBC6A8";
name = Redraw;
width = 600;
}
);
unicode = 74;
},
{
glyphname = K;
lastChange = "2026-06-04 02:28:30 +0000";
layers = (
{
anchors = (
{
name = bottom;
pos = (388,0);
},
{
name = top;
pos = (388,700);
}
);
layerId = m01;
shapes = (
{
closed = 1;
nodes = (
(677,0,l),
(401,427,l),
(664,701,l),
(394,701,l),
(380,624,l),
(508,602,ls),
(514,601,o),
(516,591,o),
(510,585,cs),
(265,335,l),
(265,311,l),
(272,311,l),
(486,0,l)
);
},
{
closed = 1;
nodes = (
(272,0,l),
(272,700,l),
(40,700,l),
(40,685,l),
(84,668,l),
(84,0,l)
);
}
);
width = 707;
}
);
unicode = 75;
},
{
glyphname = L;
lastChange = "2026-06-06 19:43:32 +0000";
layers = (
{
anchors = (
{
name = bottom;
pos = (282,0);
},
{
name = center;
pos = (180,356);
},
{
name = top;
pos = (282,700);
},
{
name = topright;
pos = (340,785);
}
);
layerId = m01;
shapes = (
{
closed = 1;
nodes = (
(523,0,l),
(523,178,l),
(515,178,l),
(459,79,o),
(383,29,o),
(270,29,c),
(270,700,l),
(50,700,l),
(50,685,l),
(94,668,l),
(94,0,l)
);
}
);
width = 563;
}
);
unicode = 76;
},
{
glyphname = M;
lastChange = "2026-06-08 01:54:14 +0000";
layers = (
{
anchors = (
{
name = bottom;
pos = (454,0);
},
{
name = top;
pos = (454,700);
}
);
layerId = m01;
shapes = (
{
closed = 1;
nodes = (
(598,557,l),
(598,0,l),
(775,0,l),
(773,700,l),
(610,700,l),
(466,272,l),
(242,700,l),
(50,700,l),
(50,685,l),
(92,669,l),
(92,0,l),
(251,0,l),
(240,68,l),
(145,91,ls),
(126,96,o),
(120,104,o),
(120,127,cs),
(120,561,l),
(405,-12,l)
);
}
);
width = 825;
}
);
unicode = 77;
},
{
glyphname = N;
lastChange = "2026-06-05 02:46:05 +0000";
layers = (
{
anchors = (
{
name = bottom;
pos = (369,0);
},
{
name = top;
pos = (369,700);
}
);
layerId = m01;
shapes = (
{
closed = 1;
nodes = (
(283,0,l),
(272,78,l),
(147,101,ls),
(128,105,o),
(122,114,o),
(122,137,cs),
(120,566,l),
(520,0,l),
(646,0,l),
(645,701,l),
(455,701,l),
(466,623,l),
(591,600,ls),
(610,596,o),
(616,587,o),
(616,564,cs),
(617,195,l),
(263,700,l),
(50,700,l),
(50,685,l),
(92,669,l),
(93,0,l)
);
}
);
width = 696;
}
);
unicode = 78;
},
{
glyphname = O;
kernLeft = roundedUppers;
kernRight = RHroundedUpper;
lastChange = "2026-06-05 19:44:38 +0000";
layers = (
{
anchors = (
{
name = bottom;
pos = (344,0);
},
{
name = center;
pos = (344,350);
},
{
name = ogonek;
pos = (478,10);
},
{
name = top;
pos = (344,700);
},
{
name = top_viet;
pos = (345,724);
},
{
name = topleft;
pos = (20,700);
},
{
name = topright;
pos = (482,594);
}
);
layerId = m01;
shapes = (
{
closed = 1;
nodes = (
(562,-11,o),
(647,150,o),
(647,349,cs),
(647,548,o),
(562,710,o),
(345,710,cs),
(125,710,o),
(40,548,o),
(40,349,cs),
(40,150,o),
(125,-11,o),
(345,-11,cs)
);
},
{
closed = 1;
nodes = (
(257,19,o),
(224,164,o),
(224,346,cs),
(224,527,o),
(257,680,o),
(344,680,cs),
(430,680,o),
(463,527,o),
(463,346,cs),
(463,164,o),
(430,19,o),
(344,19,cs)
);
}
);
width = 687;
}
);
unicode = 79;
},
{
glyphname = OE;
kernLeft = roundedUppers;
lastChange = "2026-06-04 00:52:23 +0000";
layers = (
{
anchors = (
{
name = bottom;
pos = (570,0);
},
{
name = top;
pos = (561,700);
}
);
guides = (
{
angle = 180;
pos = (387,531);
},
{
angle = 180;
pos = (347,441);
},
{
angle = 180;
pos = (352,260);
},
{
pos = (351,173);
}
);
layerId = m01;
shapes = (
{
closed = 1;
nodes = (
(378,-11,o),
(409,-7,o),
(436,0,c),
(917,0,l),
(917,173,l),
(908,173,l),
(841,62,o),
(778,33,o),
(650,32,c),
(650,337,l),
(765,337,o),
(803,330,o),
(848,260,c),
(855,260,l),
(855,441,l),
(847,441,l),
(801,378,o),
(764,373,o),
(650,373,c),
(649,670,l),
(761,670,o),
(854,626,o),
(909,531,c),
(917,531,l),
(917,700,l),
(436,699,l),
(409,706,o),
(378,710,o),
(345,710,cs),
(125,710,o),
(40,548,o),
(40,349,cs),
(40,150,o),
(125,-11,o),
(345,-11,cs)
);
},
{
closed = 1;
nodes = (
(257,29,o),
(224,164,o),
(224,346,cs),
(224,527,o),
(257,661,o),
(344,680,cs),
(381,688,o),
(464,674,o),
(464,599,cs),
(466,100,ls),
(466,28,o),
(385,14,o),
(344,19,cs)
);
}
);
width = 967;
}
);
unicode = 338;
},
{
glyphname = P;
lastChange = "2026-06-04 02:33:41 +0000";
layers = (
{
anchors = (
{
name = bottom;
pos = (335,0);
},
{
name = top;
pos = (335,700);
}
);
layerId = m01;
shapes = (
{
closed = 1;
nodes = (
(267,0,l),
(267,280,l),
(389,280,ls),
(533,280,o),
(629,352,o),
(629,496,cs),
(629,632,o),
(533,700,o),
(389,700,cs),
(50,700,l),
(50,685,l),
(92,669,l),
(92,0,l)
);
},
{
closed = 1;
nodes = (
(267,671,l),
(312,670,ls),
(392,668,o),
(451,611,o),
(451,496,cs),
(451,372,o),
(392,313,o),
(312,311,cs),
(267,310,l)
);
}
);
width = 669;
}
);
unicode = 80;
},
{
glyphname = Thorn;
lastChange = "2026-06-03 23:56:57 +0000";
layers = (
{
anchors = (
{
name = bottom;
pos = (319,0);
},
{
name = top;
pos = (319,700);
}
);
layerId = m01;
shapes = (
{
closed = 1;
nodes = (
(235,0,l),
(235,140,l),
(357,140,ls),
(501,140,o),
(597,212,o),
(597,356,cs),
(597,492,o),
(501,560,o),
(357,560,cs),
(235,560,l),
(235,700,l),
(50,700,l),
(50,0,l)
);
},
{
closed = 1;
nodes = (
(235,531,l),
(280,530,ls),
(360,528,o),
(419,471,o),
(419,356,cs),
(419,232,o),
(360,173,o),
(280,171,cs),
(235,170,l)
);
}
);
width = 637;
}
);
unicode = 222;
},
{
glyphname = Q;
kernLeft = roundedUppers;
kernRight = RHroundedUpper;
lastChange = "2026-06-04 00:55:16 +0000";
layers = (
{
anchors = (
{
name = bottom;
pos = (344,0);
},
{
name = top;
pos = (344,700);
}
);
layerId = m01;
shapes = (
{
closed = 1;
nodes = (
(365,-11,o),
(383,-10,o),
(401,-7,c),
(412,-45,ls),
(421,-74,o),
(441,-133,o),
(525,-138,cs),
(624,-144,l),
(624,-19,l),
(531,-13,ls),
(507,-11,o),
(492,0,o),
(481,16,c),
(599,70,o),
(647,198,o),
(647,349,cs),
(647,548,o),
(562,710,o),
(345,710,cs),
(125,710,o),
(40,548,o),
(40,349,cs),
(40,150,o),
(125,-11,o),
(345,-11,cs)
);
},
{
closed = 1;
nodes = (
(289,19,o),
(256,77,o),
(239,164,c),
(252,169,o),
(273,174,o),
(289,173,cs),
(344,168,o),
(368,134,o),
(379,93,cs),
(385,71,o),
(388,55,o),
(392,38,c),
(377,25,o),
(362,19,o),
(344,19,cs)
);
},
{
closed = 1;
nodes = (
(227,240,o),
(224,292,o),
(224,346,cs),
(224,527,o),
(257,680,o),
(344,680,cs),
(430,680,o),
(463,527,o),
(463,346,cs),
(463,260,o),
(456,184,o),
(439,125,c),
(436,132,o),
(434,136,o),
(430,142,cs),
(392,202,o),
(323,204,o),
(308,205,cs),
(286,206,o),
(250,202,o),
(233,196,c)
);
}
);
width = 687;
}
);
unicode = 81;
},
{
glyphname = R;
lastChange = "2026-06-04 02:34:36 +0000";
layers = (
{
anchors = (
{
name = bottom;
pos = (340,0);
},
{
name = top;
pos = (340,700);
}
);
layerId = m01;
shapes = (
{
closed = 1;
nodes = (
(267,0,l),
(268,304,l),
(436,0,l),
(639,0,l),
(444,324,l),
(545,352,o),
(616,401,o),
(616,509,cs),
(616,596,o),
(558,700,o),
(374,700,cs),
(50,700,l),
(50,685,l),
(92,669,l),
(94,0,l)
);
},
{
closed = 1;
nodes = (
(268,671,l),
(375,671,o),
(452,650,o),
(452,512,cs),
(452,359,o),
(345,352,o),
(269,352,c)
);
}
);
width = 679;
}
);
unicode = 82;
},
{
glyphname = S;
lastChange = "2026-06-04 02:39:10 +0000";
layers = (
{
anchors = (
{
name = bottom;
pos = (304,0);
},
{
name = top;
pos = (304,700);
}
);
layerId = m01;
shapes = (
{
closed = 1;
nodes = (
(447,-10,o),
(567,62,o),
(567,219,cs),
(567,448,o),
(199,395,o),
(199,562,cs),
(199,615,o),
(236,673,o),
(298,673,cs),
(425,673,o),
(488,496,o),
(488,468,c),
(509,468,l),
(525,656,l),
(445,683,o),
(391,705,o),
(297,705,cs),
(126,705,o),
(40,616,o),
(40,497,cs),
(40,242,o),
(408,314,o),
(408,130,cs),
(408,80,o),
(369,22,o),
(303,22,cs),
(144,22,o),
(72,219,o),
(65,248,c),
(42,248,l),
(42,46,l),
(89,25,o),
(185,-10,o),
(291,-10,cs)
);
}
);
width = 607;
}
);
unicode = 83;
},
{
glyphname = Germandbls;
lastChange = "2026-06-03 23:57:43 +0000";
layers = (
{
anchors = (
{
name = bottom;
pos = (365,0);
},
{
name = top;
pos = (365,700);
}
);
layerId = m01;
shapes = (
{
closed = 1;
nodes = (
(586,-13,o),
(659,43,o),
(659,155,cs),
(659,308,o),
(457,328,o),
(456,476,cs),
(456,612,o),
(503,630,o),
(585,688,c),
(585,714,l),
(8,714,l),
(8,699,l),
(50,683,l),
(50,0,l),
(220,0,l),
(220,689,l),
(543,689,l),
(472,663,o),
(317,656,o),
(317,415,cs),
(317,230,o),
(507,197,o),
(507,98,cs),
(507,58,o),
(484,32,o),
(441,31,cs),
(385,31,o),
(354,68,o),
(348,142,c),
(299,142,l),
(299,20,l),
(339,-2,o),
(386,-13,o),
(440,-13,cs)
);
}
);
width = 699;
}
);
unicode = 7838;
},
{
glyphname = T;
kernLeft = LHTuppers;
kernRight = RHTuppers;
lastChange = "2026-06-04 01:28:23 +0000";
layers = (
{
anchors = (
{
name = bottom;
pos = (346,0);
},
{
name = center;
pos = (346,350);
},
{
name = top;
pos = (346,700);
}
);
layerId = m01;
shapes = (
{
closed = 1;
nodes = (
(439,0,l),
(438,673,l),
(528,673,o),
(640,620,o),
(640,514,c),
(651,514,l),
(651,700,l),
(40,700,l),
(40,514,l),
(51,514,l),
(51,620,o),
(161,673,o),
(253,673,c),
(254,0,l)
);
}
);
width = 691;
}
);
unicode = 84;
},
{
glyphname = U;
kernLeft = roundedUppers;
kernRight = RHroundedUpper;
lastChange = "2026-06-04 21:56:19 +0000";
layers = (
{
anchors = (
{
name = bottom;
pos = (331,0);
},
{
name = ogonek;
pos = (538,38);
},
{
name = top;
pos = (331,700);
},
{
name = topright;
pos = (475,594);
}
);
layerId = m01;
shapes = (
{
closed = 1;
nodes = (
(533,28,o),
(582,110,o),
(580,221,cs),
(579,701,l),
(360,701,l),
(402,596,l),
(550,596,l),
(552,222,ls),
(552,167,o),
(544,134,o),
(519,98,cs),
(475,33,o),
(381,9,o),
(316,56,cs),
(281,82,o),
(264,131,o),
(264,175,cs),
(262,701,l),
(40,701,l),
(40,686,l),
(82,670,l),
(84,222,ls),
(84,139,o),
(125,58,o),
(199,21,cs),
(264,-11,o),
(345,-18,o),
(415,-1,cs)
);
}
);
width = 620;
}
);
unicode = 85;
},
{
glyphname = V;
kernLeft = LHVWuppers;
kernRight = VWuppers;
lastChange = "2026-06-04 01:20:36 +0000";
layers = (
{
anchors = (
{
name = bottom;
pos = (374,0);
},
{
name = top;
pos = (374,700);
}
);
layerId = m01;
shapes = (
{
closed = 1;
nodes = (
(420,0,l),
(708,700,l),
(447,700,l),
(432,621,l),
(613,593,ls),
(625,591,o),
(621,580,o),
(617,569,cs),
(457,168,l),
(254,700,l),
(40,700,l),
(342,0,l)
);
}
);
width = 748;
}
);
unicode = 86;
},
{
glyphname = W;
kernLeft = LHVWuppers;
kernRight = VWuppers;
lastChange = "2026-06-04 21:32:35 +0000";
layers = (
{
anchors = (
{
name = bottom;
pos = (544,0);
},
{
name = top;
pos = (544,700);
}
);
layerId = m01;
shapes = (
{
closed = 1;
nodes = (
(395,0,l),
(550,411,l),
(719,0,l),
(759,0,l),
(1047,700,l),
(799,700,l),
(784,621,l),
(942,593,ls),
(954,591,o),
(950,580,o),
(946,569,cs),
(812,230,l),
(631,700,l),
(432,700,l),
(530,460,l),
(445,234,l),
(261,700,l),
(40,700,l),
(40,685,l),
(79,670,l),
(354,0,l)
);
}
);
width = 1087;
}
);
unicode = 87;
},
{
glyphname = X;
lastChange = "2026-06-04 21:26:24 +0000";
layers = (
{
anchors = (
{
name = bottom;
pos = (372,0);
},
{
name = top;
pos = (372,700);
}
);
guides = (
{
angle = 79.249;
pos = (310,40);
}
);
layerId = m01;
shapes = (
{
closed = 1;
nodes = (
(704,0,l),
(478,369,l),
(701,700,l),
(453,700,l),
(438,621,l),
(561,597,ls),
(574,594,o),
(575,586,o),
(566,573,cs),
(455,405,l),
(274,700,l),
(47,700,l),
(269,339,l),
(40,0,l),
(302,0,l),
(317,79,l),
(180,103,ls),
(167,105,o),
(168,116,o),
(175,127,cs),
(291,303,l),
(477,0,l)
);
}
);
width = 744;
}
);
unicode = 88;
},
{
glyphname = Y;
kernLeft = LHVWuppers;
lastChange = "2026-06-08 01:19:51 +0000";
layers = (
{
anchors = (
{
name = bottom;
pos = (360,0);
},
{
name = top;
pos = (338,700);
},
{
name = topleft;
pos = (10,700);
}
);
layerId = m01;
shapes = (
{
closed = 1;
nodes = (
(450,0,l),
(450,281,l),
(645,700,l),
(390,700,l),
(377,621,l),
(513,593,ls),
(552,584,o),
(549,564,o),
(543,550,cs),
(437,323,l),
(253,700,l),
(30,700,l),
(30,685,l),
(77,665,l),
(273,287,l),
(275,0,l)
);
}
);
width = 685;
},
{
associatedMasterId = m01;
layerId = "78C25D96-9D34-4DAD-8021-9C9C71E25B26";
name = "7 May 26 at 11:43";
shapes = (
{
closed = 1;
nodes = (
(367,621,l),
(367,621,o),
(377,675,o),
(380,699,c),
(635,699,l),
(440,281,l),
(440,0,l),
(255,0,l),
(253,287,l),
(40,699,l),
(244,699,l),
(431,329,l),
(533,550,l),
(539,564,o),
(542,584,o),
(503,593,c)
);
}
);
width = 675;
}
);
unicode = 89;
},
{
glyphname = Z;
lastChange = "2026-06-04 02:40:45 +0000";
layers = (
{
anchors = (
{
name = bottom;
pos = (331,0);
},
{
name = center;
pos = (331,350);
},
{
name = top;
pos = (331,700);
}
);
layerId = m01;
shapes = (
{
closed = 1;
nodes = (
(617,0,l),
(617,196,l),
(539,185,l),
(506,60,ls),
(501,41,o),
(493,34,o),
(470,34,cs),
(262,34,l),
(622,700,l),
(70,700,l),
(70,504,l),
(148,515,l),
(181,640,ls),
(186,666,o),
(194,666,o),
(217,666,cs),
(404,666,l),
(40,0,l)
);
}
);
width = 662;
}
);
unicode = 90;
},
{
glyphname = Saltillo;
lastChange = "2026-06-04 23:27:33 +0000";
layers = (
{
layerId = m01;
shapes = (
{
closed = 1;
nodes = (
(107,432,l),
(131,701,l),
(20,701,l),
(44,432,l)
);
}
);
width = 151;
}
);
unicode = 42891;
},
{
glyphname = E.ss01;
lastChange = "2026-06-07 20:38:09 +0000";
layers = (
{
anchors = (
{
name = bottom;
pos = (283,0);
},
{
name = ogonek;
pos = (509,10);
},
{
name = top;
pos = (283,700);
},
{
name = topleft;
pos = (20,700);
}
);
layerId = m01;
shapes = (
{
closed = 1;
nodes = (
(525,0,l),
(523,170,l),
(447,159,l),
(414,53,ls),
(408,34,o),
(401,28,o),
(378,28,cs),
(258,28,l),
(258,337,l),
(364,337,ls),
(377,337,o),
(379,336,o),
(384,324,cs),
(402,278,l),
(443,272,l),
(443,436,l),
(402,430,l),
(384,384,ls),
(379,372,o),
(377,371,o),
(364,371,cs),
(258,371,l),
(258,373,l),
(257,670,l),
(257,672,l),
(378,672,ls),
(401,672,o),
(408,666,o),
(414,647,cs),
(447,541,l),
(523,530,l),
(525,700,l),
(40,700,l),
(40,685,l),
(82,669,l),
(84,0,l)
);
}
);
width = 565;
}
);
},
{
glyphname = F.ss01;
kernRight = RHTuppers;
lastChange = "2026-06-07 20:38:09 +0000";
layers = (
{
anchors = (
{
name = bottom;
pos = (283,0);
},
{
name = top;
pos = (283,700);
}
);
layerId = m01;
shapes = (
{
closed = 1;
nodes = (
(258,0,l),
(257,337,l),
(364,337,ls),
(377,337,o),
(379,336,o),
(384,324,cs),
(402,278,l),
(443,272,l),
(443,436,l),
(402,430,l),
(384,384,ls),
(379,372,o),
(377,371,o),
(364,371,cs),
(257,371,l),
(257,670,l),
(257,672,l),
(378,672,ls),
(401,672,o),
(408,666,o),
(414,647,cs),
(447,541,l),
(523,530,l),
(525,700,l),
(40,700,l),
(40,685,l),
(82,669,l),
(84,0,l)
);
}
);
width = 565;
}
);
},
{
glyphname = K.ss01;
lastChange = "2026-06-07 20:38:09 +0000";
layers = (
{
anchors = (
{
name = bottom;
pos = (374,0);
},
{
name = top;
pos = (374,700);
}
);
layerId = m01;
shapes = (
{
closed = 1;
nodes = (
(264,0,l),
(264,700,l),
(40,700,l),
(40,685,l),
(84,668,l),
(84,0,l)
);
},
{
closed = 1;
nodes = (
(708,0,l),
(703,1,o),
(377,434,o),
(377,434,c),
(304,363,l),
(493,117,ls),
(503,104,o),
(501,95,o),
(488,93,cs),
(402,79,l),
(417,0,l)
);
},
{
closed = 1;
nodes = (
(656,701,l),
(386,701,l),
(372,624,l),
(500,602,ls),
(506,601,o),
(508,591,o),
(502,585,cs),
(257,335,l),
(257,288,l)
);
}
);
width = 748;
}
);
},
{
glyphname = L.ss01;
lastChange = "2026-06-07 20:38:09 +0000";
layers = (
{
anchors = (
{
name = bottom;
pos = (277,0);
},
{
name = center;
pos = (160,350);
},
{
name = top;
pos = (277,700);
},
{
name = topright;
pos = (366,781);
}
);
layerId = m01;
shapes = (
{
closed = 1;
nodes = (
(513,0,l),
(513,180,l),
(435,169,l),
(402,53,ls),
(397,34,o),
(389,28,o),
(366,28,cs),
(260,28,l),
(260,699,l),
(40,699,l),
(40,684,l),
(84,667,l),
(84,0,l)
);
}
);
width = 553;
}
);
},
{
glyphname = M.ss01;
lastChange = "2026-06-07 20:38:09 +0000";
layers = (
{
anchors = (
{
name = bottom;
pos = (414,0);
},
{
name = top;
pos = (414,700);
}
);
layerId = m01;
shapes = (
{
closed = 1;
nodes = (
(558,557,l),
(558,0,l),
(735,0,l),
(733,700,l),
(570,700,l),
(426,272,l),
(242,700,l),
(50,700,l),
(50,685,l),
(92,669,l),
(92,631,l),
(93,0,l),
(121,0,l),
(122,557,l),
(365,-12,l)
);
}
);
width = 785;
}
);
},
{
glyphname = R.ss01;
lastChange = "2026-06-07 20:38:09 +0000";
layers = (
{
anchors = (
{
name = bottom;
pos = (330,0);
},
{
name = top;
pos = (330,700);
}
);
layerId = m01;
shapes = (
{
closed = 1;
nodes = (
(225,0,l),
(226,304,l),
(251,302,o),
(273,302,o),
(298,303,c),
(414,127,ls),
(421,116,o),
(422,106,o),
(409,103,cs),
(316,79,l),
(331,0,l),
(619,0,l),
(614,1,o),
(468,222,o),
(405,317,c),
(500,341,o),
(574,398,o),
(574,509,cs),
(574,596,o),
(516,700,o),
(332,700,cs),
(50,700,l),
(52,0,l)
);
},
{
closed = 1;
nodes = (
(226,671,l),
(333,671,o),
(400,650,o),
(400,512,cs),
(400,359,o),
(303,352,o),
(227,352,c)
);
}
);
width = 659;
}
);
},
{
glyphname = T.ss01;
kernLeft = LHTuppers;
kernRight = RHTuppers;
lastChange = "2026-06-07 20:38:09 +0000";
layers = (
{
anchors = (
{
name = bottom;
pos = (359,0);
},
{
name = center;
pos = (359,350);
},
{
name = top;
pos = (359,700);
}
);
layerId = m01;
shapes = (
{
closed = 1;
nodes = (
(447,0,l),
(446,672,l),
(530,672,ls),
(553,672,o),
(561,666,o),
(566,647,cs),
(599,531,l),
(677,520,l),
(677,700,l),
(40,700,l),
(40,520,l),
(118,531,l),
(151,647,ls),
(156,666,o),
(164,672,o),
(187,672,cs),
(271,672,l),
(272,0,l)
);
}
);
width = 717;
}
);
},
{
glyphname = Z.ss01;
lastChange = "2026-06-07 20:38:09 +0000";
layers = (
{
anchors = (
{
name = bottom;
pos = (336,0);
},
{
name = center;
pos = (336,350);
},
{
name = top;
pos = (336,700);
}
);
layerId = m01;
shapes = (
{
closed = 1;
nodes = (
(253,0,l),
(632,700,l),
(423,700,l),
(40,0,l)
);
},
{
closed = 1;
nodes = (
(627,0,l),
(629,240,l),
(604,240,l),
(566,108,o),
(483,33,o),
(339,33,cs),
(259,33,l),
(235,0,l)
);
},
{
closed = 1;
nodes = (
(94,460,l),
(132,592,o),
(215,667,o),
(359,667,cs),
(439,667,l),
(463,700,l),
(71,700,l),
(69,460,l)
);
}
);
width = 672;
}
);
},
{
glyphname = a;
kernLeft = roundedLow;
kernRight = RHlowerangled;
lastChange = "2026-06-08 00:21:08 +0000";
layers = (
{
anchors = (
{
name = bottom;
pos = (279,0);
},
{
name = ogonek;
pos = (501,10);
},
{
name = top;
pos = (274,470);
}
);
layerId = m01;
shapes = (
{
closed = 1;
nodes = (
(230,-9,o),
(275,14,o),
(311,60,c),
(314,46,o),
(341,-7,o),
(408,-7,cs),
(478,-7,o),
(509,29,o),
(517,52,c),
(505,64,l),
(479,41,o),
(453,49,o),
(454,119,cs),
(454,302,ls),
(454,419,o),
(387,478,o),
(253,478,cs),
(181,478,o),
(135,460,o),
(70,426,c),
(119,315,l),
(127,315,l),
(188,406,ls),
(215,443,o),
(230,457,o),
(249,457,cs),
(292,457,o),
(307,410,o),
(303,316,c),
(135,284,o),
(40,240,o),
(40,118,cs),
(40,31,o),
(105,-9,o),
(178,-9,cs)
);
},
{
closed = 1;
nodes = (
(202,53,o),
(181,80,o),
(181,141,cs),
(181,240,o),
(259,273,o),
(303,293,c),
(303,86,ls),
(303,76,o),
(275,53,o),
(247,53,cs)
);
}
);
width = 547;
}
);
unicode = 97;
},
{
glyphname = ae;
kernLeft = roundedLow;
kernRight = RHroundedlow;
lastChange = "2026-06-04 01:39:08 +0000";
layers = (
{
anchors = (
{
name = bottom;
pos = (385,0);
},
{
name = top;
pos = (398,470);
}
);
layerId = m01;
shapes = (
{
closed = 1;
nodes = (
(630,-16,o),
(683,43,o),
(725,125,c),
(709,138,l),
(679,93,o),
(641,70,o),
(593,71,cs),
(516,71,o),
(451,132,o),
(451,255,c),
(730,255,l),
(730,403,o),
(654,475,o),
(526,475,cs),
(479,475,o),
(434,463,o),
(398,439,c),
(364,465,o),
(316,478,o),
(253,478,cs),
(181,478,o),
(135,460,o),
(70,426,c),
(119,315,l),
(127,315,l),
(188,406,ls),
(215,443,o),
(230,457,o),
(249,457,cs),
(292,457,o),
(307,410,o),
(303,316,c),
(135,284,o),
(40,240,o),
(40,118,cs),
(40,31,o),
(106,-2,o),
(178,-9,cs),
(230,-14,o),
(314,-12,o),
(353,74,c),
(394,19,o),
(457,-16,o),
(525,-16,cs)
);
},
{
closed = 1;
nodes = (
(202,53,o),
(181,80,o),
(181,141,cs),
(181,240,o),
(259,273,o),
(303,293,c),
(303,108,ls),
(303,70,o),
(275,53,o),
(247,53,cs)
);
},
{
closed = 1;
nodes = (
(451,392,o),
(476,451,o),
(525,451,cs),
(569,451,o),
(591,392,o),
(591,275,c),
(451,275,l)
);
}
);
width = 770;
}
);
unicode = 230;
},
{
glyphname = b;
kernRight = RHroundedlow;
lastChange = "2026-06-04 01:39:08 +0000";
layers = (
{
anchors = (
{
name = bottom;
pos = (300,0);
},
{
name = center;
pos = (150,640);
},
{
name = top;
pos = (300,470);
}
);
layerId = m01;
shapes = (
{
closed = 1;
nodes = (
(463,-9,o),
(559,65,o),
(559,250,cs),
(559,401,o),
(471,481,o),
(358,481,cs),
(314,481,o),
(274,458,o),
(240,424,c),
(249,392,l),
(273,424,o),
(296,439,o),
(320,439,cs),
(370,439,o),
(395,374,o),
(395,251,cs),
(395,103,o),
(370,29,o),
(319,29,cs),
(289,29,o),
(265,42,o),
(247,80,c),
(221,71,l),
(242,31,o),
(278,-8,o),
(341,-9,cs)
);
},
{
closed = 1;
nodes = (
(257,0,l),
(257,713,l),
(50,697,l),
(50,684,l),
(94,667,l),
(94,-1,l)
);
}
);
width = 599;
}
);
unicode = 98;
},
{
glyphname = c;
kernLeft = roundedLow;
kernRight = RHroundedlow;
lastChange = "2026-06-08 00:26:00 +0000";
layers = (
{
anchors = (
{
name = bottom;
pos = (249,0);
},
{
name = top;
pos = (269,470);
}
);
layerId = m01;
shapes = (
{
closed = 1;
nodes = (
(376,-7,o),
(429,33,o),
(458,137,c),
(439,144,l),
(412,58,o),
(364,25,o),
(308,26,cs),
(236,26,o),
(200,97,o),
(200,240,cs),
(200,384,o),
(226,456,o),
(278,456,cs),
(328,456,o),
(368,397,o),
(396,277,c),
(407,277,l),
(457,414,l),
(408,456,o),
(346,478,o),
(273,478,cs),
(140,478,o),
(40,399,o),
(40,240,cs),
(40,75,o),
(140,-8,o),
(275,-8,cs)
);
}
);
width = 498;
}
);
unicode = 99;
},
{
glyphname = d;
kernLeft = roundedLow;
lastChange = "2026-06-07 23:27:29 +0000";
layers = (
{
anchors = (
{
name = bottom;
pos = (278,0);
},
{
name = center;
pos = (417,575);
},
{
name = top;
pos = (229,470);
},
{
name = topright;
pos = (513,800);
}
);
guides = (
{
angle = 90;
pos = (342,357);
}
);
layerId = m01;
shapes = (
{
closed = 1;
nodes = (
(289,-9,o),
(325,14,o),
(359,48,c),
(350,80,l),
(326,48,o),
(303,33,o),
(279,33,cs),
(229,33,o),
(204,98,o),
(204,221,cs),
(204,369,o),
(221,443,o),
(280,443,cs),
(310,443,o),
(334,430,o),
(352,392,c),
(378,401,l),
(357,441,o),
(321,481,o),
(258,481,cs),
(128,481,o),
(40,407,o),
(40,222,cs),
(40,71,o),
(128,-9,o),
(241,-9,cs)
);
},
{
closed = 1;
nodes = (
(506,0,l),
(506,713,l),
(299,697,l),
(299,684,l),
(343,667,l),
(343,-1,l)
);
}
);
width = 556;
}
);
unicode = 100;
},
{
glyphname = eth;
kernLeft = roundedLow;
kernRight = RHroundedlow;
lastChange = "2026-06-04 01:39:08 +0000";
layers = (
{
anchors = (
{
name = bottom;
pos = (302,0);
},
{
name = top;
pos = (302,800);
}
);
layerId = m01;
shapes = (
{
closed = 1;
nodes = (
(459,-10,o),
(563,94,o),
(563,301,c),
(567,527,o),
(406,704,o),
(159,787,c),
(131,739,l),
(237,682,o),
(313,598,o),
(355,495,c),
(186,554,o),
(40,423,o),
(40,253,c),
(40,78,o),
(155,-10,o),
(297,-10,c)
);
},
{
closed = 1;
nodes = (
(239,38,o),
(206,111,o),
(206,258,c),
(206,396,o),
(237,465,o),
(298,465,c),
(363,465,o),
(396,400,o),
(396,269,c),
(396,115,o),
(366,38,o),
(305,38,c)
);
},
{
attr = {
strokeWidth = 50;
};
closed = 0;
nodes = (
(488,743,l),
(137,579,l)
);
}
);
width = 603;
}
);
unicode = 240;
},
{
glyphname = e;
kernLeft = roundedLow;
kernRight = RHroundedlow;
lastChange = "2026-06-05 19:49:34 +0000";
layers = (
{
anchors = (
{
name = bottom;
pos = (258,0);
},
{
name = ogonek;
pos = (446,42);
},
{
name = top;
pos = (258,470);
}
);
layerId = m01;
shapes = (
{
closed = 1;
nodes = (
(376,-8,o),
(429,43,o),
(471,125,c),
(455,138,l),
(425,93,o),
(387,70,o),
(339,71,cs),
(262,71,o),
(197,132,o),
(197,255,c),
(476,255,l),
(476,403,o),
(400,475,o),
(272,475,cs),
(152,475,o),
(40,398,o),
(40,240,cs),
(40,75,o),
(152,-8,o),
(271,-8,cs)
);
},
{
closed = 1;
nodes = (
(197,392,o),
(222,451,o),
(271,451,cs),
(315,451,o),
(337,392,o),
(337,275,c),
(197,275,l)
);
}
);
width = 516;
}
);
unicode = 101;
},
{
glyphname = schwa;
kernLeft = roundedLow;
kernRight = RHroundedlow;
lastChange = "2026-06-04 01:39:08 +0000";
layers = (
{
anchors = (
{
name = bottom;
pos = (253,0);
},
{
name = ogonekabove;
pos = (51,460);
},
{
name = top;
pos = (253,470);
}
);
layerId = m01;
shapes = (
{
closed = 1;
nodes = (
(364,-5,o),
(466,72,o),
(466,230,cs),
(466,395,o),
(364,478,o),
(245,478,cs),
(140,478,o),
(87,427,o),
(45,345,c),
(61,332,l),
(91,377,o),
(129,400,o),
(177,399,cs),
(254,399,o),
(319,358,o),
(319,245,c),
(40,245,l),
(40,97,o),
(116,-5,o),
(244,-5,cs)
);
},
{
closed = 1;
nodes = (
(201,19,o),
(179,88,o),
(179,205,c),
(319,205,l),
(319,88,o),
(294,19,o),
(245,19,cs)
);
}
);
width = 506;
}
);
unicode = 601;
},
{
glyphname = f;
kernRight = RHFTlower;
lastChange = "2026-06-04 01:52:57 +0000";
layers = (
{
anchors = (
{
name = bottom;
pos = (251,0);
},
{
name = top;
pos = (251,700);
}
);
layerId = m01;
shapes = (
{
closed = 1;
nodes = (
(273,-1,l),
(274,595,ls),
(274,648,o),
(288,674,o),
(315,674,cs),
(346,674,o),
(379,620,o),
(412,514,c),
(422,514,l),
(471,654,l),
(424,684,o),
(372,699,o),
(315,699,cs),
(182,699,o),
(116,630,o),
(116,493,cs),
(116,-1,l)
);
},
{
closed = 1;
nodes = (
(408,437,l),
(408,470,l),
(40,470,l),
(40,437,l)
);
}
);
width = 501;
}
);
unicode = 102;
},
{
glyphname = g;
kernLeft = roundedLow;
lastChange = "2026-06-04 03:32:36 +0000";
layers = (
{
anchors = (
{
name = bottom;
pos = (278,-222);
},
{
name = top;
pos = (278,523);
}
);
layerId = m01;
shapes = (
{
closed = 1;
nodes = (
(434,-230,o),
(515,-169,o),
(515,-46,cs),
(515,29,o),
(468,86,o),
(349,86,cs),
(214,86,ls),
(157,86,o),
(142,98,o),
(142,122,cs),
(141,138,o),
(156,153,o),
(185,167,c),
(154,173,l),
(93,153,o),
(58,101,o),
(58,52,cs),
(59,15,o),
(76,-12,o),
(109,-31,c),
(40,-167,l),
(96,-209,o),
(173,-230,o),
(271,-230,cs)
);
},
{
closed = 1;
nodes = (
(249,-128,l),
(149,-111,ls),
(114,-104,o),
(108,-85,o),
(132,-41,c),
(140,-45,o),
(152,-46,o),
(160,-46,cs),
(326,-49,ls),
(375,-49,o),
(399,-71,o),
(399,-116,cs),
(399,-177,o),
(332,-208,o),
(263,-208,cs),
(232,-208,l)
);
},
{
closed = 1;
nodes = (
(396,143,o),
(483,202,o),
(483,317,cs),
(483,424,o),
(390,480,o),
(272,480,cs),
(153,480,o),
(59,424,o),
(59,317,cs),
(59,202,o),
(147,143,o),
(272,143,cs)
);
},
{
closed = 1;
nodes = (
(226,165,o),
(204,216,o),
(204,315,cs),
(204,409,o),
(226,458,o),
(271,458,cs),
(315,458,o),
(337,409,o),
(337,315,cs),
(337,216,o),
(315,165,o),
(271,165,cs)
);
},
{
closed = 1;
nodes = (
(392,472,o),
(403,487,o),
(425,487,cs),
(500,487,l),
(511,579,l),
(480,579,ls),
(387,579,o),
(360,530,o),
(360,451,c),
(390,440,l)
);
}
);
width = 555;
}
);
unicode = 103;
},
{
glyphname = h;
lastChange = "2026-06-04 21:30:09 +0000";
layers = (
{
anchors = (
{
name = bottom;
pos = (274,0);
},
{
name = center;
pos = (162,570);
},
{
name = top;
pos = (274,700);
}
);
layerId = m01;
shapes = (
{
closed = 1;
nodes = (
(247,0,l),
(247,713,l),
(40,697,l),
(40,684,l),
(84,667,l),
(84,0,l)
);
},
{
closed = 1;
nodes = (
(517,0,l),
(517,324,ls),
(517,434,o),
(428,478,o),
(374,478,cs),
(307,478,o),
(260,448,o),
(225,392,c),
(243,363,l),
(257,397,o),
(279,415,o),
(308,415,cs),
(355,415,o),
(361,377,o),
(361,301,cs),
(361,0,l)
);
}
);
width = 557;
}
);
unicode = 104;
},
{
glyphname = i;
kernLeft = LHlowerangled;
kernRight = RHlowerangled;
lastChange = "2026-06-08 00:26:50 +0000";
layers = (
{
anchors = (
{
name = bottom;
pos = (136,0);
}
);
layerId = m01;
shapes = (
{
closed = 1;
nodes = (
(183,539,o),
(221,577,o),
(221,625,cs),
(221,672,o),
(183,710,o),
(136,710,cs),
(88,710,o),
(50,672,o),
(50,625,cs),
(50,577,o),
(88,539,o),
(136,539,cs)
);
},
{
pos = (9,0);
ref = idotless;
}
);
width = 271;
}
);
unicode = 105;
},
{
glyphname = idotless;
kernLeft = LHlowerangled;
kernRight = RHlowerangled;
lastChange = "2026-06-04 03:08:24 +0000";
layers = (
{
anchors = (
{
name = bottom;
pos = (138,0);
},
{
name = ogonek;
pos = (213,0);
},
{
name = top;
pos = (132,470);
}
);
layerId = m01;
shapes = (
{
closed = 1;
nodes = (
(203,0,l),
(203,483,l),
(50,467,l),
(50,0,l)
);
}
);
width = 253;
}
);
unicode = 305;
},
{
glyphname = j;
lastChange = "2026-06-04 03:27:57 +0000";
layers = (
{
layerId = m01;
shapes = (
{
closed = 1;
nodes = (
(308,539,o),
(346,577,o),
(346,625,cs),
(346,672,o),
(308,710,o),
(261,710,cs),
(213,710,o),
(175,672,o),
(175,625,cs),
(175,577,o),
(213,539,o),
(261,539,cs)
);
},
{
pos = (-20,0);
ref = jdotless;
}
);
width = 396;
}
);
unicode = 106;
},
{
glyphname = jdotless;
lastChange = "2026-06-04 01:34:15 +0000";
layers = (
{
anchors = (
{
name = bottom;
pos = (211,-200);
},
{
name = top;
pos = (284,470);
}
);
layerId = m01;
shapes = (
{
closed = 1;
nodes = (
(293,-228,o),
(359,-155,o),
(359,-10,c),
(359,483,l),
(206,467,l),
(206,-10,l),
(206,-154,o),
(201,-198,o),
(170,-198,c),
(134,-198,o),
(122,-154,o),
(117,-68,c),
(32,-75,l),
(20,-192,l),
(65,-216,o),
(115,-228,o),
(174,-228,c)
);
}
);
width = 421;
}
);
unicode = 567;
},
{
glyphname = k;
lastChange = "2026-06-03 23:46:39 +0000";
layers = (
{
anchors = (
{
name = bottom;
pos = (310,0);
},
{
name = top;
pos = (310,800);
}
);
layerId = m01;
shapes = (
{
closed = 1;
nodes = (
(580,0,l),
(387,304,l),
(572,477,l),
(355,477,l),
(340,413,l),
(435,386,l),
(168,136,l),
(207,136,l),
(282,206,l),
(387,0,l)
);
},
{
closed = 1;
nodes = (
(247,0,l),
(247,713,l),
(40,697,l),
(40,684,l),
(84,667,l),
(84,0,l)
);
}
);
width = 620;
}
);
unicode = 107;
},
{
glyphname = l;
lastChange = "2026-06-07 23:24:45 +0000";
layers = (
{
anchors = (
{
name = bottom;
pos = (163,0);
},
{
name = center;
pos = (154,381);
},
{
name = top;
pos = (149,700);
},
{
name = topright;
pos = (250,800);
}
);
layerId = m01;
shapes = (
{
closed = 1;
nodes = (
(247,0,l),
(247,713,l),
(40,697,l),
(40,684,l),
(84,667,l),
(84,0,l)
);
}
);
width = 297;
}
);
unicode = 108;
},
{
glyphname = m;
kernLeft = LHlowerangled;
kernRight = RHlowerangled;
lastChange = "2026-06-04 01:59:08 +0000";
layers = (
{
anchors = (
{
name = bottom;
pos = (412,0);
},
{
name = top;
pos = (412,470);
}
);
layerId = m01;
shapes = (
{
closed = 1;
nodes = (
(793,1,l),
(793,308,ls),
(793,423,o),
(741,479,o),
(637,479,cs),
(570,479,o),
(520,442,o),
(485,386,c),
(503,364,l),
(517,398,o),
(547,416,o),
(568,416,cs),
(620,416,o),
(633,378,o),
(633,302,cs),
(633,1,l)
);
},
{
closed = 1;
nodes = (
(249,1,l),
(249,381,l),
(234,392,l),
(213,471,l),
(90,471,l),
(90,1,l)
);
},
{
closed = 1;
nodes = (
(100,471,l),
(40,471,l),
(40,457,l),
(95,432,l)
);
},
{
closed = 1;
nodes = (
(519,1,l),
(519,325,ls),
(519,435,o),
(430,479,o),
(376,479,cs),
(309,479,o),
(262,449,o),
(227,393,c),
(245,364,l),
(259,398,o),
(281,416,o),
(310,416,cs),
(357,416,o),
(363,378,o),
(363,302,cs),
(363,1,l)
);
}
);
width = 833;
}
);
unicode = 109;
},
{
glyphname = n;
kernLeft = LHlowerangled;
kernRight = RHlowerangled;
lastChange = "2026-06-04 21:33:40 +0000";
layers = (
{
anchors = (
{
name = bottom;
pos = (286,0);
},
{
name = top;
pos = (286,470);
}
);
layerId = m01;
shapes = (
{
closed = 1;
nodes = (
(245,1,l),
(245,373,l),
(259,401,o),
(280,416,o),
(306,416,cs),
(349,416,o),
(371,378,o),
(371,302,cs),
(371,1,l),
(531,1,l),
(531,308,ls),
(531,423,o),
(479,479,o),
(375,479,cs),
(311,479,o),
(262,452,o),
(228,400,c),
(209,471,l),
(86,471,l),
(86,1,l)
);
},
{
closed = 1;
nodes = (
(100,471,l),
(40,471,l),
(40,457,l),
(95,432,l)
);
}
);
width = 571;
}
);
unicode = 110;
},
{
glyphname = o;
kernLeft = roundedLow;
kernRight = RHroundedlow;
lastChange = "2026-06-04 21:57:28 +0000";
layers = (
{
anchors = (
{
name = bottom;
pos = (278,0);
},
{
name = center;
pos = (278,235);
},
{
name = ogonek;
pos = (409,10);
},
{
name = top;
pos = (278,470);
},
{
name = topright;
pos = (356,412);
}
);
layerId = m01;
shapes = (
{
closed = 1;
nodes = (
(419,-9,o),
(516,76,o),
(516,243,c),
(516,402,o),
(406,478,o),
(279,478,c),
(153,478,o),
(40,402,o),
(40,243,c),
(40,76,o),
(140,-9,o),
(279,-9,c)
);
},
{
closed = 1;
nodes = (
(230,15,o),
(206,90,o),
(206,243,c),
(206,386,o),
(230,455,o),
(279,455,c),
(326,455,o),
(350,386,o),
(350,243,c),
(350,90,o),
(326,15,o),
(279,15,c)
);
}
);
width = 556;
}
);
unicode = 111;
},
{
glyphname = oe;
kernLeft = roundedLow;
kernRight = RHroundedlow;
lastChange = "2026-06-04 01:39:08 +0000";
layers = (
{
anchors = (
{
name = bottom;
pos = (423,0);
},
{
name = top;
pos = (423,470);
}
);
layerId = m01;
shapes = (
{
closed = 1;
nodes = (
(351,-9,o),
(411,13,o),
(452,56,c),
(488,13,o),
(539,-8,o),
(600,-8,cs),
(705,-8,o),
(758,43,o),
(800,125,c),
(784,138,l),
(754,93,o),
(716,70,o),
(668,71,cs),
(591,71,o),
(526,132,o),
(526,255,c),
(805,255,l),
(805,403,o),
(729,475,o),
(601,475,cs),
(540,475,o),
(487,454,o),
(451,414,c),
(408,457,o),
(346,478,o),
(279,478,cs),
(153,478,o),
(40,402,o),
(40,243,cs),
(40,76,o),
(140,-9,o),
(279,-9,cs)
);
},
{
closed = 1;
nodes = (
(230,15,o),
(188,90,o),
(188,243,cs),
(188,386,o),
(230,455,o),
(279,455,cs),
(326,455,o),
(369,386,o),
(369,243,cs),
(369,90,o),
(326,15,o),
(279,15,cs)
);
},
{
closed = 1;
nodes = (
(526,392,o),
(551,451,o),
(600,451,cs),
(644,451,o),
(666,392,o),
(666,275,c),
(526,275,l)
);
}
);
width = 845;
}
);
unicode = 339;
},
{
glyphname = p;
kernRight = RHroundedlow;
lastChange = "2026-06-04 05:51:41 +0000";
layers = (
{
anchors = (
{
name = bottom;
pos = (292,0);
},
{
name = top;
pos = (292,470);
}
);
layerId = m01;
shapes = (
{
closed = 1;
nodes = (
(448,-12,o),
(544,62,o),
(544,247,cs),
(544,398,o),
(456,478,o),
(343,478,cs),
(299,478,o),
(259,455,o),
(225,421,c),
(234,389,l),
(258,421,o),
(281,436,o),
(305,436,cs),
(355,436,o),
(385,371,o),
(385,248,cs),
(385,100,o),
(355,26,o),
(304,26,cs),
(274,26,o),
(250,39,o),
(232,77,c),
(206,68,l),
(227,28,o),
(263,-11,o),
(326,-12,cs)
);
},
{
closed = 1;
nodes = (
(242,-222,l),
(242,419,l),
(240,432,l),
(223,470,l),
(40,470,l),
(40,457,l),
(84,440,l),
(84,-223,l)
);
}
);
width = 584;
}
);
unicode = 112;
},
{
glyphname = thorn;
kernRight = RHroundedlow;
lastChange = "2026-06-04 01:39:08 +0000";
layers = (
{
anchors = (
{
name = bottom;
pos = (300,0);
},
{
name = top;
pos = (300,800);
}
);
layerId = m01;
shapes = (
{
closed = 1;
nodes = (
(257,-243,l),
(257,419,l),
(255,662,l),
(238,700,l),
(50,700,l),
(50,687,l),
(94,670,l),
(94,-244,l)
);
},
{
closed = 1;
nodes = (
(463,-12,o),
(559,62,o),
(559,247,cs),
(559,398,o),
(471,478,o),
(358,478,cs),
(314,478,o),
(274,455,o),
(240,421,c),
(249,389,l),
(273,421,o),
(296,436,o),
(320,436,cs),
(370,436,o),
(395,371,o),
(395,248,cs),
(395,100,o),
(370,26,o),
(319,26,cs),
(289,26,o),
(265,39,o),
(247,77,c),
(221,68,l),
(242,28,o),
(278,-11,o),
(341,-12,cs)
);
}
);
width = 599;
}
);
unicode = 254;
},
{
glyphname = q;
kernLeft = roundedLow;
lastChange = "2026-06-04 00:44:46 +0000";
layers = (
{
anchors = (
{
name = bottom;
pos = (300,0);
},
{
name = top;
pos = (300,470);
}
);
layerId = m01;
shapes = (
{
closed = 1;
nodes = (
(295,-12,o),
(335,11,o),
(369,45,c),
(360,77,l),
(336,45,o),
(313,30,o),
(289,30,cs),
(239,30,o),
(214,95,o),
(214,218,cs),
(214,366,o),
(239,440,o),
(290,440,cs),
(320,440,o),
(344,427,o),
(362,389,c),
(388,398,l),
(367,438,o),
(331,477,o),
(268,478,cs),
(146,478,o),
(50,404,o),
(50,219,cs),
(50,68,o),
(138,-12,o),
(251,-12,cs)
);
},
{
closed = 1;
nodes = (
(569,-204,l),
(515,-188,l),
(515,470,l),
(352,436,l),
(352,419,l),
(352,-223,l),
(569,-224,l)
);
}
);
width = 600;
}
);
unicode = 113;
},
{
glyphname = r;
kernLeft = LHlowerangled;
lastChange = "2026-06-08 00:19:19 +0000";
layers = (
{
anchors = (
{
name = bottom;
pos = (225,0);
},
{
name = top;
pos = (225,470);
}
);
layerId = m01;
shapes = (
{
closed = 1;
nodes = (
(245,0,l),
(245,318,ls),
(245,382,o),
(274,410,o),
(300,411,cs),
(343,413,o),
(359,368,o),
(373,291,c),
(391,291,l),
(430,462,l),
(409,470,o),
(385,479,o),
(355,479,cs),
(305,479,o),
(260,460,o),
(231,392,c),
(209,471,l),
(86,471,l),
(86,0,l)
);
},
{
closed = 1;
nodes = (
(100,471,l),
(40,471,l),
(40,457,l),
(95,432,l)
);
}
);
width = 450;
}
);
unicode = 114;
},
{
glyphname = s;
kernLeft = roundedLow;
lastChange = "2026-06-04 21:13:09 +0000";
layers = (
{
anchors = (
{
name = bottom;
pos = (242,0);
},
{
name = top;
pos = (242,470);
}
);
layerId = m01;
shapes = (
{
closed = 1;
nodes = (
(373,-10,o),
(444,47,o),
(444,145,cs),
(444,320,o),
(179,280,o),
(179,396,cs),
(179,434,o),
(206,454,o),
(246,454,cs),
(320,454,o),
(351,385,o),
(386,309,c),
(398,309,l),
(421,428,l),
(372,462,o),
(314,477,o),
(247,477,cs),
(131,477,o),
(52,428,o),
(52,328,cs),
(52,156,o),
(305,184,o),
(305,77,cs),
(305,36,o),
(281,16,o),
(232,16,cs),
(131,16,o),
(92,146,o),
(81,169,c),
(69,169,l),
(40,47,l),
(95,11,o),
(158,-10,o),
(231,-10,cs)
);
}
);
width = 484;
}
);
unicode = 115;
},
{
glyphname = germandbls;
lastChange = "2026-06-03 23:46:39 +0000";
layers = (
{
anchors = (
{
name = bottom;
pos = (330,0);
},
{
name = top;
pos = (330,800);
}
);
layerId = m01;
shapes = (
{
closed = 1;
nodes = (
(556,-13,o),
(629,43,o),
(629,155,cs),
(629,308,o),
(427,322,o),
(426,393,cs),
(426,455,o),
(575,437,o),
(575,560,cs),
(575,665,o),
(487,714,o),
(311,714,cs),
(122,714,o),
(50,617,o),
(50,415,cs),
(50,0,l),
(215,0,l),
(215,551,ls),
(215,636,o),
(262,678,o),
(313,679,cs),
(376,679,o),
(407,637,o),
(407,554,cs),
(407,417,o),
(287,456,o),
(287,341,cs),
(287,230,o),
(477,197,o),
(477,98,cs),
(477,58,o),
(454,32,o),
(411,31,cs),
(355,31,o),
(324,68,o),
(318,142,c),
(269,142,l),
(269,20,l),
(309,-2,o),
(356,-13,o),
(410,-13,cs)
);
}
);
width = 669;
}
);
unicode = 223;
},
{
glyphname = t;
kernRight = RHFTlower;
lastChange = "2026-06-08 00:24:08 +0000";
layers = (
{
anchors = (
{
name = bottom;
pos = (235,0);
},
{
name = center;
pos = (218,235);
},
{
name = top;
pos = (218,634);
},
{
name = topright;
pos = (296,786);
}
);
layerId = m01;
shapes = (
{
closed = 1;
nodes = (
(365,-9,o),
(398,28,o),
(415,105,c),
(395,109,l),
(381,50,o),
(352,29,o),
(322,28,cs),
(264,28,o),
(266,80,o),
(266,184,cs),
(266,634,l),
(106,571,l),
(106,149,ls),
(106,55,o),
(152,-9,o),
(264,-9,cs)
);
},
{
closed = 1;
nodes = (
(391,433,l),
(391,465,l),
(30,465,l),
(30,433,l)
);
}
);
width = 435;
}
);
unicode = 116;
},
{
glyphname = u;
kernLeft = LHlowerangled;
kernRight = RHlowerangled;
lastChange = "2026-06-08 00:25:07 +0000";
layers = (
{
anchors = (
{
name = bottom;
pos = (301,0);
},
{
name = ogonek;
pos = (509,10);
},
{
name = top;
pos = (293,470);
},
{
name = topright;
pos = (421,412);
}
);
layerId = m01;
shapes = (
{
closed = 1;
nodes = (
(280,-8,o),
(329,19,o),
(363,71,c),
(382,0,l),
(505,0,l),
(505,470,l),
(346,470,l),
(346,98,l),
(332,70,o),
(311,55,o),
(285,55,cs),
(232,55,o),
(210,93,o),
(210,169,cs),
(210,470,l),
(50,470,l),
(50,163,ls),
(50,48,o),
(102,-8,o),
(206,-8,cs)
);
},
{
closed = 1;
nodes = (
(551,0,l),
(551,14,l),
(496,39,l),
(491,0,l)
);
}
);
width = 591;
}
);
unicode = 117;
},
{
glyphname = v;
kernLeft = LHVWlow;
lastChange = "2026-06-08 00:25:31 +0000";
layers = (
{
anchors = (
{
name = bottom;
pos = (295,0);
},
{
name = top;
pos = (295,470);
}
);
layerId = m01;
shapes = (
{
closed = 1;
nodes = (
(346,0,l),
(550,471,l),
(382,471,l),
(367,404,l),
(443,391,ls),
(471,386,o),
(471,374,o),
(463,354,cs),
(369,136,l),
(228,471,l),
(40,471,l),
(249,0,l)
);
}
);
width = 590;
}
);
unicode = 118;
},
{
glyphname = w;
kernLeft = LHVWlow;
lastChange = "2026-06-04 02:35:39 +0000";
layers = (
{
anchors = (
{
name = bottom;
pos = (439,0);
},
{
name = top;
pos = (439,470);
}
);
layerId = m01;
shapes = (
{
closed = 1;
nodes = (
(634,0,l),
(838,471,l),
(673,471,l),
(658,404,l),
(734,391,ls),
(762,386,o),
(762,374,o),
(754,354,cs),
(663,144,l),
(537,471,l),
(342,471,l),
(546,0,l)
);
},
{
closed = 1;
nodes = (
(334,0,l),
(462,339,l),
(433,349,l),
(358,144,l),
(227,471,l),
(40,471,l),
(243,0,l)
);
}
);
width = 878;
}
);
unicode = 119;
},
{
glyphname = x;
kernLeft = LHVWlow;
lastChange = "2026-06-04 03:35:56 +0000";
layers = (
{
anchors = (
{
name = bottom;
pos = (290,0);
},
{
name = top;
pos = (290,470);
}
);
layerId = m01;
shapes = (
{
closed = 1;
nodes = (
(539,0,l),
(239,470,l),
(43,470,l),
(343,0,l)
);
},
{
closed = 1;
nodes = (
(215,0,l),
(232,65,l),
(161,82,ls),
(147,85,o),
(148,93,o),
(158,105,cs),
(231,201,l),
(210,223,l),
(40,0,l)
);
},
{
closed = 1;
nodes = (
(529,470,l),
(355,470,l),
(342,412,l),
(413,395,ls),
(427,392,o),
(426,384,o),
(416,372,cs),
(339,271,l),
(359,249,l)
);
}
);
width = 579;
}
);
unicode = 120;
},
{
glyphname = y;
kernLeft = LHVWlow;
kernRight = RHVWlow;
lastChange = "2026-06-08 01:21:59 +0000";
layers = (
{
anchors = (
{
name = bottom;
pos = (425,-36);
},
{
name = top;
pos = (291,470);
}
);
layerId = m01;
shapes = (
{
closed = 1;
nodes = (
(274,-215,o),
(297,-195,o),
(335,-92,cs),
(542,472,l),
(382,472,l),
(367,405,l),
(443,392,ls),
(471,387,o),
(470,375,o),
(463,355,cs),
(374,110,l),
(228,472,l),
(40,472,l),
(249,1,l),
(334,1,l),
(301,-92,ls),
(275,-165,o),
(260,-187,o),
(236,-187,cs),
(211,-187,o),
(201,-149,o),
(198,-75,c),
(95,-84,l),
(83,-200,l),
(98,-205,o),
(168,-236,o),
(228,-224,cs)
);
}
);
width = 582;
}
);
unicode = 121;
},
{
glyphname = z;
kernLeft = LHlowerangled;
lastChange = "2026-06-04 02:16:59 +0000";
layers = (
{
anchors = (
{
name = bottom;
pos = (258,0);
},
{
name = center;
pos = (258,235);
},
{
name = top;
pos = (258,470);
}
);
layerId = m01;
shapes = (
{
closed = 1;
nodes = (
(476,0,l),
(476,187,l),
(460,187,l),
(442,135,o),
(361,31,o),
(287,31,cs),
(224,31,l),
(468,439,l),
(468,472,l),
(53,472,l),
(53,293,l),
(70,293,l),
(94,387,o),
(169,443,o),
(246,441,cs),
(285,441,l),
(40,33,l),
(40,0,l)
);
}
);
width = 516;
}
);
unicode = 122;
},
{
glyphname = saltillo;
lastChange = "2026-06-04 23:27:49 +0000";
layers = (
{
layerId = m01;
shapes = (
{
closed = 1;
nodes = (
(107,462,l),
(131,701,l),
(20,701,l),
(44,462,l)
);
}
);
width = 151;
}
);
unicode = 42892;
},
{
glyphname = fi;
lastChange = "2026-06-03 23:46:39 +0000";
layers = (
{
anchors = (
{
name = caret_1;
pos = (302,0);
}
);
layerId = m01;
shapes = (
{
closed = 1;
nodes = (
(273,-1,l),
(274,595,ls),
(274,648,o),
(288,674,o),
(315,674,cs),
(346,674,o),
(379,620,o),
(412,514,c),
(422,514,l),
(471,654,l),
(424,684,o),
(372,699,o),
(315,699,cs),
(182,699,o),
(116,630,o),
(116,493,cs),
(116,-1,l)
);
},
{
closed = 1;
nodes = (
(408,437,l),
(408,470,l),
(40,470,l),
(40,437,l)
);
},
{
closed = 1;
nodes = (
(554,0,l),
(554,470,l),
(401,470,l),
(401,0,l)
);
}
);
width = 604;
}
);
metricLeft = f;
unicode = 64257;
},
{
glyphname = fl;
lastChange = "2026-06-03 23:46:39 +0000";
layers = (
{
anchors = (
{
name = caret_1;
pos = (354,0);
}
);
layerId = m01;
shapes = (
{
closed = 1;
nodes = (
(273,-1,l),
(274,595,ls),
(274,648,o),
(288,674,o),
(315,674,cs),
(346,674,o),
(379,620,o),
(412,514,c),
(422,514,l),
(471,654,l),
(424,684,o),
(372,699,o),
(315,699,cs),
(182,699,o),
(116,630,o),
(116,493,cs),
(116,-1,l)
);
},
{
closed = 1;
nodes = (
(408,437,l),
(408,470,l),
(40,470,l),
(40,437,l)
);
},
{
closed = 1;
nodes = (
(658,0,l),
(658,713,l),
(451,697,l),
(451,684,l),
(495,667,l),
(495,0,l)
);
}
);
width = 708;
}
);
metricLeft = f;
unicode = 64258;
},
{
glyphname = "Be-cy";
kernRight = RHroundedUpper;
lastChange = "2026-06-04 05:38:47 +0000";
layers = (
{
layerId = m01;
shapes = (
{
closed = 1;
nodes = (
(379,0,ls),
(523,0,o),
(619,68,o),
(619,204,cs),
(619,348,o),
(523,420,o),
(379,420,cs),
(257,420,l),
(257,670,l),
(463,670,l),
(463,542,l),
(568,500,l),
(568,699,l),
(257,700,l),
(40,700,l),
(40,685,l),
(82,669,l),
(82,0,l)
);
},
{
closed = 1;
nodes = (
(257,390,l),
(302,389,ls),
(382,387,o),
(451,328,o),
(451,204,cs),
(451,89,o),
(382,32,o),
(302,30,cs),
(257,29,l)
);
}
);
width = 659;
}
);
unicode = 1041;
},
{
glyphname = "Ge-cy";
kernRight = RHTuppers;
lastChange = "2026-06-04 05:39:15 +0000";
layers = (
{
anchors = (
{
name = bottom;
pos = (265,0);
},
{
name = bottomright;
pos = (531,0);
},
{
name = top;
pos = (265,700);
}
);
layerId = m01;
shapes = (
{
closed = 1;
nodes = (
(258,0,l),
(258,670,l),
(406,670,l),
(406,542,l),
(511,500,l),
(511,699,l),
(258,700,l),
(40,700,l),
(40,685,l),
(82,669,l),
(82,0,l)
);
}
);
width = 551;
}
);
unicode = 1043;
},
{
glyphname = "Geupturn-cy";
kernRight = RHTuppers;
lastChange = "2026-06-04 05:39:31 +0000";
layers = (
{
layerId = m01;
shapes = (
{
closed = 1;
nodes = (
(257,0,l),
(257,670,l),
(510,671,l),
(510,830,l),
(405,788,l),
(405,700,l),
(40,700,l),
(40,685,l),
(81,669,l),
(81,0,l)
);
}
);
width = 540;
}
);
unicode = 1168;
},
{
glyphname = "De-cy";
lastChange = "2026-06-04 21:05:10 +0000";
layers = (
{
anchors = (
{
name = bottom;
pos = (377,0);
},
{
name = top;
pos = (377,700);
}
);
layerId = m01;
shapes = (
{
closed = 1;
nodes = (
(608,0,l),
(608,-108,l),
(713,-150,l),
(713,29,l),
(586,29,l),
(586,670,l),
(700,670,l),
(700,700,l),
(84,700,l),
(84,670,l),
(410,670,l),
(410,29,l),
(40,29,l),
(40,-150,l),
(145,-108,l),
(145,0,l)
);
},
{
attr = {
strokeWidth = 30;
};
closed = 0;
nodes = (
(251,690,l),
(221,204,ls),
(217,134,o),
(160,39,o),
(142,8,c)
);
}
);
width = 753;
}
);
unicode = 1044;
},
{
glyphname = "Zhe-cy";
kernLeft = LHAuppers;
kernRight = Auppers;
lastChange = "2026-06-08 00:33:59 +0000";
layers = (
{
anchors = (
{
name = bottom;
pos = (523,0);
},
{
name = bottomright;
pos = (1026,0);
},
{
name = top;
pos = (523,700);
}
);
layerId = m01;
shapes = (
{
closed = 1;
nodes = (
(1006,0,l),
(759,489,l),
(660,351,l),
(824,0,l)
);
},
{
closed = 1;
nodes = (
(222,0,l),
(386,351,l),
(287,489,l),
(40,0,l)
);
},
{
closed = 1;
nodes = (
(465,291,l),
(251,573,ls),
(241,586,o),
(243,593,o),
(256,597,cs),
(342,621,l),
(327,700,l),
(109,700,l),
(114,699,o),
(452,253,o),
(452,253,c)
);
},
{
closed = 1;
nodes = (
(616,0,l),
(616,700,l),
(432,700,l),
(432,0,l)
);
},
{
closed = 1;
nodes = (
(596,253,o),
(934,699,o),
(939,700,c),
(721,700,l),
(706,621,l),
(792,597,ls),
(805,593,o),
(807,586,o),
(797,573,cs),
(583,291,l),
(596,253,l)
);
}
);
width = 1046;
}
);
unicode = 1046;
},
{
glyphname = "Ze-cy";
kernLeft = roundedUppers;
kernRight = RHroundedUpper;
lastChange = "2026-06-04 00:55:16 +0000";
layers = (
{
anchors = (
{
name = bottom;
pos = (331,0);
},
{
name = top;
pos = (331,700);
}
);
layerId = m01;
shapes = (
{
closed = 1;
nodes = (
(528,-9,o),
(622,59,o),
(622,196,c),
(622,286,o),
(564,345,o),
(446,371,c),
(544,393,o),
(594,447,o),
(594,531,c),
(594,648,o),
(494,707,o),
(314,707,c),
(170,707,o),
(60,638,o),
(60,500,c),
(209,475,l),
(205,610,o),
(252,677,o),
(312,678,c),
(383,678,o),
(408,630,o),
(408,533,c),
(408,432,o),
(372,381,o),
(279,381,c),
(238,381,l),
(238,351,l),
(279,351,l),
(390,351,o),
(428,296,o),
(428,179,c),
(428,76,o),
(399,25,o),
(320,25,c),
(252,27,o),
(203,98,o),
(213,238,c),
(40,216,l),
(40,66,o),
(134,-9,o),
(321,-9,c)
);
}
);
width = 662;
}
);
unicode = 1047;
},
{
glyphname = "Ii-cy";
lastChange = "2026-06-04 21:37:48 +0000";
layers = (
{
anchors = (
{
name = bottomright;
pos = (712,0);
},
{
name = top;
pos = (366,700);
}
);
layerId = m01;
shapes = (
{
closed = 1;
nodes = (
(239,0,l),
(520,700,l),
(488,700,l),
(207,0,l)
);
},
{
closed = 1;
nodes = (
(235,0,l),
(256,69,l),
(82,69,l),
(82,31,l),
(40,15,l),
(40,0,l)
);
},
{
closed = 1;
nodes = (
(239,0,l),
(257,46,l),
(257,700,l),
(81,700,l),
(81,0,l)
);
},
{
closed = 1;
nodes = (
(650,0,l),
(650,700,l),
(490,700,l),
(474,665,l),
(474,0,l)
);
},
{
closed = 1;
nodes = (
(650,631,l),
(650,669,l),
(692,685,l),
(692,700,l),
(497,700,l),
(476,631,l)
);
}
);
width = 732;
}
);
unicode = 1048;
},
{
glyphname = "Iishort-cy";
lastChange = "2026-06-04 21:38:06 +0000";
layers = (
{
layerId = m01;
shapes = (
{
closed = 1;
nodes = (
(239,0,l),
(520,700,l),
(488,700,l),
(207,0,l)
);
},
{
closed = 1;
nodes = (
(235,0,l),
(246,69,l),
(82,69,l),
(82,31,l),
(40,15,l),
(40,0,l)
);
},
{
closed = 1;
nodes = (
(239,0,l),
(257,46,l),
(257,700,l),
(81,700,l),
(81,0,l)
);
},
{
closed = 1;
nodes = (
(692,0,l),
(692,15,l),
(650,31,l),
(650,69,l),
(486,69,l),
(497,0,l)
);
},
{
closed = 1;
nodes = (
(246,631,l),
(235,700,l),
(40,700,l),
(40,685,l),
(82,669,l),
(82,631,l)
);
},
{
closed = 1;
nodes = (
(650,0,l),
(650,700,l),
(490,700,l),
(474,665,l),
(474,0,l)
);
},
{
pos = (212,151);
ref = "brevecomb-cy";
},
{
closed = 1;
nodes = (
(650,631,l),
(650,669,l),
(692,685,l),
(692,700,l),
(497,700,l),
(476,631,l)
);
}
);
width = 732;
}
);
unicode = 1049;
},
{
glyphname = "Ka-cy";
lastChange = "2026-06-04 23:37:37 +0000";
layers = (
{
anchors = (
{
name = bottom;
pos = (374,0);
},
{
name = bottomright;
pos = (728,0);
},
{
name = top;
pos = (374,700);
}
);
layerId = m01;
shapes = (
{
closed = 1;
nodes = (
(264,0,l),
(264,700,l),
(40,700,l),
(40,685,l),
(84,668,l),
(84,0,l)
);
},
{
closed = 1;
nodes = (
(698,0,l),
(693,1,o),
(367,434,o),
(367,434,c),
(278,347,l),
(455,117,ls),
(465,104,o),
(463,95,o),
(450,93,cs),
(364,79,l),
(379,0,l)
);
},
{
closed = 1;
nodes = (
(656,701,l),
(386,701,l),
(372,624,l),
(500,602,ls),
(506,601,o),
(508,591,o),
(502,585,cs),
(257,335,l),
(257,288,l)
);
}
);
width = 738;
}
);
unicode = 1050;
},
{
glyphname = "El-cy";
kernLeft = LHAuppers;
lastChange = "2026-06-04 23:38:20 +0000";
layers = (
{
anchors = (
{
name = bottom;
pos = (349,0);
}
);
layerId = m01;
shapes = (
{
closed = 1;
nodes = (
(189,0,l),
(239,670,l),
(430,670,l),
(430,0,l),
(648,0,l),
(648,15,l),
(606,31,l),
(606,700,l),
(213,700,l),
(171,137,ls),
(169,114,o),
(165,106,o),
(146,101,cs),
(51,78,l),
(40,0,l)
);
}
);
width = 688;
}
);
unicode = 1051;
},
{
glyphname = "Em-cy";
lastChange = "2026-06-03 23:46:39 +0000";
layers = (
{
anchors = (
{
name = bottom;
pos = (454,0);
},
{
name = top;
pos = (454,700);
}
);
layerId = m01;
shapes = (
{
closed = 1;
nodes = (
(598,557,l),
(598,0,l),
(775,0,l),
(773,700,l),
(610,700,l),
(466,272,l),
(242,700,l),
(50,700,l),
(50,685,l),
(92,669,l),
(92,0,l),
(251,0,l),
(240,68,l),
(145,91,ls),
(126,96,o),
(120,104,o),
(120,127,cs),
(120,561,l),
(121,559,l),
(405,-12,l)
);
}
);
width = 825;
}
);
unicode = 1052;
},
{
glyphname = "En-cy";
lastChange = "2026-06-03 23:46:39 +0000";
layers = (
{
anchors = (
{
name = bottomright;
pos = (665,0);
}
);
layerId = m01;
shapes = (
{
closed = 1;
nodes = (
(635,0,l),
(635,700,l),
(460,700,l),
(460,0,l)
);
},
{
closed = 1;
nodes = (
(225,0,l),
(225,700,l),
(50,700,l),
(50,0,l)
);
},
{
closed = 1;
nodes = (
(486,299,l),
(392,416,l),
(194,416,l),
(288,299,l)
);
}
);
width = 685;
}
);
unicode = 1053;
},
{
glyphname = "Pe-cy";
lastChange = "2026-06-04 05:50:53 +0000";
layers = (
{
anchors = (
{
name = bottomright;
pos = (749,0);
}
);
layerId = m01;
shapes = (
{
closed = 1;
nodes = (
(729,0,l),
(729,15,l),
(687,31,l),
(687,700,l),
(82,700,l),
(82,31,l),
(40,15,l),
(40,0,l),
(258,0,l),
(258,670,l),
(511,670,l),
(511,0,l)
);
}
);
width = 769;
}
);
unicode = 1055;
},
{
glyphname = "U-cy";
kernLeft = LHVWuppers;
lastChange = "2026-06-04 05:17:37 +0000";
layers = (
{
anchors = (
{
name = top;
pos = (321,700);
}
);
layerId = m01;
shapes = (
{
closed = 1;
nodes = (
(304,13,o),
(323,36,o),
(365,136,cs),
(602,700,l),
(442,700,l),
(427,633,l),
(503,620,ls),
(531,615,o),
(532,603,o),
(523,583,cs),
(415,327,l),
(228,700,l),
(40,700,l),
(279,229,l),
(373,229,l),
(334,136,ls),
(303,63,o),
(290,41,o),
(266,41,cs),
(241,41,o),
(231,79,o),
(228,153,c),
(125,144,l),
(113,28,l),
(128,23,o),
(198,-8,o),
(258,4,cs)
);
}
);
width = 642;
}
);
unicode = 1059;
},
{
glyphname = "Ef-cy";
kernLeft = roundedUppers;
kernRight = RHroundedUpper;
lastChange = "2026-06-04 21:48:16 +0000";
layers = (
{
layerId = m01;
shapes = (
{
closed = 1;
nodes = (
(544,0,l),
(544,15,l),
(512,31,l),
(512,104,l),
(713,111,o),
(812,192,o),
(812,351,cs),
(812,501,o),
(713,581,o),
(512,588,c),
(512,669,l),
(544,685,l),
(544,700,l),
(309,700,l),
(309,685,l),
(340,670,l),
(340,588,l),
(139,581,o),
(40,501,o),
(40,351,cs),
(40,192,o),
(139,111,o),
(340,104,c),
(340,31,l),
(309,15,l),
(309,0,l)
);
},
{
closed = 1;
nodes = (
(206,485,o),
(250,554,o),
(340,567,c),
(340,124,l),
(249,137,o),
(204,217,o),
(206,359,cs)
);
},
{
closed = 1;
nodes = (
(512,567,l),
(602,554,o),
(646,485,o),
(646,359,cs),
(648,217,o),
(603,137,o),
(512,124,c)
);
}
);
width = 852;
}
);
unicode = 1060;
},
{
glyphname = "Tse-cy";
lastChange = "2026-06-04 05:36:15 +0000";
layers = (
{
layerId = m01;
shapes = (
{
closed = 1;
nodes = (
(646,0,l),
(646,700,l),
(470,700,l),
(470,0,l)
);
},
{
closed = 1;
nodes = (
(575,0,l),
(575,30,l),
(137,30,l),
(137,0,l)
);
},
{
closed = 1;
nodes = (
(258,0,l),
(258,700,l),
(82,700,l),
(82,0,l)
);
},
{
closed = 1;
nodes = (
(256,631,l),
(256,700,l),
(40,700,l),
(40,685,l),
(82,669,l),
(82,631,l)
);
},
{
closed = 1;
nodes = (
(770,-118,l),
(760,-50,l),
(668,-29,ls),
(652,-26,o),
(647,-18,o),
(647,2,cs),
(646,494,l),
(568,494,l),
(569,-118,l)
);
},
{
closed = 1;
nodes = (
(646,631,l),
(646,669,l),
(689,685,l),
(689,700,l),
(472,700,l),
(472,631,l)
);
}
);
width = 800;
}
);
unicode = 1062;
},
{
glyphname = "Che-cy";
lastChange = "2026-06-04 05:21:10 +0000";
layers = (
{
anchors = (
{
name = bottomright;
pos = (593,0);
},
{
name = top;
pos = (307,700);
}
);
layerId = m01;
shapes = (
{
closed = 1;
nodes = (
(340,222,o),
(387,252,o),
(422,308,c),
(404,337,l),
(390,303,o),
(349,285,o),
(299,285,cs),
(252,285,o),
(196,323,o),
(196,399,cs),
(196,700,l),
(40,700,l),
(40,376,ls),
(40,266,o),
(129,222,o),
(239,222,cs)
);
},
{
closed = 1;
nodes = (
(563,0,l),
(563,700,l),
(400,700,l),
(400,0,l)
);
}
);
width = 613;
}
);
unicode = 1063;
},
{
glyphname = "Sha-cy";
lastChange = "2026-06-04 05:36:58 +0000";
layers = (
{
anchors = (
{
name = bottom;
pos = (450,0);
},
{
name = top;
pos = (450,700);
}
);
layerId = m01;
shapes = (
{
closed = 1;
nodes = (
(816,0,l),
(816,669,l),
(859,685,l),
(859,700,l),
(640,700,l),
(640,30,l),
(532,30,l),
(532,700,l),
(366,700,l),
(366,30,l),
(258,30,l),
(258,700,l),
(40,700,l),
(40,685,l),
(82,669,l),
(82,0,l)
);
}
);
width = 899;
}
);
unicode = 1064;
},
{
glyphname = "Shcha-cy";
lastChange = "2026-06-04 21:04:20 +0000";
layers = (
{
layerId = m01;
shapes = (
{
closed = 1;
nodes = (
(739,0,l),
(739,-118,l),
(940,-118,l),
(930,-50,l),
(838,-29,ls),
(822,-26,o),
(817,-18,o),
(817,2,cs),
(816,494,l),
(816,669,l),
(859,685,l),
(859,700,l),
(640,700,l),
(640,30,l),
(532,30,l),
(532,700,l),
(366,700,l),
(366,30,l),
(258,30,l),
(258,700,l),
(40,700,l),
(40,685,l),
(82,669,l),
(82,0,l)
);
}
);
width = 960;
}
);
unicode = 1065;
},
{
glyphname = "Softsign-cy";
lastChange = "2026-06-04 05:21:06 +0000";
layers = (
{
anchors = (
{
name = top;
pos = (330,700);
}
);
layerId = m01;
shapes = (
{
closed = 1;
nodes = (
(379,0,ls),
(523,0,o),
(619,68,o),
(619,184,cs),
(619,308,o),
(523,380,o),
(379,380,cs),
(207,380,l),
(207,351,l),
(302,349,ls),
(382,347,o),
(431,288,o),
(431,184,cs),
(431,89,o),
(382,32,o),
(302,30,cs),
(207,28,l),
(207,0,l)
);
},
{
closed = 1;
nodes = (
(256,0,l),
(256,69,l),
(92,69,l),
(92,28,l),
(50,12,l),
(50,0,l)
);
},
{
closed = 1;
nodes = (
(257,0,l),
(257,700,l),
(92,700,l),
(92,0,l)
);
}
);
width = 659;
}
);
unicode = 1068;
},
{
glyphname = "Yeru-cy";
lastChange = "2026-06-08 01:09:19 +0000";
layers = (
{
layerId = m01;
shapes = (
{
closed = 1;
nodes = (
(379,0,ls),
(523,0,o),
(619,68,o),
(619,184,cs),
(619,308,o),
(523,380,o),
(379,380,cs),
(207,380,l),
(207,351,l),
(302,349,ls),
(382,347,o),
(431,288,o),
(431,184,cs),
(431,89,o),
(382,32,o),
(302,30,cs),
(207,28,l),
(207,0,l)
);
},
{
closed = 1;
nodes = (
(256,0,l),
(256,69,l),
(92,69,l),
(92,28,l),
(50,12,l),
(50,0,l)
);
},
{
closed = 1;
nodes = (
(257,0,l),
(257,700,l),
(92,700,l),
(92,0,l)
);
},
{
alignment = -1;
pos = (585,0);
ref = l;
}
);
width = 882;
}
);
unicode = 1067;
},
{
glyphname = "Hardsign-cy";
lastChange = "2026-06-04 23:35:56 +0000";
layers = (
{
anchors = (
{
name = top;
pos = (373,700);
}
);
layerId = m01;
shapes = (
{
closed = 1;
nodes = (
(465,0,ls),
(609,0,o),
(705,68,o),
(705,184,cs),
(705,308,o),
(609,380,o),
(465,380,cs),
(293,380,l),
(293,351,l),
(388,349,ls),
(468,347,o),
(517,288,o),
(517,184,cs),
(517,89,o),
(468,32,o),
(388,30,cs),
(293,28,l),
(293,0,l)
);
},
{
closed = 1;
nodes = (
(342,0,l),
(342,69,l),
(178,69,l),
(178,28,l),
(136,12,l),
(136,0,l)
);
},
{
closed = 1;
nodes = (
(343,0,l),
(343,700,l),
(178,700,l),
(178,0,l)
);
},
{
closed = 1;
nodes = (
(30,700,l),
(30,580,l),
(105,622,l),
(105,670,l),
(323,670,l),
(323,700,l)
);
}
);
width = 745;
}
);
unicode = 1066;
},
{
glyphname = "E-cy";
kernLeft = roundedUppers;
kernRight = RHroundedUpper;
lastChange = "2026-06-04 00:55:16 +0000";
layers = (
{
anchors = (
{
name = top;
pos = (343,700);
}
);
layerId = m01;
shapes = (
{
closed = 1;
nodes = (
(457,-12,o),
(537,16,o),
(602,73,c),
(602,191,l),
(470,191,l),
(463,77,o),
(427,19,o),
(364,19,c),
(272,20,o),
(228,136,o),
(230,367,c),
(232,587,o),
(276,696,o),
(364,696,c),
(427,696,o),
(463,640,o),
(470,526,c),
(599,526,l),
(599,641,l),
(546,700,o),
(467,728,o),
(364,729,c),
(189,729,o),
(47,609,o),
(40,367,c),
(40,138,o),
(148,-5,o),
(364,-11,c)
);
},
{
closed = 1;
nodes = (
(449,250,l),
(449,471,l),
(434,471,l),
(433,409,o),
(393,377,o),
(218,376,c),
(218,354,l),
(394,353,o),
(435,316,o),
(435,250,c)
);
}
);
width = 642;
}
);
unicode = 1028;
},
{
glyphname = "I-cy";
lastChange = "2026-06-04 05:32:24 +0000";
layers = (
{
anchors = (
{
name = top;
pos = (138,700);
}
);
layerId = m01;
shapes = (
{
closed = 1;
nodes = (
(226,0,l),
(226,700,l),
(50,700,l),
(50,0,l)
);
}
);
width = 276;
}
);
unicode = 1030;
},
{
glyphname = "Yi-cy";
lastChange = "2026-06-04 05:32:48 +0000";
layers = (
{
layerId = m01;
shapes = (
{
closed = 1;
nodes = (
(273,0,l),
(273,700,l),
(97,700,l),
(97,0,l)
);
},
{
pos = (20,196);
ref = dieresiscomb;
}
);
width = 369;
}
);
unicode = 1031;
},
{
glyphname = "Yu-cy";
lastChange = "2026-06-04 05:50:23 +0000";
layers = (
{
anchors = (
{
name = top;
pos = (482,700);
}
);
layerId = m01;
shapes = (
{
closed = 1;
nodes = (
(838,-11,o),
(923,150,o),
(923,349,cs),
(923,548,o),
(838,710,o),
(621,710,cs),
(401,710,o),
(316,548,o),
(316,349,cs),
(316,150,o),
(401,-11,o),
(621,-11,cs)
);
},
{
closed = 1;
nodes = (
(226,0,l),
(226,700,l),
(50,700,l),
(50,0,l)
);
},
{
closed = 1;
nodes = (
(346,334,l),
(346,364,l),
(188,364,l),
(188,334,l)
);
},
{
closed = 1;
nodes = (
(533,19,o),
(490,164,o),
(490,346,cs),
(490,527,o),
(533,680,o),
(620,680,cs),
(706,680,o),
(749,527,o),
(749,346,cs),
(749,164,o),
(706,19,o),
(620,19,cs)
);
}
);
width = 963;
}
);
unicode = 1070;
},
{
glyphname = "Ya-cy";
lastChange = "2026-06-04 05:52:13 +0000";
layers = (
{
anchors = (
{
name = top;
pos = (325,700);
}
);
layerId = m01;
shapes = (
{
closed = 1;
nodes = (
(592,0,l),
(594,700,l),
(317,700,l),
(133,700,o),
(75,596,o),
(75,509,c),
(75,332,o),
(262,293,o),
(423,304,c),
(424,0,l)
);
},
{
closed = 1;
nodes = (
(328,0,l),
(343,79,l),
(250,103,ls),
(237,106,o),
(238,116,o),
(245,127,cs),
(364,308,l),
(281,358,l),
(281,358,o),
(45,1,o),
(40,0,c)
);
},
{
closed = 1;
nodes = (
(346,352,o),
(239,359,o),
(239,512,c),
(239,650,o),
(316,671,o),
(423,671,c),
(422,352,l)
);
}
);
width = 644;
}
);
unicode = 1071;
},
{
glyphname = "a-cy";
kernLeft = roundedLow;
kernRight = RHlowerangled;
lastChange = "2026-06-08 01:16:54 +0000";
layers = (
{
anchors = (
{
name = bottom;
pos = (279,0);
},
{
name = ogonek;
pos = (501,10);
},
{
name = top;
pos = (274,474);
}
);
layerId = m01;
shapes = (
{
closed = 1;
nodes = (
(230,-9,o),
(275,14,o),
(311,60,c),
(314,46,o),
(341,-7,o),
(408,-7,cs),
(478,-7,o),
(509,29,o),
(517,52,c),
(505,64,l),
(479,41,o),
(454,49,o),
(454,129,cs),
(454,282,ls),
(454,419,o),
(387,478,o),
(253,478,cs),
(181,478,o),
(135,460,o),
(70,426,c),
(119,315,l),
(127,315,l),
(160,388,o),
(175,457,o),
(241,457,cs),
(288,457,o),
(307,410,o),
(303,306,c),
(135,274,o),
(40,220,o),
(40,128,cs),
(40,31,o),
(105,-9,o),
(178,-9,cs)
);
},
{
closed = 1;
nodes = (
(202,53,o),
(171,80,o),
(171,151,cs),
(171,220,o),
(259,253,o),
(303,273,c),
(303,86,ls),
(303,76,o),
(275,53,o),
(247,53,cs)
);
}
);
width = 547;
}
);
unicode = 1072;
},
{
glyphname = "be-cy";
kernRight = RHroundedUpper;
lastChange = "2026-06-08 01:34:09 +0000";
layers = (
{
layerId = m01;
shapes = (
{
closed = 1;
nodes = (
(446,-9,o),
(560,71,o),
(560,233,c),
(560,371,o),
(475,461,o),
(307,462,c),
(202,462,o),
(128,411,o),
(87,311,c),
(93,469,o),
(162,568,o),
(296,568,c),
(412,568,l),
(462,568,o),
(514,584,o),
(516,670,c),
(519,734,l),
(495,734,l),
(495,706,o),
(493,691,o),
(431,690,c),
(339,690,l),
(143,690,o),
(40,543,o),
(40,302,c),
(40,109,o),
(148,-5,o),
(305,-9,c)
);
},
{
closed = 1;
nodes = (
(255,24,o),
(208,105,o),
(205,245,c),
(206,379,o),
(259,438,o),
(306,439,c),
(359,439,o),
(406,379,o),
(405,245,c),
(405,105,o),
(358,24,o),
(306,24,c)
);
}
);
width = 600;
}
);
unicode = 1073;
},
{
glyphname = "ve-cy";
kernLeft = LHlowerangled;
kernRight = RHroundedlow;
lastChange = "2026-06-08 01:17:21 +0000";
layers = (
{
anchors = (
{
name = top;
pos = (287,470);
}
);
layerId = m01;
shapes = (
{
closed = 1;
nodes = (
(344,0,ls),
(453,0,o),
(533,41,o),
(533,125,cs),
(533,218,o),
(444,254,o),
(364,255,cs),
(223,255,l),
(223,232,l),
(293,231,ls),
(358,230,o),
(398,195,o),
(398,125,cs),
(398,64,o),
(351,23,o),
(296,21,cs),
(242,21,l),
(242,0,l)
);
},
{
closed = 1;
nodes = (
(247,0,l),
(247,470,l),
(82,470,l),
(82,0,l)
);
},
{
closed = 1;
nodes = (
(246,401,l),
(246,470,l),
(40,470,l),
(40,455,l),
(82,439,l),
(82,401,l)
);
},
{
closed = 1;
nodes = (
(345,239,ls),
(434,243,o),
(508,280,o),
(508,361,cs),
(508,434,o),
(423,470,o),
(323,470,cs),
(223,470,l),
(223,449,l),
(291,449,ls),
(337,448,o),
(379,408,o),
(379,361,cs),
(379,295,o),
(337,258,o),
(291,257,cs),
(223,255,l),
(223,235,l)
);
}
);
width = 573;
}
);
unicode = 1074;
},
{
glyphname = "ge-cy";
kernLeft = LHlowerangled;
lastChange = "2026-06-04 21:46:23 +0000";
layers = (
{
anchors = (
{
name = bottom;
pos = (251,0);
},
{
name = bottomright;
pos = (491,0);
},
{
name = top;
pos = (251,470);
}
);
layerId = m01;
shapes = (
{
closed = 1;
nodes = (
(248,0,l),
(248,470,l),
(82,470,l),
(82,0,l)
);
},
{
closed = 1;
nodes = (
(246,401,l),
(246,470,l),
(40,470,l),
(40,455,l),
(82,439,l),
(82,401,l)
);
},
{
closed = 1;
nodes = (
(471,469,l),
(158,470,l),
(158,440,l),
(366,440,l),
(366,402,l),
(471,360,l)
);
}
);
width = 511;
}
);
unicode = 1075;
},
{
glyphname = "geupturn-cy";
kernLeft = LHlowerangled;
lastChange = "2026-06-04 21:07:46 +0000";
layers = (
{
layerId = m01;
shapes = (
{
closed = 1;
nodes = (
(257,0,l),
(257,470,l),
(91,470,l),
(91,0,l)
);
},
{
closed = 1;
nodes = (
(256,401,l),
(256,470,l),
(50,470,l),
(50,455,l),
(92,439,l),
(92,401,l)
);
},
{
closed = 1;
nodes = (
(480,441,l),
(480,560,l),
(375,518,l),
(375,470,l),
(187,470,l),
(187,440,l)
);
}
);
width = 520;
}
);
unicode = 1169;
},
{
glyphname = "de-cy";
lastChange = "2026-06-04 21:35:24 +0000";
layers = (
{
anchors = (
{
name = bottom;
pos = (352,0);
},
{
name = top;
pos = (352,470);
}
);
layerId = m01;
shapes = (
{
closed = 1;
nodes = (
(135,-88,l),
(135,0,l),
(568,0,l),
(568,-88,l),
(663,-130,l),
(663,29,l),
(40,29,l),
(40,-130,l)
);
},
{
attr = {
strokeWidth = 30;
};
closed = 0;
nodes = (
(241,460,l),
(213,219,ls),
(199,100,o),
(150,39,o),
(132,8,c)
);
},
{
closed = 1;
nodes = (
(546,0,l),
(546,470,l),
(380,470,l),
(380,0,l)
);
},
{
closed = 1;
nodes = (
(660,440,l),
(660,470,l),
(74,470,l),
(74,440,l)
);
}
);
width = 703;
}
);
unicode = 1076;
},
{
glyphname = "zhe-cy";
kernLeft = LHlowerangled;
lastChange = "2026-06-08 00:55:52 +0000";
layers = (
{
anchors = (
{
name = bottom;
pos = (418,0);
},
{
name = bottomright;
pos = (816,0);
},
{
name = top;
pos = (418,470);
}
);
layerId = m01;
shapes = (
{
closed = 1;
nodes = (
(452,141,o),
(687,387,o),
(770,471,c),
(585,471,l),
(575,419,l),
(638,402,ls),
(651,398,o),
(655,391,o),
(643,378,cs),
(449,182,l),
(452,141,l)
);
},
{
closed = 1;
nodes = (
(192,0,l),
(340,220,l),
(257,305,l),
(40,0,l)
);
},
{
closed = 1;
nodes = (
(387,182,l),
(193,378,ls),
(181,391,o),
(185,398,o),
(198,402,cs),
(261,419,l),
(251,471,l),
(66,471,l),
(149,387,o),
(384,141,o),
(384,141,c)
);
},
{
closed = 1;
nodes = (
(497,0,l),
(497,471,l),
(339,471,l),
(339,0,l)
);
},
{
closed = 1;
nodes = (
(796,0,l),
(579,303,l),
(496,218,l),
(644,0,l)
);
}
);
width = 836;
}
);
unicode = 1078;
},
{
glyphname = "ze-cy";
kernLeft = roundedLow;
kernRight = RHroundedlow;
lastChange = "2026-06-04 01:39:08 +0000";
layers = (
{
anchors = (
{
name = bottom;
pos = (251,0);
},
{
name = top;
pos = (251,477);
}
);
layerId = m01;
shapes = (
{
closed = 1;
nodes = (
(377,-9,o),
(461,32,o),
(461,129,c),
(461,202,o),
(410,231,o),
(327,249,c),
(396,265,o),
(441,286,o),
(441,355,c),
(441,448,o),
(350,479,o),
(233,479,c),
(152,479,o),
(54,431,o),
(54,333,c),
(169,316,l),
(166,411,o),
(190,458,o),
(232,459,c),
(282,459,o),
(300,425,o),
(300,357,c),
(300,288,o),
(274,258,o),
(209,258,c),
(180,258,l),
(180,233,l),
(209,233,l),
(287,233,o),
(314,196,o),
(314,117,c),
(314,54,o),
(293,15,o),
(238,15,c),
(190,16,o),
(165,67,o),
(172,155,c),
(40,140,l),
(40,44,o),
(113,-9,o),
(238,-9,c)
);
}
);
width = 501;
}
);
unicode = 1079;
},
{
glyphname = "ii-cy";
lastChange = "2026-06-04 21:46:09 +0000";
layers = (
{
anchors = (
{
name = bottomright;
pos = (652,0);
},
{
name = top;
pos = (331,470);
}
);
layerId = m01;
shapes = (
{
closed = 1;
nodes = (
(229,0,l),
(460,470,l),
(428,470,l),
(197,0,l)
);
},
{
closed = 1;
nodes = (
(225,0,l),
(246,69,l),
(82,69,l),
(82,31,l),
(40,15,l),
(40,0,l)
);
},
{
closed = 1;
nodes = (
(229,0,l),
(247,46,l),
(247,471,l),
(81,471,l),
(81,0,l)
);
},
{
closed = 1;
nodes = (
(580,0,l),
(580,470,l),
(430,470,l),
(414,435,l),
(414,0,l)
);
},
{
closed = 1;
nodes = (
(580,401,l),
(580,439,l),
(622,455,l),
(622,470,l),
(437,470,l),
(416,401,l)
);
}
);
width = 662;
}
);
unicode = 1080;
},
{
glyphname = "iishort-cy";
lastChange = "2026-06-03 23:46:39 +0000";
layers = (
{
layerId = m01;
shapes = (
{
closed = 1;
nodes = (
(239,0,l),
(470,470,l),
(438,470,l),
(207,0,l)
);
},
{
closed = 1;
nodes = (
(235,0,l),
(256,69,l),
(92,69,l),
(92,31,l),
(50,15,l),
(50,0,l)
);
},
{
closed = 1;
nodes = (
(239,0,l),
(257,46,l),
(257,470,l),
(91,470,l),
(91,0,l)
);
},
{
closed = 1;
nodes = (
(632,0,l),
(632,15,l),
(590,31,l),
(590,69,l),
(436,69,l),
(447,0,l)
);
},
{
closed = 1;
nodes = (
(246,401,l),
(235,470,l),
(50,470,l),
(50,455,l),
(92,439,l),
(92,401,l)
);
},
{
closed = 1;
nodes = (
(590,0,l),
(590,470,l),
(440,470,l),
(424,435,l),
(424,0,l)
);
},
{
pos = (190,-38);
ref = "brevecomb-cy";
},
{
closed = 1;
nodes = (
(590,401,l),
(590,439,l),
(632,455,l),
(632,470,l),
(447,470,l),
(426,401,l)
);
}
);
width = 682;
}
);
unicode = 1081;
},
{
glyphname = "ka-cy";
lastChange = "2026-06-04 23:45:19 +0000";
layers = (
{
anchors = (
{
name = bottom;
pos = (309,0);
},
{
name = bottomright;
pos = (608,0);
},
{
name = top;
pos = (309,470);
}
);
layerId = m01;
shapes = (
{
closed = 1;
nodes = (
(242,0,l),
(242,470,l),
(40,470,l),
(40,455,l),
(84,438,l),
(84,0,l)
);
},
{
closed = 1;
nodes = (
(578,-1,l),
(573,0,o),
(343,316,o),
(343,316,cs),
(290,265,l),
(399,118,ls),
(409,105,o),
(407,97,o),
(394,94,cs),
(325,78,l),
(340,-1,l)
);
},
{
closed = 1;
nodes = (
(302,470,l),
(290,404,l),
(382,382,ls),
(388,381,o),
(390,371,o),
(384,365,cs),
(145,135,l),
(145,88,l),
(533,470,l)
);
}
);
width = 618;
}
);
unicode = 1082;
},
{
glyphname = "el-cy";
kernLeft = LHlowerangled;
lastChange = "2026-06-04 23:38:51 +0000";
layers = (
{
anchors = (
{
name = bottom;
pos = (284,0);
}
);
layerId = m01;
shapes = (
{
closed = 1;
nodes = (
(170,0,l),
(200,452,l),
(173,470,l),
(149,114,ls),
(147,91,o),
(143,83,o),
(124,78,cs),
(39,55,l),
(30,0,l)
);
},
{
closed = 1;
nodes = (
(548,0,l),
(548,15,l),
(506,31,l),
(506,69,l),
(362,69,l),
(373,0,l)
);
},
{
closed = 1;
nodes = (
(506,0,l),
(506,470,l),
(366,470,l),
(350,455,l),
(350,0,l)
);
},
{
closed = 1;
nodes = (
(432,440,l),
(432,470,l),
(173,470,l),
(172,440,l)
);
}
);
width = 588;
}
);
unicode = 1083;
},
{
glyphname = "em-cy";
kernLeft = LHlowerangled;
lastChange = "2026-06-04 02:00:05 +0000";
layers = (
{
layerId = m01;
shapes = (
{
closed = 1;
nodes = (
(488,327,l),
(488,0,l),
(645,0,l),
(643,470,l),
(513,470,l),
(391,152,l),
(212,470,l),
(40,470,l),
(40,455,l),
(82,439,l),
(82,0,l),
(231,0,l),
(220,58,l),
(135,81,ls),
(116,86,o),
(110,94,o),
(110,117,cs),
(111,388,l),
(351,-16,l)
);
}
);
width = 695;
}
);
unicode = 1084;
},
{
glyphname = "en-cy";
lastChange = "2026-06-04 21:11:58 +0000";
layers = (
{
anchors = (
{
name = bottomright;
pos = (575,0);
}
);
layerId = m01;
shapes = (
{
closed = 1;
nodes = (
(525,0,l),
(525,470,l),
(370,470,l),
(370,0,l)
);
},
{
closed = 1;
nodes = (
(205,0,l),
(205,470,l),
(50,470,l),
(50,0,l)
);
},
{
closed = 1;
nodes = (
(401,194,l),
(336,271,l),
(177,271,l),
(242,194,l)
);
}
);
width = 575;
}
);
unicode = 1085;
},
{
glyphname = "pe-cy";
kernLeft = LHlowerangled;
lastChange = "2026-06-08 00:56:28 +0000";
layers = (
{
anchors = (
{
name = bottomright;
pos = (639,0);
}
);
layerId = m01;
shapes = (
{
closed = 1;
nodes = (
(619,0,l),
(619,15,l),
(577,31,l),
(577,470,l),
(82,470,l),
(82,31,l),
(40,15,l),
(40,0,l),
(248,0,l),
(248,440,l),
(411,440,l),
(411,0,l)
);
}
);
width = 659;
}
);
unicode = 1087;
},
{
glyphname = "es-cy";
kernLeft = roundedLow;
kernRight = RHroundedlow;
lastChange = "2026-06-04 05:47:27 +0000";
layers = (
{
anchors = (
{
name = bottomright;
pos = (478,0);
}
);
layerId = m01;
shapes = (
{
closed = 1;
nodes = (
(376,-9,o),
(429,31,o),
(458,135,c),
(439,142,l),
(412,56,o),
(364,23,o),
(308,24,cs),
(236,24,o),
(196,95,o),
(196,240,cs),
(196,385,o),
(226,457,o),
(278,457,cs),
(328,457,o),
(368,398,o),
(396,278,c),
(407,278,l),
(457,415,l),
(408,457,o),
(346,479,o),
(273,479,cs),
(140,479,o),
(40,400,o),
(40,240,cs),
(40,73,o),
(140,-10,o),
(275,-10,cs)
);
}
);
width = 498;
}
);
unicode = 1089;
},
{
glyphname = "te-cy";
lastChange = "2026-06-04 21:09:23 +0000";
layers = (
{
anchors = (
{
name = bottom;
pos = (289,0);
},
{
name = bottomright;
pos = (567,0);
},
{
name = top;
pos = (289,470);
}
);
layerId = m01;
shapes = (
{
closed = 1;
nodes = (
(367,0,l),
(366,442,l),
(430,442,ls),
(448,442,o),
(455,437,o),
(459,422,cs),
(485,335,l),
(537,327,l),
(537,470,l),
(40,470,l),
(40,327,l),
(92,335,l),
(118,422,ls),
(122,437,o),
(129,442,o),
(147,442,cs),
(211,442,l),
(212,0,l)
);
}
);
width = 577;
}
);
unicode = 1090;
},
{
glyphname = "ef-cy";
lastChange = "2026-06-03 23:46:39 +0000";
layers = (
{
layerId = m01;
shapes = (
{
closed = 1;
nodes = (
(643,28,o),
(743,103,o),
(743,256,c),
(743,401,o),
(643,475,o),
(441,475,c),
(441,457,l),
(540,456,o),
(590,391,o),
(590,264,c),
(592,122,o),
(542,45,o),
(441,45,c),
(441,28,l)
);
},
{
closed = 1;
nodes = (
(462,-119,l),
(462,-70,l),
(308,-70,l),
(308,-88,l),
(276,-104,l),
(276,-119,l)
);
},
{
closed = 1;
nodes = (
(501,-119,l),
(501,-104,l),
(469,-88,l),
(469,-70,l),
(315,-70,l),
(315,-119,l)
);
},
{
closed = 1;
nodes = (
(342,45,l),
(241,45,o),
(191,122,o),
(193,264,c),
(193,391,o),
(243,456,o),
(342,457,c),
(342,475,l),
(141,475,o),
(40,401,o),
(40,256,c),
(40,103,o),
(141,28,o),
(342,28,c)
);
},
{
closed = 1;
nodes = (
(469,-119,l),
(469,621,l),
(307,621,l),
(307,-119,l)
);
},
{
closed = 1;
nodes = (
(462,572,l),
(462,621,l),
(276,621,l),
(276,606,l),
(308,590,l),
(308,572,l)
);
},
{
closed = 1;
nodes = (
(469,572,l),
(469,590,l),
(501,606,l),
(501,621,l),
(315,621,l),
(315,572,l)
);
}
);
width = 783;
}
);
unicode = 1092;
},
{
glyphname = "ha-cy";
kernLeft = LHlowerangled;
lastChange = "2026-06-04 05:12:32 +0000";
layers = (
{
anchors = (
{
name = bottom;
pos = (295,0);
},
{
name = bottomright;
pos = (569,0);
},
{
name = top;
pos = (295,470);
}
);
layerId = m01;
shapes = (
{
closed = 1;
nodes = (
(549,0,l),
(236,470,l),
(55,470,l),
(368,0,l)
);
},
{
closed = 1;
nodes = (
(215,0,l),
(232,65,l),
(161,82,ls),
(147,85,o),
(149,93,o),
(158,105,cs),
(238,210,l),
(217,232,l),
(40,0,l)
);
},
{
closed = 1;
nodes = (
(535,471,l),
(361,471,l),
(348,413,l),
(419,396,ls),
(433,393,o),
(432,385,o),
(422,373,cs),
(345,272,l),
(365,250,l)
);
}
);
width = 589;
}
);
unicode = 1093;
},
{
glyphname = "tse-cy";
kernLeft = LHlowerangled;
lastChange = "2026-06-04 21:09:11 +0000";
layers = (
{
layerId = m01;
shapes = (
{
closed = 1;
nodes = (
(700,-118,l),
(690,-50,l),
(598,-29,ls),
(582,-26,o),
(577,-18,o),
(577,2,cs),
(576,304,l),
(498,304,l),
(499,-118,l)
);
},
{
closed = 1;
nodes = (
(505,0,l),
(505,30,l),
(137,30,l),
(137,0,l)
);
},
{
closed = 1;
nodes = (
(248,0,l),
(248,470,l),
(82,470,l),
(82,0,l)
);
},
{
closed = 1;
nodes = (
(246,401,l),
(246,470,l),
(40,470,l),
(40,455,l),
(82,439,l),
(82,401,l)
);
},
{
closed = 1;
nodes = (
(576,0,l),
(576,470,l),
(410,470,l),
(410,0,l)
);
},
{
closed = 1;
nodes = (
(576,401,l),
(576,439,l),
(619,455,l),
(619,470,l),
(412,470,l),
(412,401,l)
);
}
);
width = 730;
}
);
unicode = 1094;
},
{
glyphname = "che-cy";
kernLeft = LHlowerangled;
lastChange = "2026-06-08 00:57:11 +0000";
layers = (
{
anchors = (
{
name = bottomright;
pos = (513,0);
},
{
name = top;
pos = (267,470);
}
);
layerId = m01;
shapes = (
{
closed = 1;
nodes = (
(320,142,o),
(367,172,o),
(402,228,c),
(384,257,l),
(370,223,o),
(329,205,o),
(279,205,cs),
(232,205,o),
(176,243,o),
(176,319,cs),
(176,474,l),
(40,474,l),
(40,296,ls),
(40,186,o),
(129,142,o),
(219,142,cs)
);
},
{
closed = 1;
nodes = (
(483,0,l),
(483,474,l),
(340,474,l),
(340,0,l)
);
}
);
width = 533;
}
);
unicode = 1095;
},
{
glyphname = "sha-cy";
lastChange = "2026-06-04 05:48:45 +0000";
layers = (
{
anchors = (
{
name = bottom;
pos = (425,0);
},
{
name = top;
pos = (425,470);
}
);
layerId = m01;
shapes = (
{
closed = 1;
nodes = (
(766,0,l),
(766,439,l),
(809,455,l),
(809,470,l),
(610,470,l),
(610,30,l),
(497,30,l),
(497,470,l),
(351,470,l),
(351,30,l),
(238,30,l),
(238,470,l),
(40,470,l),
(40,455,l),
(82,439,l),
(82,0,l)
);
}
);
width = 849;
}
);
unicode = 1096;
},
{
glyphname = "shcha-cy";
lastChange = "2026-06-04 05:49:27 +0000";
layers = (
{
layerId = m01;
shapes = (
{
closed = 1;
nodes = (
(890,-118,l),
(880,-50,l),
(788,-29,ls),
(772,-26,o),
(767,-18,o),
(767,2,cs),
(766,294,l),
(766,439,l),
(809,455,l),
(809,470,l),
(610,470,l),
(610,30,l),
(497,30,l),
(497,470,l),
(351,470,l),
(351,30,l),
(238,30,l),
(238,470,l),
(40,470,l),
(40,455,l),
(82,439,l),
(82,0,l),
(689,0,l),
(689,-118,l)
);
}
);
width = 910;
}
);
unicode = 1097;
},
{
glyphname = "softsign-cy";
kernRight = RHroundedlow;
lastChange = "2026-06-04 05:12:54 +0000";
layers = (
{
anchors = (
{
name = top;
pos = (276,470);
}
);
layerId = m01;
shapes = (
{
closed = 1;
nodes = (
(328,0,ls),
(455,0,o),
(512,60,o),
(512,144,cs),
(512,236,o),
(455,299,o),
(328,299,cs),
(177,299,l),
(177,273,l),
(261,271,ls),
(331,269,o),
(374,217,o),
(374,144,cs),
(374,78,o),
(331,28,o),
(261,26,cs),
(177,25,l),
(177,0,l)
);
},
{
closed = 1;
nodes = (
(226,0,l),
(226,89,l),
(82,69,l),
(82,28,l),
(40,12,l),
(40,0,l)
);
},
{
closed = 1;
nodes = (
(227,0,l),
(227,470,l),
(82,470,l),
(82,0,l)
);
}
);
width = 552;
}
);
unicode = 1100;
},
{
glyphname = "hardsign-cy";
kernRight = RHroundedlow;
lastChange = "2026-06-08 01:17:55 +0000";
layers = (
{
anchors = (
{
name = top;
pos = (288,470);
}
);
layerId = m01;
shapes = (
{
closed = 1;
nodes = (
(20,470,l),
(20,360,l),
(85,402,l),
(85,440,l),
(273,440,l),
(273,470,l)
);
},
{
closed = 1;
nodes = (
(382,0,ls),
(509,0,o),
(566,60,o),
(566,144,cs),
(566,236,o),
(509,299,o),
(382,299,cs),
(231,299,l),
(231,273,l),
(315,271,ls),
(385,269,o),
(428,217,o),
(428,144,cs),
(428,78,o),
(385,28,o),
(315,26,cs),
(231,25,l),
(231,0,l)
);
},
{
closed = 1;
nodes = (
(280,0,l),
(280,89,l),
(136,69,l),
(136,28,l),
(94,12,l),
(94,0,l)
);
},
{
closed = 1;
nodes = (
(281,0,l),
(281,470,l),
(136,470,l),
(136,0,l)
);
}
);
width = 606;
}
);
unicode = 1098;
},
{
glyphname = "e-cy";
kernLeft = roundedLow;
kernRight = RHroundedlow;
lastChange = "2026-06-04 01:39:08 +0000";
layers = (
{
anchors = (
{
name = top;
pos = (243,470);
}
);
layerId = m01;
shapes = (
{
closed = 1;
nodes = (
(344,-10,o),
(401,9,o),
(445,48,c),
(445,128,l),
(353,128,l),
(348,51,o),
(323,11,o),
(270,11,c),
(208,12,o),
(178,91,o),
(179,238,c),
(181,378,o),
(211,452,o),
(270,452,c),
(323,452,o),
(348,414,o),
(353,336,c),
(443,336,l),
(443,414,l),
(407,455,o),
(351,474,o),
(270,474,c),
(151,474,o),
(45,403,o),
(40,238,c),
(40,82,o),
(123,-5,o),
(270,-9,c)
);
},
{
closed = 1;
nodes = (
(328,162,l),
(328,307,l),
(308,307,l),
(307,265,o),
(290,248,o),
(171,247,c),
(171,228,l),
(291,227,o),
(309,207,o),
(309,162,c)
);
}
);
width = 485;
}
);
unicode = 1108;
},
{
glyphname = "yu-cy";
kernRight = RHroundedlow;
lastChange = "2026-06-08 01:18:02 +0000";
layers = (
{
anchors = (
{
name = top;
pos = (399,470);
}
);
layerId = m01;
shapes = (
{
closed = 1;
nodes = (
(660,-16,o),
(757,69,o),
(757,240,c),
(757,403,o),
(647,479,o),
(520,479,c),
(394,479,o),
(281,403,o),
(281,240,c),
(281,69,o),
(381,-16,o),
(520,-16,c)
);
},
{
closed = 1;
nodes = (
(213,0,l),
(213,473,l),
(50,473,l),
(50,0,l)
);
},
{
closed = 1;
nodes = (
(319,224,l),
(319,254,l),
(179,254,l),
(179,224,l)
);
},
{
closed = 1;
nodes = (
(471,8,o),
(447,83,o),
(447,240,c),
(447,387,o),
(471,456,o),
(520,456,c),
(567,456,o),
(591,387,o),
(591,240,c),
(591,83,o),
(567,8,o),
(520,8,c)
);
}
);
width = 797;
}
);
unicode = 1102;
},
{
glyphname = "ya-cy";
kernLeft = roundedLow;
lastChange = "2026-06-08 00:32:03 +0000";
layers = (
{
anchors = (
{
name = top;
pos = (270,470);
}
);
layerId = m01;
shapes = (
{
closed = 1;
nodes = (
(488,0,l),
(490,473,l),
(238,473,l),
(74,473,o),
(46,387,o),
(46,330,c),
(46,186,o),
(183,183,o),
(324,183,c),
(325,0,l)
);
},
{
closed = 1;
nodes = (
(253,0,l),
(264,59,l),
(195,76,ls),
(186,79,o),
(187,86,o),
(192,94,cs),
(269,210,l),
(195,235,l),
(195,235,o),
(43,1,o),
(40,0,c)
);
},
{
closed = 1;
nodes = (
(267,214,o),
(180,216,o),
(180,330,c),
(180,428,o),
(237,444,o),
(324,444,c),
(323,214,l)
);
}
);
width = 540;
}
);
unicode = 1103;
},
{
glyphname = Omega;
lastChange = "2026-06-03 23:46:39 +0000";
layers = (
{
anchors = (
{
name = bottom;
pos = (397,0);
},
{
name = topleft;
pos = (20,700);
}
);
layerId = m01;
shapes = (
{
closed = 1;
nodes = (
(334,0,l),
(317,135,l),
(222,183,o),
(178,277,o),
(183,419,cs),
(183,563,o),
(274,676,o),
(398,676,cs),
(521,676,o),
(610,563,o),
(610,419,cs),
(615,277,o),
(571,183,o),
(476,135,c),
(459,0,l),
(729,0,l),
(753,167,l),
(730,167,l),
(713,102,o),
(693,88,o),
(610,90,cs),
(511,90,l),
(513,114,l),
(652,170,o),
(721,271,o),
(722,419,cs),
(722,570,o),
(592,713,o),
(397,713,cs),
(203,713,o),
(71,570,o),
(71,419,cs),
(72,271,o),
(141,170,o),
(280,114,c),
(282,90,l),
(183,90,ls),
(100,88,o),
(80,102,o),
(63,167,c),
(40,167,l),
(64,0,l)
);
}
);
width = 793;
}
);
unicode = 937;
},
{
glyphname = pi;
lastChange = "2026-06-03 23:46:39 +0000";
layers = (
{
layerId = m01;
shapes = (
{
closed = 1;
nodes = (
(603,0,l),
(592,58,l),
(527,71,ls),
(507,75,o),
(502,84,o),
(502,107,cs),
(501,470,l),
(412,470,l),
(413,0,l)
);
},
{
closed = 1;
nodes = (
(218,0,l),
(218,470,l),
(129,470,l),
(130,0,l)
);
},
{
closed = 1;
nodes = (
(588,440,l),
(588,470,l),
(40,470,l),
(40,440,l)
);
}
);
width = 633;
}
);
unicode = 960;
},
{
glyphname = omega;
lastChange = "2026-06-03 23:46:39 +0000";
layers = (
{
anchors = (
{
name = bottom;
pos = (375,0);
},
{
name = top;
pos = (375,470);
}
);
layerId = m01;
shapes = (
{
closed = 1;
nodes = (
(292,-8,o),
(342,28,o),
(375,98,c),
(408,28,o),
(458,-8,o),
(515,-8,cs),
(628,-8,o),
(710,76,o),
(710,243,cs),
(710,398,o),
(598,507,o),
(476,507,c),
(475,483,l),
(565,458,o),
(609,378,o),
(609,243,cs),
(613,126,o),
(573,29,o),
(515,29,cs),
(458,29,o),
(420,73,o),
(403,161,c),
(418,194,o),
(429,229,o),
(429,290,cs),
(429,354,o),
(416,398,o),
(374,398,cs),
(332,398,o),
(321,354,o),
(321,290,cs),
(321,229,o),
(332,194,o),
(347,161,c),
(330,73,o),
(292,29,o),
(235,29,cs),
(177,29,o),
(137,126,o),
(141,243,cs),
(141,378,o),
(185,458,o),
(275,483,c),
(274,507,l),
(152,507,o),
(40,398,o),
(40,243,cs),
(40,76,o),
(122,-8,o),
(235,-8,cs)
);
}
);
width = 750;
}
);
unicode = 969;
},
{
glyphname = zero;
lastChange = "2026-06-08 00:29:36 +0000";
layers = (
{
layerId = m01;
shapes = (
{
closed = 1;
nodes = (
(488,-14,o),
(610,102,o),
(610,349,cs),
(610,591,o),
(480,707,o),
(323,707,cs),
(162,707,o),
(30,591,o),
(30,349,cs),
(30,102,o),
(154,-14,o),
(323,-14,cs)
);
},
{
closed = 1;
nodes = (
(257,16,o),
(224,126,o),
(224,349,cs),
(224,567,o),
(257,678,o),
(323,678,cs),
(388,678,o),
(421,567,o),
(421,349,cs),
(421,126,o),
(388,16,o),
(323,16,cs)
);
}
);
width = 640;
}
);
unicode = 48;
},
{
glyphname = one;
lastChange = "2026-06-08 00:29:13 +0000";
layers = (
{
layerId = m01;
shapes = (
{
closed = 1;
nodes = (
(323,0,l),
(323,702,l),
(295,702,l),
(223,658,o),
(134,614,o),
(30,570,c),
(30,546,l),
(132,569,l),
(132,0,l)
);
}
);
width = 373;
}
);
unicode = 49;
},
{
glyphname = two;
lastChange = "2026-06-03 23:46:39 +0000";
layers = (
{
layerId = m01;
shapes = (
{
closed = 1;
nodes = (
(582,240,l),
(558,240,l),
(553,194,o),
(526,144,o),
(426,146,c),
(120,146,l),
(209,277,o),
(570,260,o),
(574,501,c),
(574,632,o),
(481,705,o),
(296,705,c),
(125,705,o),
(40,627,o),
(40,472,c),
(218,449,l),
(209,598,o),
(234,673,o),
(295,674,c),
(351,674,o),
(379,609,o),
(379,518,c),
(379,305,o),
(40,286,o),
(40,1,c),
(565,1,l),
(565,0,l)
);
}
);
width = 622;
}
);
unicode = 50;
},
{
glyphname = three;
lastChange = "2026-06-03 23:46:39 +0000";
layers = (
{
layerId = m01;
shapes = (
{
closed = 1;
nodes = (
(508,-9,o),
(602,59,o),
(602,196,c),
(602,286,o),
(544,345,o),
(426,371,c),
(524,393,o),
(574,447,o),
(574,531,c),
(574,648,o),
(474,707,o),
(314,707,c),
(170,707,o),
(60,638,o),
(60,500,c),
(229,475,l),
(225,610,o),
(252,677,o),
(312,678,c),
(363,678,o),
(388,630,o),
(388,533,c),
(388,432,o),
(352,381,o),
(279,381,c),
(238,381,l),
(238,351,l),
(279,351,l),
(370,351,o),
(408,296,o),
(408,179,c),
(408,76,o),
(379,25,o),
(320,25,c),
(252,27,o),
(223,98,o),
(233,238,c),
(40,216,l),
(40,66,o),
(134,-9,o),
(321,-9,c)
);
}
);
width = 642;
}
);
unicode = 51;
},
{
glyphname = four;
lastChange = "2026-06-04 03:42:58 +0000";
layers = (
{
layerId = m01;
shapes = (
{
closed = 1;
nodes = (
(545,0,l),
(545,156,l),
(599,156,l),
(599,212,l),
(545,212,l),
(545,519,l),
(524,519,l),
(496,441,o),
(448,391,o),
(381,368,c),
(381,212,l),
(127,212,l),
(332,377,o),
(433,535,o),
(442,700,c),
(274,700,l),
(266,483,o),
(188,302,o),
(40,156,c),
(381,156,l),
(381,0,l)
);
}
);
width = 639;
}
);
unicode = 52;
},
{
glyphname = five;
lastChange = "2026-06-03 23:46:39 +0000";
layers = (
{
layerId = m01;
shapes = (
{
closed = 1;
nodes = (
(481,-9,o),
(605,69,o),
(605,232,cs),
(605,378,o),
(507,450,o),
(323,450,cs),
(201,450,o),
(153,408,o),
(125,388,c),
(137,558,l),
(553,568,l),
(561,711,l),
(113,701,l),
(88,349,l),
(120,345,l),
(130,357,o),
(192,412,o),
(282,408,cs),
(363,408,o),
(404,343,o),
(404,224,cs),
(404,77,o),
(374,22,o),
(315,22,cs),
(260,22,o),
(233,69,o),
(233,244,c),
(40,221,l),
(40,77,o),
(155,-9,o),
(316,-9,cs)
);
}
);
width = 645;
}
);
unicode = 53;
},
{
glyphname = six;
lastChange = "2026-06-03 23:46:39 +0000";
layers = (
{
layerId = m01;
shapes = (
{
closed = 1;
nodes = (
(486,-9,o),
(596,70,o),
(596,230,cs),
(596,372,o),
(513,443,o),
(371,443,cs),
(275,443,o),
(242,406,o),
(233,384,c),
(233,579,o),
(290,679,o),
(346,679,cs),
(396,679,o),
(420,604,o),
(412,518,c),
(561,484,l),
(561,641,l),
(512,672,o),
(453,708,o),
(346,708,cs),
(184,708,o),
(40,582,o),
(40,331,cs),
(40,104,o),
(154,-9,o),
(329,-9,cs)
);
},
{
closed = 1;
nodes = (
(277,21,o),
(244,86,o),
(239,210,cs),
(236,295,o),
(244,400,o),
(317,400,cs),
(372,400,o),
(412,322,o),
(412,213,cs),
(412,87,o),
(382,21,o),
(329,21,cs)
);
}
);
width = 636;
}
);
unicode = 54;
},
{
glyphname = seven;
lastChange = "2026-06-03 23:46:39 +0000";
layers = (
{
layerId = m01;
shapes = (
{
closed = 1;
nodes = (
(313,0,l),
(337,198,o),
(411,385,o),
(537,559,c),
(537,700,l),
(48,700,l),
(40,462,l),
(64,462,l),
(65,490,o),
(83,558,o),
(166,558,c),
(493,558,l),
(279,389,o),
(144,195,o),
(110,0,c)
);
}
);
width = 577;
}
);
unicode = 55;
},
{
glyphname = eight;
lastChange = "2026-06-03 23:46:39 +0000";
layers = (
{
layerId = m01;
shapes = (
{
closed = 1;
nodes = (
(491,-8,o),
(595,63,o),
(595,197,cs),
(595,332,o),
(499,364,o),
(435,400,c),
(441,402,o),
(567,425,o),
(567,545,cs),
(567,654,o),
(455,706,o),
(323,706,cs),
(183,706,o),
(66,645,o),
(66,518,cs),
(66,397,o),
(145,364,o),
(188,336,c),
(119,317,o),
(40,281,o),
(40,172,cs),
(40,59,o),
(147,-8,o),
(324,-8,cs)
);
},
{
closed = 1;
nodes = (
(178,23,o),
(147,212,o),
(238,309,c),
(367,235,ls),
(410,208,o),
(439,182,o),
(439,118,cs),
(439,56,o),
(385,23,o),
(323,23,cs)
);
},
{
closed = 1;
nodes = (
(311,466,ls),
(248,505,o),
(224,525,o),
(224,586,cs),
(224,631,o),
(257,674,o),
(322,674,cs),
(465,674,o),
(429,479,o),
(386,425,c)
);
}
);
width = 635;
}
);
unicode = 56;
},
{
glyphname = zero.dnom;
lastChange = "2026-06-03 23:46:39 +0000";
layers = (
{
layerId = m01;
shapes = (
{
closed = 1;
nodes = (
(334,-8,o),
(415,69,o),
(415,235,cs),
(415,397,o),
(328,475,o),
(223,475,cs),
(115,475,o),
(27,397,o),
(27,235,cs),
(27,69,o),
(110,-8,o),
(223,-8,cs)
);
},
{
closed = 1;
nodes = (
(179,12,o),
(157,85,o),
(157,235,cs),
(157,381,o),
(179,455,o),
(223,455,cs),
(267,455,o),
(289,381,o),
(289,235,cs),
(289,85,o),
(267,12,o),
(223,12,cs)
);
}
);
width = 442;
}
);
},
{
glyphname = one.dnom;
lastChange = "2026-06-03 23:46:39 +0000";
layers = (
{
layerId = m01;
shapes = (
{
closed = 1;
nodes = (
(223,0,l),
(223,470,l),
(204,470,l),
(156,441,o),
(96,411,o),
(27,382,c),
(27,366,l),
(95,381,l),
(95,0,l)
);
}
);
width = 263;
}
);
},
{
glyphname = two.dnom;
lastChange = "2026-06-03 23:46:39 +0000";
layers = (
{
layerId = m01;
shapes = (
{
closed = 1;
nodes = (
(390,161,l),
(374,161,l),
(371,130,o),
(352,96,o),
(285,98,c),
(80,98,l),
(140,186,o),
(382,174,o),
(385,336,c),
(385,423,o),
(322,472,o),
(198,472,c),
(84,472,o),
(27,420,o),
(27,316,c),
(146,301,l),
(140,401,o),
(157,451,o),
(198,452,c),
(235,452,o),
(254,408,o),
(254,347,c),
(254,204,o),
(27,192,o),
(27,1,c),
(379,1,l),
(379,0,l)
);
}
);
width = 417;
}
);
},
{
glyphname = three.dnom;
lastChange = "2026-06-03 23:46:39 +0000";
layers = (
{
layerId = m01;
shapes = (
{
closed = 1;
nodes = (
(340,-7,o),
(403,39,o),
(403,130,c),
(403,191,o),
(364,230,o),
(285,248,c),
(351,262,o),
(385,298,o),
(385,355,c),
(385,433,o),
(318,473,o),
(210,473,c),
(114,473,o),
(40,426,o),
(40,334,c),
(153,317,l),
(151,408,o),
(169,453,o),
(209,453,c),
(243,453,o),
(260,421,o),
(260,356,c),
(260,288,o),
(236,254,o),
(187,254,c),
(159,254,l),
(159,234,l),
(187,234,l),
(248,234,o),
(273,197,o),
(273,119,c),
(273,50,o),
(254,16,o),
(214,16,c),
(169,17,o),
(149,65,o),
(156,158,c),
(27,144,l),
(27,43,o),
(90,-7,o),
(215,-7,c)
);
}
);
width = 430;
}
);
},
{
glyphname = four.dnom;
lastChange = "2026-06-03 23:46:39 +0000";
layers = (
{
layerId = m01;
shapes = (
{
closed = 1;
nodes = (
(365,0,l),
(365,105,l),
(401,105,l),
(401,142,l),
(365,142,l),
(365,348,l),
(351,348,l),
(332,295,o),
(300,262,o),
(255,247,c),
(255,142,l),
(85,142,l),
(222,253,o),
(290,358,o),
(296,469,c),
(184,469,l),
(178,324,o),
(126,202,o),
(27,105,c),
(255,105,l),
(255,0,l)
);
}
);
width = 428;
}
);
},
{
glyphname = five.dnom;
lastChange = "2026-06-03 23:46:39 +0000";
layers = (
{
layerId = m01;
shapes = (
{
closed = 1;
nodes = (
(322,-6,o),
(405,46,o),
(405,155,cs),
(405,253,o),
(340,302,o),
(216,302,cs),
(135,302,o),
(103,273,o),
(84,260,c),
(92,374,l),
(371,381,l),
(376,476,l),
(76,470,l),
(59,234,l),
(80,231,l),
(87,239,o),
(129,276,o),
(189,273,cs),
(243,273,o),
(271,230,o),
(271,150,cs),
(271,52,o),
(251,15,o),
(211,15,cs),
(174,15,o),
(156,46,o),
(156,163,c),
(27,148,l),
(27,52,o),
(104,-6,o),
(212,-6,cs)
);
}
);
width = 432;
}
);
},
{
glyphname = six.dnom;
lastChange = "2026-06-03 23:46:39 +0000";
layers = (
{
layerId = m01;
shapes = (
{
closed = 1;
nodes = (
(326,-6,o),
(399,47,o),
(399,154,cs),
(399,249,o),
(344,297,o),
(249,297,cs),
(184,297,o),
(162,272,o),
(156,257,c),
(156,388,o),
(194,455,o),
(232,455,cs),
(265,455,o),
(281,405,o),
(276,347,c),
(376,324,l),
(376,429,l),
(343,450,o),
(304,474,o),
(232,474,cs),
(123,474,o),
(27,390,o),
(27,222,cs),
(27,70,o),
(103,-6,o),
(220,-6,cs)
);
},
{
closed = 1;
nodes = (
(186,14,o),
(163,58,o),
(160,141,cs),
(158,198,o),
(163,268,o),
(212,268,cs),
(249,268,o),
(276,216,o),
(276,143,cs),
(276,58,o),
(256,14,o),
(220,14,cs)
);
}
);
width = 426;
}
);
},
{
glyphname = seven.dnom;
lastChange = "2026-06-03 23:46:39 +0000";
layers = (
{
layerId = m01;
shapes = (
{
closed = 1;
nodes = (
(210,0,l),
(226,133,o),
(275,258,o),
(360,375,c),
(360,469,l),
(32,469,l),
(27,310,l),
(43,310,l),
(44,328,o),
(56,374,o),
(111,374,c),
(330,374,l),
(187,261,o),
(96,131,o),
(74,0,c)
);
}
);
width = 387;
}
);
},
{
glyphname = eight.dnom;
lastChange = "2026-06-03 23:46:39 +0000";
layers = (
{
layerId = m01;
shapes = (
{
closed = 1;
nodes = (
(329,-5,o),
(399,42,o),
(399,132,cs),
(399,222,o),
(334,244,o),
(291,268,c),
(295,269,o),
(380,285,o),
(380,365,cs),
(380,438,o),
(305,473,o),
(216,473,cs),
(123,473,o),
(44,432,o),
(44,347,cs),
(44,266,o),
(97,244,o),
(126,225,c),
(80,212,o),
(27,188,o),
(27,115,cs),
(27,40,o),
(98,-5,o),
(217,-5,cs)
);
},
{
closed = 1;
nodes = (
(119,15,o),
(98,142,o),
(159,207,c),
(246,157,ls),
(275,139,o),
(294,122,o),
(294,79,cs),
(294,38,o),
(258,15,o),
(216,15,cs)
);
},
{
closed = 1;
nodes = (
(208,312,ls),
(166,338,o),
(150,352,o),
(150,393,cs),
(150,423,o),
(172,452,o),
(216,452,cs),
(312,452,o),
(287,321,o),
(259,285,c)
);
}
);
width = 425;
}
);
},
{
glyphname = nine.dnom;
lastChange = "2026-06-03 23:46:39 +0000";
layers = (
{
layerId = m01;
shapes = (
{
closed = 1;
nodes = (
(303,-5,o),
(399,79,o),
(399,247,cs),
(399,399,o),
(323,475,o),
(206,475,cs),
(101,475,o),
(27,422,o),
(27,315,cs),
(27,220,o),
(82,172,o),
(178,172,cs),
(242,172,o),
(264,197,o),
(270,212,c),
(270,81,o),
(232,14,o),
(194,14,cs),
(161,14,o),
(145,64,o),
(150,122,c),
(50,145,l),
(50,40,l),
(83,19,o),
(123,-5,o),
(194,-5,cs)
);
},
{
closed = 1;
nodes = (
(177,201,o),
(150,253,o),
(150,326,cs),
(150,411,o),
(170,455,o),
(206,455,cs),
(241,455,o),
(263,411,o),
(266,328,cs),
(268,271,o),
(263,201,o),
(214,201,cs)
);
}
);
width = 426;
}
);
},
{
glyphname = zero.numr;
lastChange = "2026-06-03 23:46:39 +0000";
layers = (
{
layerId = m01;
shapes = (
{
closed = 1;
nodes = (
(334,242,o),
(415,319,o),
(415,485,cs),
(415,647,o),
(328,725,o),
(223,725,cs),
(115,725,o),
(27,647,o),
(27,485,cs),
(27,319,o),
(110,242,o),
(223,242,cs)
);
},
{
closed = 1;
nodes = (
(179,262,o),
(157,335,o),
(157,485,cs),
(157,631,o),
(179,705,o),
(223,705,cs),
(267,705,o),
(289,631,o),
(289,485,cs),
(289,335,o),
(267,262,o),
(223,262,cs)
);
}
);
width = 442;
}
);
metricLeft = zero.dnom;
metricRight = zero.dnom;
},
{
glyphname = one.numr;
lastChange = "2026-06-03 23:46:39 +0000";
layers = (
{
layerId = m01;
shapes = (
{
closed = 1;
nodes = (
(223,270,l),
(223,720,l),
(204,720,l),
(156,691,o),
(96,661,o),
(27,632,c),
(27,616,l),
(95,631,l),
(95,270,l)
);
}
);
width = 263;
}
);
metricLeft = one.dnom;
metricRight = one.dnom;
},
{
glyphname = two.numr;
lastChange = "2026-06-03 23:46:39 +0000";
layers = (
{
layerId = m01;
shapes = (
{
closed = 1;
nodes = (
(390,411,l),
(374,411,l),
(371,380,o),
(352,346,o),
(285,348,c),
(80,348,l),
(140,436,o),
(382,424,o),
(385,586,c),
(385,673,o),
(322,722,o),
(198,722,c),
(84,722,o),
(27,670,o),
(27,566,c),
(146,551,l),
(140,651,o),
(157,701,o),
(198,702,c),
(235,702,o),
(254,658,o),
(254,597,c),
(254,454,o),
(27,442,o),
(27,251,c),
(379,251,l),
(379,250,l)
);
}
);
width = 417;
}
);
metricLeft = two.dnom;
metricRight = two.dnom;
},
{
glyphname = three.numr;
lastChange = "2026-06-03 23:46:39 +0000";
layers = (
{
layerId = m01;
shapes = (
{
closed = 1;
nodes = (
(340,243,o),
(403,289,o),
(403,380,c),
(403,441,o),
(364,480,o),
(285,498,c),
(351,512,o),
(385,548,o),
(385,605,c),
(385,683,o),
(318,723,o),
(210,723,c),
(114,723,o),
(40,676,o),
(40,584,c),
(153,567,l),
(151,658,o),
(169,703,o),
(209,703,c),
(243,703,o),
(260,671,o),
(260,606,c),
(260,538,o),
(236,504,o),
(187,504,c),
(159,504,l),
(159,484,l),
(187,484,l),
(248,484,o),
(273,447,o),
(273,369,c),
(273,300,o),
(254,266,o),
(214,266,c),
(169,267,o),
(149,315,o),
(156,408,c),
(27,394,l),
(27,293,o),
(90,243,o),
(215,243,c)
);
}
);
width = 430;
}
);
metricLeft = three.dnom;
metricRight = three.dnom;
},
{
glyphname = four.numr;
lastChange = "2026-06-03 23:46:39 +0000";
layers = (
{
layerId = m01;
shapes = (
{
closed = 1;
nodes = (
(365,250,l),
(365,355,l),
(401,355,l),
(401,392,l),
(365,392,l),
(365,598,l),
(351,598,l),
(332,545,o),
(300,512,o),
(255,497,c),
(255,392,l),
(85,392,l),
(222,503,o),
(290,608,o),
(296,719,c),
(184,719,l),
(178,574,o),
(126,452,o),
(27,355,c),
(255,355,l),
(255,250,l)
);
}
);
width = 428;
}
);
metricLeft = four.dnom;
metricRight = four.dnom;
},
{
glyphname = five.numr;
lastChange = "2026-06-03 23:46:39 +0000";
layers = (
{
layerId = m01;
shapes = (
{
closed = 1;
nodes = (
(322,244,o),
(405,296,o),
(405,405,cs),
(405,503,o),
(340,552,o),
(216,552,cs),
(135,552,o),
(103,523,o),
(84,510,c),
(92,624,l),
(371,631,l),
(376,726,l),
(76,720,l),
(59,484,l),
(80,481,l),
(87,489,o),
(129,526,o),
(189,523,cs),
(243,523,o),
(271,480,o),
(271,400,cs),
(271,302,o),
(251,265,o),
(211,265,cs),
(174,265,o),
(156,296,o),
(156,413,c),
(27,398,l),
(27,302,o),
(104,244,o),
(212,244,cs)
);
}
);
width = 432;
}
);
metricLeft = five.dnom;
metricRight = five.dnom;
},
{
glyphname = six.numr;
lastChange = "2026-06-03 23:46:39 +0000";
layers = (
{
layerId = m01;
shapes = (
{
closed = 1;
nodes = (
(326,244,o),
(399,297,o),
(399,404,cs),
(399,499,o),
(344,547,o),
(249,547,cs),
(184,547,o),
(162,522,o),
(156,507,c),
(156,638,o),
(194,705,o),
(232,705,cs),
(265,705,o),
(281,655,o),
(276,597,c),
(376,574,l),
(376,679,l),
(343,700,o),
(304,724,o),
(232,724,cs),
(123,724,o),
(27,640,o),
(27,472,cs),
(27,320,o),
(103,244,o),
(220,244,cs)
);
},
{
closed = 1;
nodes = (
(186,264,o),
(163,308,o),
(160,391,cs),
(158,448,o),
(163,518,o),
(212,518,cs),
(249,518,o),
(276,466,o),
(276,393,cs),
(276,308,o),
(256,264,o),
(220,264,cs)
);
}
);
width = 426;
}
);
metricLeft = six.dnom;
metricRight = six.dnom;
},
{
glyphname = seven.numr;
lastChange = "2026-06-03 23:46:39 +0000";
layers = (
{
layerId = m01;
shapes = (
{
closed = 1;
nodes = (
(210,250,l),
(226,383,o),
(275,508,o),
(360,625,c),
(360,719,l),
(32,719,l),
(27,560,l),
(43,560,l),
(44,578,o),
(56,624,o),
(111,624,c),
(330,624,l),
(187,511,o),
(96,381,o),
(74,250,c)
);
}
);
width = 387;
}
);
metricLeft = seven.dnom;
metricRight = seven.dnom;
},
{
glyphname = eight.numr;
lastChange = "2026-06-03 23:46:39 +0000";
layers = (
{
layerId = m01;
shapes = (
{
closed = 1;
nodes = (
(329,245,o),
(399,292,o),
(399,382,cs),
(399,472,o),
(334,494,o),
(291,518,c),
(295,519,o),
(380,535,o),
(380,615,cs),
(380,688,o),
(305,723,o),
(216,723,cs),
(123,723,o),
(44,682,o),
(44,597,cs),
(44,516,o),
(97,494,o),
(126,475,c),
(80,462,o),
(27,438,o),
(27,365,cs),
(27,290,o),
(98,245,o),
(217,245,cs)
);
},
{
closed = 1;
nodes = (
(119,265,o),
(98,392,o),
(159,457,c),
(246,407,ls),
(275,389,o),
(294,372,o),
(294,329,cs),
(294,288,o),
(258,265,o),
(216,265,cs)
);
},
{
closed = 1;
nodes = (
(208,562,ls),
(166,588,o),
(150,602,o),
(150,643,cs),
(150,673,o),
(172,702,o),
(216,702,cs),
(312,702,o),
(287,571,o),
(259,535,c)
);
}
);
width = 425;
}
);
metricLeft = eight.dnom;
metricRight = eight.dnom;
},
{
glyphname = nine.numr;
lastChange = "2026-06-03 23:46:39 +0000";
layers = (
{
layerId = m01;
shapes = (
{
closed = 1;
nodes = (
(303,245,o),
(399,329,o),
(399,497,cs),
(399,649,o),
(323,725,o),
(206,725,cs),
(101,725,o),
(27,672,o),
(27,565,cs),
(27,470,o),
(82,422,o),
(178,422,cs),
(242,422,o),
(264,447,o),
(270,462,c),
(270,331,o),
(232,264,o),
(194,264,cs),
(161,264,o),
(145,314,o),
(150,372,c),
(50,395,l),
(50,290,l),
(83,269,o),
(123,245,o),
(194,245,cs)
);
},
{
closed = 1;
nodes = (
(177,451,o),
(150,503,o),
(150,576,cs),
(150,661,o),
(170,705,o),
(206,705,cs),
(241,705,o),
(263,661,o),
(266,578,cs),
(268,521,o),
(263,451,o),
(214,451,cs)
);
}
);
width = 426;
}
);
metricLeft = nine.dnom;
metricRight = nine.dnom;
},
{
glyphname = fraction;
lastChange = "2026-06-02 02:13:43 +0000";
layers = (
{
layerId = m01;
shapes = (
{
attr = {
identifier = ID0x31a4e2160;
lineCapEnd = "4";
lineCapStart = "4";
strokeWidth = 50;
};
closed = 0;
nodes = (
(297,736,l),
(-97,-27,l)
);
}
);
width = 200;
}
);
unicode = 8260;
},
{
glyphname = .notdef;
lastChange = "2026-06-03 23:46:39 +0000";
layers = (
{
associatedMasterId = m01;
layerId = "40E32FB9-B6BE-48EB-82C7-9119AE8E729C";
name = Bold;
shapes = (
{
closed = 1;
nodes = (
(349,-60,l),
(117,-60,l),
(117,596,l),
(349,596,l),
(349,664,l),
(50,664,l),
(50,-128,l),
(349,-128,l)
);
},
{
closed = 1;
nodes = (
(529,-128,l),
(529,664,l),
(320,664,l),
(320,596,l),
(462,596,l),
(462,-60,l),
(320,-60,l),
(320,-128,l)
);
}
);
width = 579;
},
{
associatedMasterId = m01;
layerId = "E1ADDF7C-A343-4E6D-B630-136BDFE64807";
shapes = (
{
closed = 1;
nodes = (
(366,-38,l),
(132,-38,l),
(132,574,l),
(366,574,l),
(366,664,l),
(50,664,l),
(50,-128,l),
(366,-128,l)
);
},
{
closed = 1;
nodes = (
(529,-128,l),
(529,664,l),
(320,664,l),
(320,574,l),
(447,574,l),
(447,-38,l),
(320,-38,l),
(320,-128,l)
);
}
);
width = 579;
},
{
layerId = m01;
shapes = (
{
closed = 1;
nodes = (
(349,-128,l),
(349,-84,l),
(98,-84,l),
(98,620,l),
(349,620,l),
(349,664,l),
(50,664,l),
(50,-128,l)
);
},
{
closed = 1;
nodes = (
(529,-128,l),
(529,664,l),
(320,664,l),
(320,620,l),
(481,620,l),
(481,-84,l),
(320,-84,l),
(320,-128,l)
);
}
);
width = 579;
}
);
},
{
glyphname = comma;
kernLeft = lowPunc;
lastChange = "2026-06-04 02:12:39 +0000";
layers = (
{
layerId = m01;
shapes = (
{
closed = 1;
nodes = (
(135,-81,o),
(185,15,o),
(183,82,cs),
(182,130,o),
(144,168,o),
(96,168,cs),
(49,168,o),
(10,130,o),
(10,82,cs),
(10,34,o),
(49,-4,o),
(96,-4,cs),
(101,-4,o),
(105,-4,o),
(110,-3,c),
(101,-41,o),
(76,-69,o),
(33,-92,c),
(50,-115,l)
);
}
);
width = 223;
}
);
unicode = 44;
},
{
glyphname = exclam;
lastChange = "2026-06-03 23:46:39 +0000";
layers = (
{
layerId = m01;
shapes = (
{
closed = 1;
nodes = (
(176,240,l),
(262,700,l),
(40,700,l),
(126,240,l)
);
},
{
pos = (250,0);
ref = "punc-tittle";
scale = (-1,1);
}
);
width = 302;
}
);
unicode = 33;
},
{
glyphname = question;
lastChange = "2026-06-04 03:37:55 +0000";
layers = (
{
layerId = m01;
shapes = (
{
closed = 1;
nodes = (
(274,242,l),
(274,274,l),
(274,337,o),
(507,360,o),
(512,538,c),
(512,637,o),
(433,707,o),
(274,707,c),
(118,707,o),
(40,641,o),
(40,506,c),
(185,475,l),
(182,607,o),
(208,675,o),
(265,675,c),
(306,675,o),
(327,631,o),
(327,544,c),
(327,411,o),
(235,402,o),
(235,298,c),
(235,229,l)
);
},
{
closed = 1;
nodes = (
(317,-6,o),
(361,37,o),
(361,92,cs),
(361,146,o),
(317,189,o),
(264,189,cs),
(209,189,o),
(165,146,o),
(165,92,cs),
(165,37,o),
(209,-6,o),
(264,-6,cs)
);
}
);
width = 552;
}
);
unicode = 63;
},
{
glyphname = asterisk;
lastChange = "2026-06-03 23:46:39 +0000";
layers = (
{
layerId = m01;
shapes = (
{
closed = 1;
nodes = (
(206,527,l),
(259,404,l),
(337,461,l),
(237,555,l),
(372,570,l),
(342,662,l),
(230,597,l),
(254,722,l),
(158,722,l),
(182,597,l),
(70,662,l),
(40,570,l),
(174,555,l),
(74,461,l),
(152,404,l)
);
}
);
width = 412;
}
);
unicode = 42;
},
{
glyphname = interrobang;
lastChange = "2026-06-03 23:46:39 +0000";
layers = (
{
layerId = m01;
shapes = (
{
closed = 1;
nodes = (
(325,354,l),
(334,436,o),
(557,502,o),
(562,680,c),
(562,779,o),
(453,859,o),
(304,859,c),
(158,859,o),
(40,783,o),
(40,648,c),
(185,617,l),
(182,749,o),
(218,827,o),
(295,827,c),
(356,827,o),
(407,773,o),
(407,686,c),
(407,553,o),
(265,449,o),
(265,345,c),
(265,276,l),
(316,263,l)
);
},
{
closed = 1;
nodes = (
(338,-16,o),
(382,27,o),
(382,82,cs),
(382,136,o),
(338,179,o),
(285,179,cs),
(230,179,o),
(186,136,o),
(186,82,cs),
(186,27,o),
(230,-16,o),
(285,-16,cs)
);
},
{
closed = 1;
nodes = (
(311,215,l),
(355,637,l),
(217,637,l),
(261,215,l)
);
}
);
width = 602;
}
);
unicode = 8253;
},
{
glyphname = numbersign;
lastChange = "2026-06-03 23:46:39 +0000";
layers = (
{
layerId = m01;
shapes = (
{
closed = 1;
nodes = (
(563,421,l),
(563,525,l),
(82,525,l),
(82,421,l)
);
},
{
closed = 1;
nodes = (
(521,168,l),
(521,272,l),
(40,272,l),
(40,168,l)
);
},
{
attr = {
lineCapEnd = "4";
lineCapStart = "4";
strokeWidth = 32;
};
closed = 0;
nodes = (
(285,700,l),
(139,0,l)
);
},
{
attr = {
lineCapEnd = "4";
lineCapStart = "4";
strokeWidth = 32;
};
closed = 0;
nodes = (
(465,700,l),
(319,0,l)
);
}
);
width = 603;
}
);
unicode = 35;
},
{
glyphname = slash;
lastChange = "2026-05-26 03:20:37 +0000";
layers = (
{
guides = (
{
angle = 66.8014;
pos = (230,343);
}
);
layerId = m01;
shapes = (
{
attr = {
lineCapEnd = 4;
lineCapStart = 4;
strokeWidth = 70;
};
closed = 0;
nodes = (
(264,700,l),
(76,0,l)
);
}
);
width = 340;
}
);
unicode = 47;
},
{
glyphname = parenright;
lastChange = "2026-06-03 23:46:39 +0000";
layers = (
{
layerId = m01;
shapes = (
{
closed = 1;
nodes = (
(411,85,o),
(411,545,o),
(60,748,c),
(40,722,l),
(218,572,o),
(218,58,o),
(40,-92,c),
(60,-118,l)
);
}
);
width = 363;
}
);
unicode = 41;
},
{
glyphname = braceleft;
lastChange = "2026-06-03 23:46:39 +0000";
layers = (
{
layerId = m01;
shapes = (
{
closed = 1;
nodes = (
(133,317,l),
(200,333,o),
(237,363,o),
(265,405,c),
(307,470,o),
(250,598,o),
(268,654,c),
(283,698,o),
(313,721,o),
(358,721,c),
(358,749,l),
(200,749,o),
(121,696,o),
(121,590,c),
(122,529,o),
(142,470,o),
(138,406,c),
(135,360,o),
(97,333,o),
(50,332,c),
(50,317,l),
(50,304,l)
);
},
{
closed = 1;
nodes = (
(358,-85,l),
(313,-85,o),
(283,-62,o),
(268,-18,c),
(250,38,o),
(307,166,o),
(265,231,c),
(237,273,o),
(200,303,o),
(133,319,c),
(50,332,l),
(50,319,l),
(50,304,l),
(97,303,o),
(135,276,o),
(138,230,c),
(142,166,o),
(122,107,o),
(121,46,c),
(121,-60,o),
(200,-113,o),
(358,-113,c)
);
}
);
width = 398;
}
);
unicode = 123;
},
{
glyphname = bracketright;
lastChange = "2026-06-03 23:46:39 +0000";
layers = (
{
layerId = m01;
shapes = (
{
closed = 1;
nodes = (
(284,-101,l),
(284,734,l),
(40,734,l),
(40,699,l),
(141,699,l),
(141,-66,l),
(40,-66,l),
(40,-101,l)
);
}
);
width = 334;
}
);
unicode = 93;
},
{
glyphname = quotedblright;
lastChange = "2026-06-04 03:38:29 +0000";
layers = (
{
layerId = m01;
shapes = (
{
closed = 1;
nodes = (
(316,430,l),
(426,698,l),
(246,698,l),
(225,615,l),
(332,576,o),
(337,580,o),
(328,557,cs),
(277,430,l)
);
},
{
closed = 1;
nodes = (
(101,430,l),
(211,698,l),
(31,698,l),
(10,615,l),
(117,576,o),
(122,580,o),
(113,557,cs),
(62,430,l)
);
}
);
width = 466;
}
);
unicode = 8221;
},
{
glyphname = quoteright;
lastChange = "2026-06-04 03:40:58 +0000";
layers = (
{
layerId = m01;
shapes = (
{
closed = 1;
nodes = (
(101,430,l),
(211,698,l),
(31,698,l),
(10,615,l),
(117,576,o),
(122,580,o),
(113,557,cs),
(62,430,l)
);
}
);
width = 211;
}
);
unicode = 8217;
},
{
glyphname = guillemetright;
lastChange = "2026-06-03 23:46:39 +0000";
layers = (
{
layerId = m01;
shapes = (
{
closed = 1;
nodes = (
(516,259,l),
(277,480,l),
(252,463,l),
(353,259,l),
(252,55,l),
(277,38,l)
);
},
{
closed = 1;
nodes = (
(299,259,l),
(60,480,l),
(40,463,l),
(136,259,l),
(40,55,l),
(60,38,l)
);
}
);
width = 556;
}
);
unicode = 187;
},
{
glyphname = guilsinglright;
lastChange = "2026-06-03 23:46:39 +0000";
layers = (
{
layerId = m01;
shapes = (
{
closed = 1;
nodes = (
(274,258,l),
(65,499,l),
(40,482,l),
(141,258,l),
(40,34,l),
(65,17,l)
);
}
);
width = 314;
}
);
unicode = 8250;
},
{
glyphname = quotesingle;
lastChange = "2026-06-03 23:46:39 +0000";
layers = (
{
layerId = m01;
shapes = (
{
closed = 1;
nodes = (
(107,514,l),
(131,733,l),
(20,733,l),
(44,514,l)
);
}
);
width = 171;
}
);
unicode = 39;
},
{
glyphname = florin;
lastChange = "2026-06-03 23:46:39 +0000";
layers = (
{
layerId = m01;
shapes = (
{
closed = 1;
nodes = (
(394,-1,l),
(395,595,ls),
(395,648,o),
(409,674,o),
(436,674,cs),
(467,674,o),
(500,620,o),
(533,514,c),
(543,514,l),
(592,654,l),
(545,684,o),
(493,699,o),
(436,699,cs),
(303,699,o),
(237,630,o),
(237,493,cs),
(237,-1,l)
);
},
{
closed = 1;
nodes = (
(329,-193,o),
(395,-124,o),
(395,13,cs),
(395,317,l),
(238,317,l),
(237,-89,ls),
(237,-142,o),
(223,-168,o),
(196,-168,cs),
(165,-168,o),
(132,-114,o),
(99,-8,c),
(89,-8,l),
(40,-148,l),
(87,-178,o),
(139,-193,o),
(196,-193,cs)
);
},
{
closed = 1;
nodes = (
(509,437,l),
(509,470,l),
(141,470,l),
(141,437,l)
);
}
);
width = 632;
}
);
unicode = 402;
},
{
glyphname = baht;
lastChange = "2026-06-03 23:46:39 +0000";
layers = (
{
layerId = m01;
shapes = (
{
closed = 1;
nodes = (
(376,-43,l),
(376,742,l),
(316,742,l),
(316,-43,l)
);
},
{
ref = B;
}
);
width = 700;
}
);
unicode = 3647;
},
{
glyphname = at;
lastChange = "2026-06-03 23:46:39 +0000";
layers = (
{
layerId = m01;
shapes = (
{
closed = 1;
nodes = (
(532,-25,o),
(589,-5,o),
(649,37,c),
(626,70,l),
(572,32,o),
(523,15,o),
(424,15,cs),
(225,15,o),
(80,161,o),
(80,360,cs),
(80,537,o),
(244,684,o),
(424,684,cs),
(598,684,o),
(747,551,o),
(749,376,c),
(747,255,o),
(701,182,o),
(645,182,cs),
(623,182,o),
(612,197,o),
(612,233,cs),
(612,440,ls),
(612,526,o),
(548,569,o),
(419,569,cs),
(361,569,o),
(308,553,o),
(258,523,c),
(352,433,l),
(370,433,l),
(371,507,o),
(387,543,o),
(420,543,cs),
(453,543,o),
(468,493,o),
(466,395,c),
(307,387,o),
(229,341,o),
(227,255,cs),
(227,186,o),
(267,135,o),
(349,135,cs),
(398,135,o),
(439,156,o),
(474,200,c),
(496,156,o),
(537,134,o),
(595,134,cs),
(714,134,o),
(788,209,o),
(788,377,c),
(788,562,o),
(642,724,o),
(424,724,cs),
(223,724,o),
(40,560,o),
(40,360,cs),
(40,139,o),
(203,-25,o),
(424,-25,cs)
);
},
{
closed = 1;
nodes = (
(393,196,o),
(377,222,o),
(377,274,c),
(379,327,o),
(409,359,o),
(465,372,c),
(466,372,l),
(466,223,l),
(453,205,o),
(439,196,o),
(424,196,c)
);
}
);
width = 828;
}
);
unicode = 64;
},
{
glyphname = ampersand;
lastChange = "2026-06-03 23:46:39 +0000";
layers = (
{
guides = (
{
angle = 129.8196;
pos = (535,203);
},
{
angle = 129.4911;
pos = (354,163);
}
);
layerId = m01;
shapes = (
{
closed = 1;
nodes = (
(321,-15,o),
(385,9,o),
(443,55,c),
(487,1,l),
(703,1,l),
(367,404,l),
(471,439,o),
(524,493,o),
(524,566,cs),
(524,659,o),
(438,706,o),
(342,706,cs),
(226,706,o),
(131,651,o),
(131,542,cs),
(131,474,o),
(149,411,o),
(193,357,c),
(86,306,o),
(37,255,o),
(40,165,cs),
(40,45,o),
(143,-15,o),
(249,-15,cs)
);
},
{
closed = 1;
nodes = (
(358,31,o),
(291,48,o),
(236,115,c),
(192,175,o),
(186,247,o),
(220,325,c),
(425,76,l)
);
},
{
closed = 1;
nodes = (
(601,217,o),
(629,269,o),
(625,348,c),
(592,348,l),
(594,264,o),
(568,222,o),
(530,180,c),
(556,164,l)
);
},
{
closed = 1;
nodes = (
(298,484,o),
(274,537,o),
(274,590,cs),
(274,647,o),
(295,675,o),
(336,675,cs),
(377,675,o),
(398,641,o),
(398,572,cs),
(398,525,o),
(380,478,o),
(344,431,c)
);
},
{
closed = 1;
nodes = (
(669,300,l),
(669,393,l),
(479,393,l),
(555,300,l)
);
}
);
width = 743;
}
);
unicode = 38;
},
{
glyphname = paragraph;
lastChange = "2026-06-03 23:46:39 +0000";
layers = (
{
layerId = m01;
shapes = (
{
closed = 1;
nodes = (
(246,308,l),
(246,700,l),
(207,700,l),
(76,700,o),
(10,613,o),
(10,503,c),
(10,394,o),
(76,308,o),
(207,308,c)
);
},
{
closed = 1;
nodes = (
(289,-66,l),
(289,700,l),
(239,700,l),
(239,-66,l)
);
},
{
closed = 1;
nodes = (
(429,-66,l),
(429,700,l),
(379,700,l),
(379,-66,l)
);
},
{
closed = 1;
nodes = (
(509,664,l),
(509,700,l),
(247,700,l),
(247,664,l)
);
}
);
width = 549;
}
);
unicode = 182;
},
{
glyphname = section;
lastChange = "2026-06-03 23:46:39 +0000";
layers = (
{
layerId = m01;
shapes = (
{
closed = 1;
nodes = (
(389,-35,o),
(454,36,o),
(454,121,cs),
(455,167,o),
(434,204,o),
(393,234,c),
(452,267,o),
(482,313,o),
(483,374,cs),
(483,541,o),
(201,528,o),
(201,653,cs),
(201,698,o),
(222,720,o),
(264,720,cs),
(310,720,o),
(335,681,o),
(339,601,c),
(446,601,l),
(446,695,l),
(416,722,o),
(356,746,o),
(264,746,cs),
(166,746,o),
(74,698,o),
(74,602,cs),
(75,550,o),
(93,511,o),
(126,483,c),
(68,443,o),
(40,414,o),
(40,348,cs),
(40,157,o),
(322,193,o),
(322,61,cs),
(322,18,o),
(300,-6,o),
(258,-6,cs),
(206,-6,o),
(187,35,o),
(179,117,c),
(71,117,l),
(71,16,l),
(126,-18,o),
(189,-35,o),
(258,-35,cs)
);
},
{
closed = 1;
nodes = (
(171,359,l),
(120,391,o),
(120,424,o),
(155,466,c),
(322,380,ls),
(404,338,o),
(405,300,o),
(368,249,c)
);
}
);
width = 523;
}
);
unicode = 167;
},
{
glyphname = copyright;
lastChange = "2026-06-03 23:46:39 +0000";
layers = (
{
layerId = m01;
shapes = (
{
attr = {
strokePos = 1;
strokeWidth = 50;
};
closed = 1;
nodes = (
(617,-20,o),
(783,146,o),
(783,352,cs),
(783,557,o),
(617,723,o),
(412,723,c),
(206,723,o),
(40,557,o),
(40,352,cs),
(40,146,o),
(206,-20,o),
(412,-20,cs)
);
},
{
pos = (148,117);
ref = c;
}
);
width = 823;
}
);
unicode = 169;
},
{
glyphname = registered;
lastChange = "2026-06-04 03:44:39 +0000";
layers = (
{
layerId = m01;
shapes = (
{
attr = {
strokePos = "1";
strokeWidth = 50;
};
closed = 1;
nodes = (
(388,274,o),
(489,375,o),
(489,499,cs),
(489,623,o),
(388,723,o),
(265,723,c),
(140,723,o),
(40,623,o),
(40,499,cs),
(40,375,o),
(140,274,o),
(265,274,cs)
);
},
{
closed = 1;
nodes = (
(184,613,l),
(279,613,l),
(338,613,o),
(357,579,o),
(357,551,c),
(357,516,o),
(334,500,o),
(301,491,c),
(365,386,l),
(299,386,l),
(244,484,l),
(244,386,l),
(185,386,l)
);
},
{
closed = 1;
nodes = (
(269,510,o),
(298,516,o),
(298,552,c),
(298,582,o),
(279,593,o),
(244,593,c),
(245,510,l)
);
}
);
width = 529;
}
);
unicode = 174;
},
{
glyphname = degree;
lastChange = "2026-06-04 02:48:21 +0000";
layers = (
{
layerId = m01;
shapes = (
{
attr = {
strokePos = "1";
strokeWidth = 60;
};
closed = 1;
nodes = (
(244,431,o),
(303,490,o),
(303,563,cs),
(303,635,o),
(244,694,o),
(172,694,c),
(99,694,o),
(40,635,o),
(40,563,cs),
(40,490,o),
(99,431,o),
(172,431,cs)
);
}
);
width = 343;
}
);
unicode = 176;
},
{
glyphname = bar;
lastChange = "2026-05-26 03:04:21 +0000";
layers = (
{
layerId = m01;
shapes = (
{
attr = {
strokeWidth = 80;
};
closed = 0;
nodes = (
(90,-164,l),
(90,708,l)
);
}
);
width = 180;
}
);
unicode = 124;
},
{
glyphname = brokenbar;
lastChange = "2026-05-26 03:04:21 +0000";
layers = (
{
layerId = m01;
shapes = (
{
attr = {
strokeWidth = 80;
};
closed = 0;
nodes = (
(90,346,l),
(90,708,l)
);
},
{
attr = {
strokeWidth = 80;
};
closed = 0;
nodes = (
(90,-164,l),
(90,203,l)
);
}
);
width = 180;
}
);
unicode = 166;
},
{
glyphname = dagger;
lastChange = "2026-06-03 23:46:39 +0000";
layers = (
{
layerId = m01;
shapes = (
{
closed = 1;
nodes = (
(233,156,l),
(263,671,l),
(263,741,l),
(154,741,l),
(154,670,l),
(184,156,l)
);
},
{
closed = 1;
nodes = (
(89,519,o),
(137,529,o),
(186,529,c),
(186,587,l),
(137,587,o),
(89,597,o),
(40,617,c),
(40,499,l)
);
},
{
closed = 1;
nodes = (
(376,617,l),
(327,597,o),
(279,587,o),
(230,587,c),
(230,529,l),
(279,529,o),
(327,519,o),
(376,499,c)
);
}
);
width = 416;
}
);
unicode = 8224;
},
{
glyphname = daggerdbl;
lastChange = "2026-06-03 23:46:39 +0000";
layers = (
{
layerId = m01;
shapes = (
{
closed = 1;
nodes = (
(262,154,l),
(262,225,l),
(252,400,l),
(252,495,l),
(262,670,l),
(262,741,l),
(153,741,l),
(153,670,l),
(163,495,l),
(163,400,l),
(153,225,l),
(153,154,l)
);
},
{
closed = 1;
nodes = (
(88,286,o),
(137,296,o),
(185,296,c),
(185,354,l),
(137,354,o),
(88,364,o),
(40,384,c),
(40,266,l)
);
},
{
closed = 1;
nodes = (
(375,384,l),
(327,364,o),
(278,354,o),
(230,354,c),
(230,296,l),
(278,296,o),
(327,286,o),
(375,266,c)
);
},
{
closed = 1;
nodes = (
(88,531,o),
(137,541,o),
(185,541,c),
(185,599,l),
(137,599,o),
(88,609,o),
(40,629,c),
(40,511,l)
);
},
{
closed = 1;
nodes = (
(375,629,l),
(327,609,o),
(278,599,o),
(230,599,c),
(230,541,l),
(278,541,o),
(327,531,o),
(375,511,c)
);
}
);
width = 415;
}
);
unicode = 8225;
},
{
glyphname = cent;
lastChange = "2026-06-04 03:42:21 +0000";
layers = (
{
layerId = m01;
shapes = (
{
closed = 1;
nodes = (
(339,-19,o),
(397,-2,o),
(449,33,c),
(424,155,l),
(382,155,l),
(362,59,o),
(331,12,o),
(287,12,cs),
(220,12,o),
(187,92,o),
(187,252,cs),
(187,384,o),
(217,468,o),
(277,468,cs),
(327,468,o),
(359,420,o),
(375,326,c),
(417,326,l),
(444,451,l),
(397,481,o),
(344,497,o),
(277,497,cs),
(140,497,o),
(40,406,o),
(40,252,cs),
(40,87,o),
(127,-18,o),
(277,-18,cs)
);
},
{
closed = 1;
nodes = (
(289,-94,l),
(289,-6,l),
(256,-6,l),
(256,-94,l)
);
},
{
closed = 1;
nodes = (
(289,486,l),
(289,574,l),
(256,574,l),
(256,486,l)
);
}
);
width = 489;
}
);
unicode = 162;
},
{
glyphname = currency;
lastChange = "2026-06-03 23:46:39 +0000";
layers = (
{
layerId = m01;
shapes = (
{
closed = 1;
nodes = (
(390,141,o),
(482,233,o),
(482,346,cs),
(482,458,o),
(390,550,o),
(278,550,cs),
(165,550,o),
(73,458,o),
(73,346,cs),
(73,233,o),
(165,141,o),
(278,141,cs)
);
},
{
closed = 1;
nodes = (
(142,106,l),
(142,128,o),
(151,151,o),
(170,174,c),
(142,208,l),
(107,236,l),
(85,217,o),
(62,208,o),
(40,208,c),
(40,106,l)
);
},
{
closed = 1;
nodes = (
(516,106,l),
(516,208,l),
(494,208,o),
(471,217,o),
(449,236,c),
(414,208,l),
(386,174,l),
(405,151,o),
(414,128,o),
(414,106,c)
);
},
{
closed = 1;
nodes = (
(217,235,o),
(167,285,o),
(167,346,cs),
(167,407,o),
(217,457,o),
(278,457,cs),
(339,457,o),
(389,407,o),
(389,346,cs),
(389,285,o),
(339,235,o),
(278,235,cs)
);
},
{
closed = 1;
nodes = (
(142,483,l),
(170,517,l),
(151,540,o),
(142,563,o),
(142,585,c),
(40,585,l),
(40,483,l),
(62,483,o),
(85,474,o),
(107,455,c)
);
},
{
closed = 1;
nodes = (
(471,474,o),
(494,483,o),
(516,483,c),
(516,585,l),
(414,585,l),
(414,563,o),
(405,540,o),
(386,517,c),
(414,483,l),
(449,455,l)
);
}
);
width = 556;
}
);
unicode = 164;
},
{
glyphname = dollar;
lastChange = "2026-06-04 02:06:11 +0000";
layers = (
{
layerId = m01;
shapes = (
{
closed = 1;
nodes = (
(475,-13,o),
(577,68,o),
(577,204,cs),
(577,458,o),
(182,408,o),
(182,578,cs),
(182,653,o),
(225,691,o),
(310,691,cs),
(450,688,o),
(489,475,o),
(486,478,c),
(496,478,l),
(562,633,l),
(488,689,o),
(405,716,o),
(311,716,cs),
(167,716,o),
(58,645,o),
(58,518,cs),
(58,253,o),
(450,309,o),
(450,132,cs),
(450,52,o),
(406,16,o),
(317,16,cs),
(203,16,o),
(145,158,o),
(119,246,c),
(109,246,l),
(40,86,l),
(104,18,o),
(234,-13,o),
(321,-13,cs)
);
},
{
closed = 1;
nodes = (
(359,-81,l),
(359,783,l),
(259,783,l),
(259,-81,l)
);
}
);
width = 617;
}
);
unicode = 36;
},
{
glyphname = euro;
lastChange = "2026-06-03 23:46:39 +0000";
layers = (
{
layerId = m01;
shapes = (
{
closed = 1;
nodes = (
(528,-8,o),
(614,16,o),
(673,64,c),
(649,209,l),
(633,209,l),
(587,85,o),
(532,22,o),
(462,22,cs),
(353,22,o),
(298,136,o),
(298,365,cs),
(298,578,o),
(351,684,o),
(457,684,cs),
(528,684,o),
(581,620,o),
(616,492,c),
(631,492,l),
(674,642,l),
(600,690,o),
(525,714,o),
(451,714,cs),
(252,714,o),
(128,573,o),
(128,357,cs),
(128,136,o),
(237,-8,o),
(456,-8,cs)
);
},
{
closed = 1;
nodes = (
(519,291,l),
(532,328,l),
(53,328,l),
(40,291,l)
);
},
{
closed = 1;
nodes = (
(550,400,l),
(563,437,l),
(74,437,l),
(61,400,l)
);
}
);
width = 714;
}
);
unicode = 8364;
},
{
glyphname = hryvnia;
lastChange = "2026-06-03 23:46:39 +0000";
layers = (
{
layerId = m01;
shapes = (
{
closed = 1;
nodes = (
(433,-10,o),
(516,67,o),
(505,214,c),
(372,214,l),
(383,80,o),
(356,14,o),
(289,14,c),
(234,14,o),
(206,65,o),
(206,152,c),
(209,322,o),
(507,345,o),
(508,542,c),
(508,642,o),
(427,707,o),
(287,707,c),
(143,707,o),
(80,648,o),
(87,509,c),
(213,509,l),
(204,627,o),
(231,684,o),
(286,684,c),
(331,684,o),
(368,634,o),
(368,567,c),
(368,416,o),
(64,383,o),
(64,172,c),
(64,71,o),
(139,-10,o),
(290,-10,c)
);
},
{
closed = 1;
nodes = (
(532,278,l),
(532,341,l),
(448,341,l),
(440,310,l),
(40,310,l),
(40,278,l)
);
},
{
closed = 1;
nodes = (
(124,388,l),
(132,419,l),
(532,419,l),
(532,451,l),
(40,451,l),
(40,388,l)
);
}
);
width = 572;
}
);
unicode = 8372;
},
{
glyphname = sterling;
lastChange = "2026-06-03 23:46:39 +0000";
layers = (
{
layerId = m01;
shapes = (
{
closed = 1;
nodes = (
(524,2,l),
(525,218,l),
(515,218,l),
(455,121,l),
(191,121,l),
(261,183,o),
(295,244,o),
(295,306,c),
(295,378,o),
(250,464,o),
(244,550,cs),
(239,624,o),
(266,686,o),
(331,686,c),
(389,686,o),
(428,620,o),
(446,490,c),
(487,490,l),
(552,617,l),
(485,681,o),
(412,713,o),
(331,713,c),
(170,713,o),
(90,644,o),
(90,506,c),
(86,411,o),
(169,301,o),
(169,199,c),
(168,134,o),
(128,75,o),
(51,24,c),
(51,2,l)
);
},
{
closed = 1;
nodes = (
(418,334,l),
(418,371,l),
(40,371,l),
(40,334,l)
);
}
);
width = 592;
}
);
unicode = 163;
},
{
glyphname = won;
lastChange = "2026-06-03 23:46:39 +0000";
layers = (
{
layerId = m01;
shapes = (
{
closed = 1;
nodes = (
(1010,177,l),
(1010,254,l),
(927,254,l),
(914,223,l),
(668,223,l),
(678,177,l)
);
},
{
ref = W;
},
{
closed = 1;
nodes = (
(471,177,l),
(471,223,l),
(129,223,l),
(129,177,l)
);
},
{
closed = 1;
nodes = (
(185,336,l),
(174,367,l),
(374,367,l),
(374,413,l),
(101,413,l),
(101,336,l)
);
},
{
closed = 1;
nodes = (
(1028,367,l),
(1028,413,l),
(932,413,l),
(914,367,l)
);
}
);
width = 1117;
}
);
unicode = 8361;
},
{
glyphname = yen;
lastChange = "2026-06-03 23:46:39 +0000";
layers = (
{
layerId = m01;
shapes = (
{
closed = 1;
nodes = (
(556,127,l),
(556,167,l),
(119,167,l),
(119,127,l)
);
},
{
closed = 1;
nodes = (
(556,217,l),
(556,257,l),
(119,257,l),
(119,217,l)
);
},
{
ref = Y;
}
);
width = 675;
}
);
unicode = 165;
},
{
glyphname = plus;
lastChange = "2026-06-06 20:47:08 +0000";
layers = (
{
layerId = m01;
shapes = (
{
closed = 1;
nodes = (
(279,121,l),
(279,508,l),
(188,508,l),
(188,121,l)
);
},
{
closed = 1;
nodes = (
(427,269,l),
(427,360,l),
(40,360,l),
(40,269,l)
);
}
);
width = 467;
}
);
unicode = 43;
},
{
glyphname = minus;
lastChange = "2026-06-04 02:48:59 +0000";
layers = (
{
layerId = m01;
shapes = (
{
closed = 1;
nodes = (
(427,270,l),
(427,361,l),
(40,361,l),
(40,270,l)
);
}
);
width = 467;
}
);
unicode = 8722;
},
{
glyphname = multiply;
lastChange = "2026-06-08 01:56:38 +0000";
layers = (
{
layerId = m01;
shapes = (
{
closed = 1;
nodes = (
(40,420,l),
(104,484,l),
(377,211,l),
(313,147,l)
);
},
{
closed = 1;
nodes = (
(40,211,l),
(313,484,l),
(377,420,l),
(104,147,l)
);
}
);
width = 417;
}
);
unicode = 215;
},
{
glyphname = equal;
lastChange = "2026-06-04 02:50:46 +0000";
layers = (
{
layerId = m01;
shapes = (
{
closed = 1;
nodes = (
(427,360,l),
(427,451,l),
(40,451,l),
(40,360,l)
);
},
{
closed = 1;
nodes = (
(427,183,l),
(427,274,l),
(40,274,l),
(40,183,l)
);
}
);
width = 467;
}
);
unicode = 61;
},
{
glyphname = notequal;
lastChange = "2026-06-04 02:47:20 +0000";
layers = (
{
layerId = m01;
shapes = (
{
attr = {
lineCapEnd = 4;
lineCapStart = 4;
strokeWidth = 70;
};
closed = 0;
nodes = (
(323,499,l),
(142,125,l)
);
},
{
pos = (0,-2);
ref = equal;
}
);
width = 467;
}
);
unicode = 8800;
},
{
glyphname = less;
lastChange = "2026-06-03 23:46:39 +0000";
layers = (
{
layerId = m01;
shapes = (
{
closed = 1;
nodes = (
(432,176,l),
(140,302,l),
(432,421,l),
(432,532,l),
(40,330,l),
(40,274,l),
(432,65,l)
);
}
);
width = 472;
}
);
unicode = 60;
},
{
glyphname = lessequal;
lastChange = "2026-06-03 23:46:39 +0000";
layers = (
{
layerId = m01;
shapes = (
{
closed = 1;
nodes = (
(432,243,l),
(156,302,l),
(432,355,l),
(432,445,l),
(40,330,l),
(40,274,l),
(432,152,l)
);
},
{
attr = {
strokeWidth = 70;
};
closed = 0;
nodes = (
(50,90,l),
(432,90,l)
);
}
);
width = 472;
}
);
unicode = 8804;
},
{
glyphname = plusminus;
lastChange = "2026-06-03 23:46:39 +0000";
layers = (
{
layerId = m01;
shapes = (
{
closed = 1;
nodes = (
(469,330,l),
(469,421,l),
(40,421,l),
(40,330,l)
);
},
{
closed = 1;
nodes = (
(469,109,l),
(469,200,l),
(40,200,l),
(40,109,l)
);
},
{
closed = 1;
nodes = (
(300,233,l),
(300,518,l),
(209,518,l),
(209,233,l)
);
}
);
width = 509;
}
);
unicode = 177;
},
{
glyphname = approxequal;
lastChange = "2026-06-03 23:46:39 +0000";
layers = (
{
layerId = m01;
shapes = (
{
closed = 1;
nodes = (
(346,332,o),
(395,383,o),
(395,489,c),
(364,489,l),
(364,447,o),
(346,425,o),
(309,425,cs),
(258,426,o),
(219,492,o),
(149,492,cs),
(95,492,o),
(40,442,o),
(40,337,c),
(70,337,l),
(72,379,o),
(92,401,o),
(129,401,cs),
(171,401,o),
(224,332,o),
(289,332,cs)
);
},
{
closed = 1;
nodes = (
(356,159,o),
(405,210,o),
(405,316,c),
(374,316,l),
(374,274,o),
(356,252,o),
(319,252,cs),
(268,253,o),
(229,319,o),
(159,319,cs),
(105,319,o),
(50,269,o),
(50,164,c),
(80,164,l),
(82,206,o),
(102,228,o),
(139,228,cs),
(181,228,o),
(234,159,o),
(299,159,cs)
);
}
);
width = 445;
}
);
unicode = 8776;
},
{
glyphname = asciitilde;
lastChange = "2026-06-03 23:46:39 +0000";
layers = (
{
layerId = m01;
shapes = (
{
closed = 1;
nodes = (
(435,240,o),
(498,306,o),
(498,439,c),
(459,443,l),
(458,389,o),
(435,360,o),
(388,360,cs),
(321,362,o),
(271,447,o),
(181,447,cs),
(111,447,o),
(40,382,o),
(40,251,c),
(79,247,l),
(81,301,o),
(107,330,o),
(155,330,cs),
(209,330,o),
(278,240,o),
(362,240,cs)
);
}
);
width = 538;
}
);
unicode = 126;
},
{
glyphname = logicalnot;
lastChange = "2026-05-26 03:01:38 +0000";
layers = (
{
layerId = m01;
shapes = (
{
attr = {
strokeWidth = 80;
};
closed = 0;
nodes = (
(40,351,l),
(449,351,l),
(449,182,l)
);
}
);
width = 529;
}
);
unicode = 172;
},
{
glyphname = asciicircum;
lastChange = "2026-06-03 23:46:39 +0000";
layers = (
{
layerId = m01;
shapes = (
{
closed = 1;
nodes = (
(122,347,l),
(221,584,l),
(325,347,l),
(407,347,l),
(239,701,l),
(204,701,l),
(40,347,l)
);
}
);
width = 447;
}
);
unicode = 94;
},
{
glyphname = infinity;
lastChange = "2026-06-03 23:46:39 +0000";
layers = (
{
layerId = m01;
shapes = (
{
closed = 1;
nodes = (
(234,101,o),
(285,132,o),
(332,194,c),
(383,132,o),
(431,101,o),
(484,101,cs),
(552,101,o),
(624,156,o),
(624,265,cs),
(624,374,o),
(552,427,o),
(484,427,cs),
(431,429,o),
(391,395,o),
(332,335,c),
(277,395,o),
(239,427,o),
(181,427,cs),
(116,427,o),
(40,374,o),
(40,265,cs),
(40,156,o),
(116,101,o),
(181,101,cs)
);
},
{
closed = 1;
nodes = (
(112,182,o),
(72,210,o),
(72,265,cs),
(72,320,o),
(112,347,o),
(150,347,cs),
(184,347,o),
(223,319,o),
(269,265,c),
(223,209,o),
(184,182,o),
(150,182,cs)
);
},
{
closed = 1;
nodes = (
(480,182,o),
(441,209,o),
(395,265,c),
(441,319,o),
(480,347,o),
(514,347,cs),
(552,347,o),
(592,320,o),
(592,265,cs),
(592,210,o),
(552,182,o),
(514,182,cs)
);
}
);
width = 664;
}
);
unicode = 8734;
},
{
glyphname = integral;
lastChange = "2026-06-03 23:46:39 +0000";
layers = (
{
layerId = m01;
shapes = (
{
closed = 1;
nodes = (
(256,-120,o),
(316,20,o),
(316,262,cs),
(316,452,o),
(284,704,o),
(339,704,cs),
(358,704,o),
(367,674,o),
(368,612,c),
(458,612,l),
(458,704,l),
(429,724,o),
(396,733,o),
(361,733,cs),
(242,733,o),
(179,593,o),
(182,351,cs),
(184,161,o),
(214,-91,o),
(159,-91,cs),
(140,-91,o),
(131,-61,o),
(130,1,c),
(40,1,l),
(40,-91,l),
(69,-111,o),
(102,-120,o),
(137,-120,cs)
);
}
);
width = 498;
}
);
unicode = 8747;
},
{
glyphname = increment;
lastChange = "2026-06-03 23:46:39 +0000";
layers = (
{
layerId = m01;
shapes = (
{
attr = {
strokeWidth = 80;
};
closed = 1;
nodes = (
(631,38,l),
(369,634,l),
(101,38,l)
);
}
);
width = 731;
}
);
unicode = 8710;
},
{
glyphname = product;
lastChange = "2026-05-26 03:29:20 +0000";
layers = (
{
layerId = m01;
shapes = (
{
attr = {
strokeWidth = 80;
};
closed = 0;
nodes = (
(90,-34,l),
(90,663,l),
(477,663,l),
(477,-34,l)
);
}
);
width = 567;
}
);
unicode = 8719;
},
{
glyphname = summation;
lastChange = "2026-06-03 23:46:39 +0000";
layers = (
{
backgroundImage = {
imagePath = "../../../Downloads/Gemini_Generated_Image_rdcb5ardcb5ardcb.png";
pos = (-1882,-1390);
scale = (2.8334,2.8334);
};
layerId = m01;
shapes = (
{
closed = 1;
nodes = (
(558,-19,l),
(570,144,l),
(541,144,l),
(531,57,o),
(482,13,o),
(379,13,cs),
(147,13,l),
(351,341,l),
(147,669,l),
(379,669,ls),
(482,669,o),
(531,625,o),
(541,538,c),
(570,538,l),
(558,701,l),
(40,701,l),
(40,679,l),
(242,341,l),
(40,3,l),
(40,-19,l)
);
}
);
width = 610;
}
);
unicode = 8721;
},
{
glyphname = radical;
lastChange = "2026-06-03 23:46:39 +0000";
layers = (
{
layerId = m01;
shapes = (
{
closed = 1;
nodes = (
(311,0,l),
(466,528,l),
(482,590,o),
(515,602,o),
(574,601,c),
(632,601,l),
(656,700,l),
(485,700,l),
(317,130,l),
(208,379,l),
(40,379,l),
(40,349,l),
(94,349,l),
(245,0,l)
);
}
);
width = 696;
}
);
unicode = 8730;
},
{
glyphname = partialdiff;
lastChange = "2026-06-03 23:46:39 +0000";
layers = (
{
layerId = m01;
shapes = (
{
closed = 1;
nodes = (
(422,-9,o),
(505,137,o),
(511,315,c),
(511,564,o),
(422,702,o),
(273,702,c),
(208,702,o),
(152,683,o),
(107,643,c),
(108,560,l),
(208,560,l),
(212,638,o),
(234,677,o),
(272,677,c),
(332,677,o),
(370,580,o),
(370,386,c),
(307,511,o),
(40,452,o),
(40,228,c),
(40,70,o),
(111,-9,o),
(253,-9,c)
);
},
{
closed = 1;
nodes = (
(204,17,o),
(179,89,o),
(179,232,c),
(179,356,o),
(228,418,o),
(284,418,c),
(319,418,o),
(347,391,o),
(370,335,c),
(370,123,o),
(332,17,o),
(255,17,c)
);
}
);
width = 551;
}
);
unicode = 8706;
},
{
glyphname = micro;
lastChange = "2026-06-03 23:46:39 +0000";
layers = (
{
layerId = m01;
shapes = (
{
closed = 1;
nodes = (
(280,-8,o),
(319,19,o),
(353,71,c),
(372,0,l),
(495,0,l),
(495,470,l),
(336,470,l),
(336,98,l),
(322,70,o),
(301,55,o),
(275,55,cs),
(232,55,o),
(210,93,o),
(210,169,cs),
(210,470,l),
(50,470,l),
(50,163,ls),
(50,48,o),
(102,-8,o),
(206,-8,cs)
);
},
{
closed = 1;
nodes = (
(210,-134,l),
(210,266,l),
(50,266,l),
(50,-134,l)
);
},
{
closed = 1;
nodes = (
(541,0,l),
(541,14,l),
(486,39,l),
(481,0,l)
);
}
);
width = 581;
}
);
unicode = 181;
},
{
glyphname = percent;
lastChange = "2026-06-03 23:46:39 +0000";
layers = (
{
layerId = m01;
shapes = (
{
closed = 1;
nodes = (
(138,0,l),
(602,702,l),
(564,702,l),
(100,0,l)
);
},
{
closed = 1;
nodes = (
(590,-5,o),
(666,51,o),
(666,164,c),
(666,275,o),
(590,331,o),
(507,331,c),
(422,331,o),
(345,275,o),
(345,164,c),
(345,51,o),
(422,-5,o),
(507,-5,c)
);
},
{
closed = 1;
nodes = (
(472,23,o),
(459,81,o),
(459,164,c),
(459,247,o),
(472,303,o),
(507,303,c),
(542,303,o),
(555,247,o),
(555,164,c),
(555,81,o),
(542,23,o),
(507,23,c)
);
},
{
closed = 1;
nodes = (
(285,375,o),
(361,431,o),
(361,544,c),
(361,655,o),
(285,711,o),
(202,711,c),
(117,711,o),
(40,655,o),
(40,544,c),
(40,431,o),
(117,375,o),
(202,375,c)
);
},
{
closed = 1;
nodes = (
(167,403,o),
(154,461,o),
(154,544,c),
(154,627,o),
(167,683,o),
(202,683,c),
(237,683,o),
(250,627,o),
(250,544,c),
(250,461,o),
(237,403,o),
(202,403,c)
);
}
);
width = 706;
}
);
unicode = 37;
},
{
glyphname = perthousand;
lastChange = "2026-06-03 23:46:39 +0000";
layers = (
{
layerId = m01;
shapes = (
{
closed = 1;
nodes = (
(138,0,l),
(602,702,l),
(564,702,l),
(100,0,l)
);
},
{
closed = 1;
nodes = (
(590,-5,o),
(666,51,o),
(666,164,c),
(666,275,o),
(590,331,o),
(507,331,c),
(422,331,o),
(345,275,o),
(345,164,c),
(345,51,o),
(422,-5,o),
(507,-5,c)
);
},
{
closed = 1;
nodes = (
(472,23,o),
(459,81,o),
(459,164,c),
(459,247,o),
(472,303,o),
(507,303,c),
(542,303,o),
(555,247,o),
(555,164,c),
(555,81,o),
(542,23,o),
(507,23,c)
);
},
{
closed = 1;
nodes = (
(285,375,o),
(361,431,o),
(361,544,c),
(361,655,o),
(285,711,o),
(202,711,c),
(117,711,o),
(40,655,o),
(40,544,c),
(40,431,o),
(117,375,o),
(202,375,c)
);
},
{
closed = 1;
nodes = (
(167,403,o),
(154,461,o),
(154,544,c),
(154,627,o),
(167,683,o),
(202,683,c),
(237,683,o),
(250,627,o),
(250,544,c),
(250,461,o),
(237,403,o),
(202,403,c)
);
},
{
closed = 1;
nodes = (
(951,-13,o),
(1027,43,o),
(1027,156,c),
(1027,267,o),
(951,323,o),
(868,323,c),
(783,323,o),
(706,267,o),
(706,156,c),
(706,43,o),
(783,-13,o),
(868,-13,c)
);
},
{
closed = 1;
nodes = (
(833,15,o),
(820,73,o),
(820,156,c),
(820,239,o),
(833,295,o),
(868,295,c),
(903,295,o),
(916,239,o),
(916,156,c),
(916,73,o),
(903,15,o),
(868,15,c)
);
}
);
width = 1067;
}
);
unicode = 8240;
},
{
glyphname = rightArrow;
lastChange = "2026-06-03 23:46:39 +0000";
layers = (
{
guides = (
{
pos = (362,543);
}
);
layerId = m01;
shapes = (
{
closed = 1;
nodes = (
(696,334,l),
(341,577,l),
(321,423,l),
(376,425,l),
(379,449,ls),
(383,481,o),
(395,476,o),
(415,462,cs),
(613,334,l),
(415,206,ls),
(395,192,o),
(383,187,o),
(379,219,cs),
(376,243,l),
(321,245,l),
(341,91,l)
);
},
{
closed = 1;
nodes = (
(520,300,l),
(645,308,l),
(645,360,l),
(520,368,l),
(40,368,l),
(40,300,l)
);
}
);
width = 736;
}
);
unicode = 8594;
},
{
glyphname = leftRightArrow;
lastChange = "2026-06-03 23:46:39 +0000";
layers = (
{
layerId = m01;
shapes = (
{
closed = 1;
nodes = (
(899,334,l),
(544,577,l),
(524,423,l),
(579,425,l),
(582,449,ls),
(586,481,o),
(598,476,o),
(618,462,cs),
(816,334,l),
(618,206,ls),
(598,192,o),
(586,187,o),
(582,219,cs),
(579,243,l),
(524,245,l),
(544,91,l)
);
},
{
closed = 1;
nodes = (
(415,245,l),
(360,243,l),
(357,219,ls),
(353,187,o),
(341,192,o),
(321,206,cs),
(123,334,l),
(321,462,ls),
(341,476,o),
(353,481,o),
(357,449,cs),
(360,425,l),
(415,423,l),
(395,577,l),
(40,334,l),
(395,91,l)
);
},
{
closed = 1;
nodes = (
(696,300,l),
(696,368,l),
(216,368,l),
(91,360,l),
(91,308,l),
(216,300,l)
);
},
{
closed = 1;
nodes = (
(723,300,l),
(848,308,l),
(848,360,l),
(723,368,l),
(243,368,l),
(243,300,l)
);
}
);
width = 939;
}
);
unicode = 8596;
},
{
glyphname = dottedCircle;
lastChange = "2026-06-03 23:46:39 +0000";
layers = (
{
anchors = (
{
name = bottom;
pos = (299,41);
},
{
name = center;
pos = (299,293);
},
{
name = ogonek;
pos = (430,79);
},
{
name = top;
pos = (300,556);
},
{
name = topright;
pos = (507,437);
}
);
layerId = m01;
shapes = (
{
closed = 1;
nodes = (
(545,363,o),
(552,382,o),
(546,398,cs),
(539,415,o),
(520,423,o),
(504,416,cs),
(487,410,o),
(479,391,o),
(487,374,cs),
(493,358,o),
(513,350,o),
(528,357,cs)
);
},
{
closed = 1;
nodes = (
(125,97,o),
(145,97,o),
(157,109,cs),
(170,122,o),
(170,142,o),
(157,154,cs),
(145,167,o),
(125,167,o),
(112,154,cs),
(100,142,o),
(100,122,o),
(112,109,cs)
);
},
{
closed = 1;
nodes = (
(113,184,o),
(121,203,o),
(113,220,cs),
(107,236,o),
(88,244,o),
(72,237,cs),
(55,231,o),
(48,212,o),
(54,196,cs),
(61,179,o),
(80,171,o),
(96,178,cs)
);
},
{
closed = 1;
nodes = (
(215,45,o),
(234,53,o),
(240,69,cs),
(248,85,o),
(240,104,o),
(223,110,cs),
(206,117,o),
(187,109,o),
(181,93,cs),
(174,77,o),
(182,58,o),
(198,51,cs)
);
},
{
closed = 1;
nodes = (
(318,32,o),
(331,46,o),
(331,62,cs),
(331,81,o),
(318,95,o),
(300,94,cs),
(282,95,o),
(269,81,o),
(269,62,cs),
(269,46,o),
(282,32,o),
(300,31,cs)
);
},
{
closed = 1;
nodes = (
(84,266,o),
(98,279,o),
(98,297,cs),
(98,315,o),
(84,328,o),
(66,328,cs),
(49,328,o),
(35,315,o),
(35,297,cs),
(35,279,o),
(49,266,o),
(66,266,cs)
);
},
{
closed = 1;
nodes = (
(88,349,o),
(107,357,o),
(113,374,cs),
(120,391,o),
(112,410,o),
(96,416,cs),
(80,423,o),
(61,415,o),
(54,399,cs),
(48,382,o),
(56,363,o),
(72,357,cs)
);
},
{
closed = 1;
nodes = (
(418,58,o),
(426,77,o),
(419,93,cs),
(414,110,o),
(395,118,o),
(377,110,cs),
(361,104,o),
(353,85,o),
(360,69,cs),
(365,52,o),
(385,45,o),
(401,51,cs)
);
},
{
closed = 1;
nodes = (
(125,427,o),
(145,427,o),
(157,440,cs),
(170,452,o),
(170,472,o),
(157,485,cs),
(145,497,o),
(125,497,o),
(112,485,cs),
(100,472,o),
(100,452,o),
(112,440,cs)
);
},
{
closed = 1;
nodes = (
(455,97,o),
(475,97,o),
(488,109,cs),
(500,122,o),
(500,142,o),
(488,154,cs),
(475,167,o),
(455,167,o),
(443,154,cs),
(430,142,o),
(430,122,o),
(443,109,cs)
);
},
{
closed = 1;
nodes = (
(239,490,o),
(247,510,o),
(240,525,cs),
(235,542,o),
(215,549,o),
(199,543,cs),
(182,536,o),
(174,517,o),
(181,501,cs),
(186,484,o),
(205,476,o),
(223,484,cs)
);
},
{
closed = 1;
nodes = (
(520,171,o),
(539,179,o),
(546,195,cs),
(552,212,o),
(544,231,o),
(528,237,cs),
(512,245,o),
(493,237,o),
(487,220,cs),
(480,203,o),
(488,184,o),
(504,178,cs)
);
},
{
closed = 1;
nodes = (
(551,266,o),
(565,279,o),
(565,297,cs),
(565,315,o),
(551,328,o),
(534,328,cs),
(516,328,o),
(502,315,o),
(502,297,cs),
(502,279,o),
(516,266,o),
(534,266,cs)
);
},
{
closed = 1;
nodes = (
(318,499,o),
(331,513,o),
(331,532,cs),
(331,548,o),
(318,562,o),
(300,563,cs),
(282,562,o),
(269,548,o),
(269,532,cs),
(269,513,o),
(282,499,o),
(300,500,cs)
);
},
{
closed = 1;
nodes = (
(425,502,o),
(424,523,o),
(413,536,cs),
(399,548,o),
(378,547,o),
(367,535,cs),
(353,524,o),
(354,503,o),
(367,491,cs),
(380,478,o),
(401,478,o),
(412,490,cs)
);
},
{
closed = 1;
nodes = (
(455,427,o),
(475,427,o),
(488,440,cs),
(500,452,o),
(500,472,o),
(488,485,cs),
(475,497,o),
(455,497,o),
(443,485,cs),
(430,472,o),
(430,452,o),
(443,440,cs)
);
}
);
width = 600;
}
);
unicode = 9676;
},
{
glyphname = lozenge;
lastChange = "2026-06-03 23:46:39 +0000";
layers = (
{
layerId = m01;
shapes = (
{
attr = {
strokePos = 1;
strokeWidth = 80;
};
closed = 1;
nodes = (
(458,319,l),
(249,627,l),
(40,319,l),
(249,5,l)
);
}
);
width = 498;
}
);
unicode = 9674;
},
{
glyphname = "brevecomb-cy";
lastChange = "2026-06-03 23:46:39 +0000";
layers = (
{
anchors = (
{
name = _top;
pos = (156,506);
},
{
name = top;
pos = (156,708);
}
);
layerId = m01;
shapes = (
{
closed = 1;
nodes = (
(90,664,o),
(63,687,o),
(48,708,c),
(20,680,l),
(84,569,o),
(228,569,o),
(292,680,c),
(264,708,l),
(249,687,o),
(220,664,o),
(187,659,cs),
(177,657,o),
(166,676,o),
(155,676,cs),
(143,676,o),
(132,657,o),
(121,659,cs)
);
}
);
width = 312;
}
);
},
{
glyphname = gravecomb;
lastChange = "2026-06-04 03:30:18 +0000";
layers = (
{
anchors = (
{
name = _top;
pos = (97,530);
},
{
name = top;
pos = (85,764);
}
);
layerId = m01;
shapes = (
{
closed = 1;
nodes = (
(142,588,l),
(125,637,l),
(116,669,o),
(124,686,o),
(159,699,c),
(136,764,l),
(10,764,l),
(65,588,l)
);
}
);
width = 169;
}
);
unicode = 768;
},
{
glyphname = acutecomb;
lastChange = "2026-06-04 03:29:30 +0000";
layers = (
{
anchors = (
{
name = _top;
pos = (75,530);
},
{
name = top;
pos = (85,764);
}
);
layerId = m01;
shapes = (
{
closed = 1;
nodes = (
(104,588,l),
(159,764,l),
(33,764,l),
(10,699,l),
(45,686,o),
(53,669,o),
(44,637,c),
(27,588,l)
);
}
);
width = 169;
}
);
unicode = 769;
},
{
glyphname = hungarumlautcomb;
lastChange = "2026-06-03 23:46:39 +0000";
layers = (
{
anchors = (
{
name = _top;
pos = (172,526);
},
{
name = top;
pos = (172,769);
}
);
layerId = m01;
shapes = (
{
closed = 1;
nodes = (
(271,583,l),
(346,769,l),
(200,769,l),
(177,704,l),
(223,691,l),
(241,685,o),
(246,668,o),
(236,642,c),
(214,583,l)
);
},
{
closed = 1;
nodes = (
(104,583,l),
(179,769,l),
(27,769,l),
(10,704,l),
(56,691,l),
(74,685,o),
(79,668,o),
(69,642,c),
(47,583,l)
);
}
);
width = 356;
}
);
unicode = 779;
},
{
glyphname = caroncomb.alt;
lastChange = "2026-06-03 23:46:39 +0000";
layers = (
{
anchors = (
{
name = _topright;
pos = (-23,849);
}
);
layerId = m01;
shapes = (
{
closed = 1;
nodes = (
(101,578,l),
(126,764,l),
(20,764,l),
(44,578,l)
);
}
);
width = 146;
}
);
},
{
glyphname = circumflexcomb;
lastChange = "2026-06-05 01:53:24 +0000";
layers = (
{
anchors = (
{
name = _top;
pos = (177,499);
},
{
name = top;
pos = (177,737);
},
{
name = top_viet;
pos = (177,786);
}
);
layerId = m01;
shapes = (
{
closed = 1;
nodes = (
(177,621,l),
(322,553,l),
(334,567,l),
(177,737,l),
(20,567,l),
(32,553,l)
);
}
);
width = 354;
}
);
unicode = 770;
},
{
glyphname = brevecomb;
lastChange = "2026-06-03 23:46:39 +0000";
layers = (
{
anchors = (
{
name = _top;
pos = (156,506);
},
{
name = top;
pos = (156,708);
}
);
layerId = m01;
shapes = (
{
closed = 1;
nodes = (
(84,569,o),
(228,569,o),
(292,680,c),
(264,708,l),
(224,652,o),
(88,652,o),
(48,708,c),
(20,680,l)
);
}
);
width = 312;
}
);
unicode = 774;
},
{
glyphname = ringcomb;
lastChange = "2026-06-08 00:22:32 +0000";
layers = (
{
anchors = (
{
name = _top;
pos = (108,499);
},
{
name = top;
pos = (108,735);
}
);
layerId = m01;
shapes = (
{
attr = {
strokePos = 1;
strokeWidth = 60;
};
closed = 1;
nodes = (
(156,560,o),
(195,599,o),
(195,648,cs),
(195,696,o),
(156,735,o),
(108,735,cs),
(59,735,o),
(20,696,o),
(20,648,cs),
(20,599,o),
(59,560,o),
(108,560,cs)
);
}
);
width = 215;
}
);
unicode = 778;
},
{
glyphname = macroncomb;
lastChange = "2026-05-26 01:01:02 +0000";
layers = (
{
anchors = (
{
name = _top;
pos = (157,512);
},
{
name = top;
pos = (157,690);
}
);
layerId = m01;
shapes = (
{
attr = {
strokeWidth = 70;
};
closed = 0;
nodes = (
(20,655,l),
(294,655,l)
);
}
);
width = 314;
}
);
unicode = 772;
},
{
glyphname = hookabovecomb;
lastChange = "2026-06-08 02:21:21 +0000";
layers = (
{
anchors = (
{
name = _top;
pos = (128,470);
},
{
name = top;
pos = (128,745);
}
);
layerId = m01;
shapes = (
{
closed = 1;
nodes = (
(138,517,l),
(138,530,l),
(138,560,o),
(236,564,o),
(236,652,c),
(236,699,o),
(200,729,o),
(127,729,c),
(56,729,o),
(20,699,o),
(20,637,c),
(91,622,l),
(90,682,o),
(108,703,o),
(123,703,c),
(142,703,o),
(151,689,o),
(151,649,c),
(151,588,o),
(110,589,o),
(110,542,c),
(110,510,l)
);
}
);
width = 256;
}
);
unicode = 777;
},
{
glyphname = horncomb;
lastChange = "2026-06-03 23:46:39 +0000";
layers = (
{
anchors = (
{
name = _topright;
pos = (-10,470);
},
{
name = topright;
pos = (215,720);
}
);
layerId = m01;
shapes = (
{
closed = 1;
nodes = (
(116,509,o),
(197,552,o),
(195,658,cs),
(194,693,o),
(167,720,o),
(132,720,cs),
(98,720,o),
(70,693,o),
(70,658,cs),
(70,623,o),
(98,596,o),
(132,596,cs),
(136,596,o),
(139,596,o),
(142,597,c),
(142,543,o),
(52,522,o),
(10,515,c),
(16,497,l)
);
}
);
width = 205;
}
);
unicode = 795;
},
{
glyphname = cedillacomb;
lastChange = "2026-06-03 23:46:39 +0000";
layers = (
{
anchors = (
{
name = _bottom;
pos = (109,0);
},
{
name = bottom;
pos = (136,-197);
}
);
layerId = m01;
shapes = (
{
closed = 1;
nodes = (
(243,-172,l),
(139,1,l),
(88,1,l),
(115,-54,ls),
(130,-84,o),
(130,-92,o),
(101,-96,cs),
(20,-108,l),
(47,-172,l)
);
}
);
width = 263;
}
);
unicode = 807;
},
{
glyphname = ogonekcomb;
lastChange = "2026-06-04 21:22:11 +0000";
layers = (
{
anchors = (
{
name = _ogonek;
pos = (187,0);
}
);
layerId = m01;
shapes = (
{
closed = 1;
nodes = (
(191,-148,l),
(149,-136,l),
(117,-128,o),
(115,-108,o),
(121,-90,c),
(146,1,l),
(90,1,l),
(23,-140,l),
(15,-162,o),
(26,-170,o),
(40,-172,c),
(172,-191,l)
);
}
);
width = 211;
}
);
unicode = 808;
},
{
glyphname = strokeshortcomb;
lastChange = "2026-05-27 02:21:55 +0000";
layers = (
{
anchors = (
{
name = _center;
pos = (173,515);
}
);
layerId = m01;
shapes = (
{
attr = {
strokeWidth = 60;
};
closed = 0;
nodes = (
(326,515,l),
(20,515,l)
);
}
);
width = 346;
}
);
unicode = 821;
},
{
glyphname = strokelongcomb;
lastChange = "2026-05-27 02:26:21 +0000";
layers = (
{
anchors = (
{
name = _center;
pos = (379,515);
}
);
layerId = m01;
shapes = (
{
attr = {
strokeWidth = 60;
};
closed = 0;
nodes = (
(738,515,l),
(20,515,l)
);
}
);
width = 758;
}
);
unicode = 822;
},
{
glyphname = slashshortcomb;
lastChange = "2026-05-27 02:45:22 +0000";
layers = (
{
anchors = (
{
name = _center;
pos = (218,401);
}
);
layerId = m01;
shapes = (
{
attr = {
lineCapEnd = 4;
lineCapStart = 4;
strokeWidth = 60;
};
closed = 0;
nodes = (
(400,561,l),
(62,217,l)
);
}
);
width = 462;
}
);
unicode = 823;
},
{
glyphname = slashlongcomb;
lastChange = "2026-05-27 02:21:55 +0000";
layers = (
{
anchors = (
{
name = _center;
pos = (195,235);
}
);
layerId = m01;
shapes = (
{
attr = {
identifier = ID0x31a4e2160;
lineCapEnd = "4";
lineCapStart = "4";
strokeWidth = 60;
};
closed = 0;
nodes = (
(336,533,l),
(53,-63,l)
);
}
);
width = 389;
}
);
unicode = 824;
},
{
glyphname = brevecomb_acutecomb;
lastChange = "2026-06-05 02:36:25 +0000";
layers = (
{
anchors = (
{
name = _top;
pos = (156,510);
},
{
name = top;
pos = (156,942);
}
);
layerId = m01;
shapes = (
{
closed = 1;
nodes = (
(84,569,o),
(228,569,o),
(292,680,c),
(264,708,l),
(224,652,o),
(88,652,o),
(48,708,c),
(20,680,l)
);
},
{
closed = 1;
nodes = (
(185,766,l),
(240,942,l),
(114,942,l),
(91,877,l),
(126,864,o),
(134,847,o),
(125,815,c),
(108,766,l)
);
}
);
width = 312;
}
);
},
{
glyphname = brevecomb_gravecomb;
lastChange = "2026-06-05 02:36:29 +0000";
layers = (
{
anchors = (
{
name = _top;
pos = (156,510);
},
{
name = top;
pos = (156,942);
}
);
layerId = m01;
shapes = (
{
closed = 1;
nodes = (
(84,569,o),
(228,569,o),
(292,680,c),
(264,708,l),
(224,652,o),
(88,652,o),
(48,708,c),
(20,680,l)
);
},
{
closed = 1;
nodes = (
(201,766,l),
(184,815,l),
(175,847,o),
(183,864,o),
(218,877,c),
(195,942,l),
(69,942,l),
(124,766,l)
);
}
);
width = 312;
}
);
},
{
glyphname = brevecomb_hookabovecomb;
lastChange = "2026-06-08 02:22:05 +0000";
layers = (
{
anchors = (
{
name = _top;
pos = (156,470);
},
{
name = top;
pos = (156,950);
}
);
layerId = m01;
shapes = (
{
closed = 1;
nodes = (
(84,569,o),
(228,569,o),
(292,680,c),
(264,708,l),
(224,652,o),
(88,652,o),
(48,708,c),
(20,680,l)
);
},
{
closed = 1;
nodes = (
(166,728,l),
(166,741,l),
(166,769,o),
(257,772,o),
(257,855,c),
(257,899,o),
(224,927,o),
(155,927,c),
(88,927,o),
(55,899,o),
(55,841,c),
(121,827,l),
(120,883,o),
(138,903,o),
(152,903,c),
(169,903,o),
(178,890,o),
(178,852,c),
(178,795,o),
(139,796,o),
(139,752,c),
(139,722,l)
);
}
);
width = 312;
}
);
},
{
glyphname = brevecomb_tildecomb;
lastChange = "2026-06-05 02:47:13 +0000";
layers = (
{
anchors = (
{
name = _top;
pos = (156,510);
},
{
name = top;
pos = (156,925);
}
);
layerId = m01;
shapes = (
{
closed = 1;
nodes = (
(84,569,o),
(228,569,o),
(292,680,c),
(264,708,l),
(224,652,o),
(88,652,o),
(48,708,c),
(20,680,l)
);
},
{
closed = 1;
nodes = (
(264,774,o),
(305,817,o),
(305,903,c),
(279,906,l),
(279,871,o),
(264,852,o),
(234,852,cs),
(190,853,o),
(158,909,o),
(99,909,cs),
(54,909,o),
(7,867,o),
(7,781,c),
(33,779,l),
(35,814,o),
(51,833,o),
(82,833,cs),
(118,833,o),
(162,774,o),
(216,774,cs)
);
}
);
width = 312;
}
);
},
{
glyphname = circumflexcomb_acutecomb;
lastChange = "2026-06-05 02:37:03 +0000";
layers = (
{
anchors = (
{
name = _top;
pos = (177,510);
},
{
name = top;
pos = (177,941);
}
);
layerId = m01;
shapes = (
{
closed = 1;
nodes = (
(177,621,l),
(322,553,l),
(334,567,l),
(177,717,l),
(20,567,l),
(32,553,l)
);
},
{
closed = 1;
nodes = (
(206,765,l),
(261,941,l),
(135,941,l),
(112,876,l),
(147,863,o),
(155,846,o),
(146,814,c),
(129,765,l)
);
}
);
width = 354;
}
);
},
{
glyphname = circumflexcomb_gravecomb;
lastChange = "2026-06-05 02:37:07 +0000";
layers = (
{
anchors = (
{
name = _top;
pos = (177,510);
},
{
name = top;
pos = (177,941);
}
);
layerId = m01;
shapes = (
{
closed = 1;
nodes = (
(177,621,l),
(322,553,l),
(334,567,l),
(177,717,l),
(20,567,l),
(32,553,l)
);
},
{
closed = 1;
nodes = (
(222,765,l),
(205,814,l),
(196,846,o),
(204,863,o),
(239,876,c),
(216,941,l),
(90,941,l),
(145,765,l)
);
}
);
width = 354;
}
);
},
{
glyphname = circumflexcomb_hookabovecomb;
lastChange = "2026-06-05 02:37:11 +0000";
layers = (
{
anchors = (
{
name = _top;
pos = (177,510);
},
{
name = top;
pos = (177,950);
}
);
layerId = m01;
shapes = (
{
closed = 1;
nodes = (
(177,621,l),
(322,553,l),
(334,567,l),
(177,717,l),
(20,567,l),
(32,553,l)
);
},
{
closed = 1;
nodes = (
(186,765,l),
(186,777,l),
(186,803,o),
(271,806,o),
(271,883,c),
(271,924,o),
(240,950,o),
(176,950,c),
(114,950,o),
(83,924,o),
(83,870,c),
(145,857,l),
(144,909,o),
(160,927,o),
(173,927,c),
(189,927,o),
(197,915,o),
(197,880,c),
(197,827,o),
(161,828,o),
(161,787,c),
(161,759,l)
);
}
);
width = 354;
}
);
},
{
glyphname = circumflexcomb_tildecomb;
lastChange = "2026-06-05 19:34:48 +0000";
layers = (
{
anchors = (
{
name = _top;
pos = (177,510);
},
{
name = top;
pos = (177,914);
}
);
guides = (
{
pos = (139,788);
}
);
layerId = m01;
shapes = (
{
closed = 1;
nodes = (
(177,621,l),
(322,553,l),
(334,567,l),
(177,717,l),
(20,567,l),
(32,553,l)
);
},
{
closed = 1;
nodes = (
(283,754,o),
(324,797,o),
(324,883,c),
(298,886,l),
(298,851,o),
(283,832,o),
(253,832,cs),
(209,833,o),
(177,889,o),
(118,889,cs),
(73,889,o),
(26,847,o),
(26,761,c),
(52,759,l),
(54,794,o),
(70,813,o),
(101,813,cs),
(137,813,o),
(181,754,o),
(235,754,cs)
);
}
);
width = 354;
}
);
},
{
glyphname = gravecomb.case;
lastChange = "2026-06-03 23:46:39 +0000";
layers = (
{
anchors = (
{
name = _top;
pos = (101,511);
},
{
name = top;
pos = (101,764);
}
);
layerId = m01;
shapes = (
{
closed = 1;
nodes = (
(144,580,l),
(130,615,l),
(120,641,o),
(125,658,o),
(143,664,c),
(189,677,l),
(172,742,l),
(10,742,l),
(77,580,l)
);
}
);
width = 199;
}
);
},
{
glyphname = acutecomb.case;
lastChange = "2026-06-03 23:46:39 +0000";
layers = (
{
anchors = (
{
name = _top;
pos = (98,523);
},
{
name = top;
pos = (98,766);
}
);
layerId = m01;
shapes = (
{
closed = 1;
nodes = (
(122,580,l),
(189,742,l),
(27,742,l),
(10,677,l),
(56,664,l),
(74,658,o),
(79,641,o),
(69,615,c),
(55,580,l)
);
}
);
width = 199;
}
);
},
{
glyphname = circumflexcomb.case;
lastChange = "2026-06-03 23:46:39 +0000";
layers = (
{
anchors = (
{
name = _top;
pos = (177,499);
},
{
name = top;
pos = (177,737);
}
);
layerId = m01;
shapes = (
{
closed = 1;
nodes = (
(177,611,l),
(322,543,l),
(334,557,l),
(177,705,l),
(20,557,l),
(32,543,l)
);
}
);
width = 354;
}
);
},
{
glyphname = circumflexcomb_gravecomb.case;
lastChange = "2026-06-07 23:10:04 +0000";
layers = (
{
anchors = (
{
name = _top;
pos = (177,540);
},
{
name = top;
pos = (177,941);
}
);
layerId = m01;
shapes = (
{
closed = 1;
nodes = (
(177,601,l),
(322,553,l),
(334,567,l),
(177,697,l),
(20,567,l),
(32,553,l)
);
},
{
closed = 1;
nodes = (
(341,682,l),
(324,731,l),
(315,763,o),
(323,780,o),
(358,793,c),
(335,858,l),
(209,858,l),
(264,682,l)
);
}
);
width = 338;
}
);
},
{
glyphname = circumflexcomb_acutecomb.case;
lastChange = "2026-06-07 23:09:08 +0000";
layers = (
{
anchors = (
{
name = _top;
pos = (177,540);
},
{
name = top;
pos = (177,941);
}
);
layerId = m01;
shapes = (
{
closed = 1;
nodes = (
(177,601,l),
(322,553,l),
(334,567,l),
(177,697,l),
(20,567,l),
(32,553,l)
);
},
{
closed = 1;
nodes = (
(325,682,l),
(380,858,l),
(254,858,l),
(231,793,l),
(266,780,o),
(274,763,o),
(265,731,c),
(248,682,l)
);
}
);
width = 400;
}
);
},
{
glyphname = circumflexcomb_tildecomb.case;
lastChange = "2026-06-05 19:32:51 +0000";
layers = (
{
anchors = (
{
name = _top;
pos = (177,540);
},
{
name = top;
pos = (177,914);
}
);
guides = (
{
pos = (139,788);
}
);
layerId = m01;
shapes = (
{
closed = 1;
nodes = (
(177,601,l),
(322,553,l),
(334,567,l),
(177,697,l),
(20,567,l),
(32,553,l)
);
},
{
closed = 1;
nodes = (
(286,723,o),
(327,766,o),
(327,853,c),
(302,856,l),
(302,820,o),
(286,801,o),
(255,801,cs),
(211,802,o),
(179,858,o),
(120,858,cs),
(74,858,o),
(27,816,o),
(27,729,c),
(52,727,l),
(54,762,o),
(71,782,o),
(102,782,cs),
(138,782,o),
(183,723,o),
(238,723,cs)
);
}
);
width = 354;
}
);
},
{
glyphname = circumflexcomb_hookabovecomb.case;
lastChange = "2026-06-08 02:22:27 +0000";
layers = (
{
anchors = (
{
name = _top;
pos = (177,540);
},
{
name = top;
pos = (177,950);
}
);
layerId = m01;
shapes = (
{
closed = 1;
nodes = (
(177,601,l),
(322,553,l),
(334,567,l),
(177,697,l),
(20,567,l),
(32,553,l)
);
},
{
closed = 1;
nodes = (
(293,669,l),
(293,681,l),
(293,708,o),
(383,712,o),
(383,792,c),
(383,835,o),
(350,863,o),
(283,863,c),
(218,863,o),
(185,835,o),
(185,779,c),
(250,765,l),
(249,820,o),
(266,839,o),
(280,839,c),
(297,839,o),
(305,826,o),
(305,789,c),
(305,734,o),
(267,735,o),
(267,692,c),
(267,662,l)
);
}
);
width = 398;
}
);
},
{
glyphname = caroncomb.case;
lastChange = "2026-06-03 23:46:39 +0000";
layers = (
{
anchors = (
{
name = _top;
pos = (177,499);
},
{
name = top;
pos = (177,737);
}
);
layerId = m01;
shapes = (
{
closed = 1;
nodes = (
(334,691,l),
(322,705,l),
(177,637,l),
(32,705,l),
(20,691,l),
(177,543,l)
);
}
);
width = 354;
}
);
},
{
glyphname = brevecomb_gravecomb.case;
lastChange = "2026-06-07 23:08:22 +0000";
layers = (
{
anchors = (
{
name = _top;
pos = (156,540);
},
{
name = top;
pos = (156,942);
}
);
layerId = m01;
shapes = (
{
closed = 1;
nodes = (
(84,569,o),
(228,569,o),
(292,680,c),
(264,708,l),
(224,652,o),
(88,652,o),
(48,708,c),
(20,680,l)
);
},
{
closed = 1;
nodes = (
(201,706,l),
(184,755,l),
(175,787,o),
(183,804,o),
(218,817,c),
(195,882,l),
(69,882,l),
(124,706,l)
);
}
);
width = 312;
}
);
},
{
glyphname = brevecomb_acutecomb.case;
lastChange = "2026-06-07 23:06:04 +0000";
layers = (
{
anchors = (
{
name = _top;
pos = (156,540);
},
{
name = top;
pos = (156,942);
}
);
layerId = m01;
shapes = (
{
closed = 1;
nodes = (
(84,569,o),
(228,569,o),
(292,680,c),
(264,708,l),
(224,652,o),
(88,652,o),
(48,708,c),
(20,680,l)
);
},
{
closed = 1;
nodes = (
(185,706,l),
(240,882,l),
(114,882,l),
(91,817,l),
(126,804,o),
(134,787,o),
(125,755,c),
(108,706,l)
);
}
);
width = 312;
}
);
},
{
glyphname = brevecomb_tildecomb.case;
lastChange = "2026-06-05 19:29:44 +0000";
layers = (
{
anchors = (
{
name = _top;
pos = (156,540);
},
{
name = top;
pos = (156,925);
}
);
layerId = m01;
shapes = (
{
closed = 1;
nodes = (
(84,569,o),
(228,569,o),
(292,680,c),
(264,708,l),
(224,652,o),
(88,652,o),
(48,708,c),
(20,680,l)
);
},
{
closed = 1;
nodes = (
(263,735,o),
(304,778,o),
(304,863,c),
(278,865,l),
(278,831,o),
(263,812,o),
(233,812,cs),
(189,813,o),
(158,868,o),
(100,868,cs),
(55,868,o),
(8,826,o),
(8,741,c),
(34,739,l),
(36,774,o),
(52,793,o),
(83,793,cs),
(118,793,o),
(162,735,o),
(216,735,cs)
);
}
);
width = 312;
}
);
},
{
glyphname = brevecomb_hookabovecomb.case;
lastChange = "2026-06-07 23:11:12 +0000";
layers = (
{
anchors = (
{
name = _top;
pos = (156,540);
},
{
name = top;
pos = (156,950);
}
);
layerId = m01;
shapes = (
{
closed = 1;
nodes = (
(84,569,o),
(228,569,o),
(292,680,c),
(264,708,l),
(224,652,o),
(88,652,o),
(48,708,c),
(20,680,l)
);
},
{
closed = 1;
nodes = (
(165,705,l),
(165,717,l),
(165,743,o),
(250,746,o),
(250,823,c),
(250,864,o),
(219,890,o),
(155,890,c),
(93,890,o),
(62,864,o),
(62,810,c),
(124,797,l),
(123,849,o),
(139,867,o),
(152,867,c),
(168,867,o),
(176,855,o),
(176,820,c),
(176,767,o),
(140,768,o),
(140,727,c),
(140,699,l)
);
}
);
width = 312;
}
);
},
{
glyphname = ringcomb.case;
lastChange = "2026-06-08 00:22:45 +0000";
layers = (
{
anchors = (
{
name = _top;
pos = (108,499);
},
{
name = top;
pos = (108,735);
}
);
layerId = m01;
shapes = (
{
attr = {
strokePos = 1;
strokeWidth = 60;
};
closed = 1;
nodes = (
(156,540,o),
(195,579,o),
(195,628,cs),
(195,676,o),
(156,715,o),
(108,715,cs),
(59,715,o),
(20,676,o),
(20,628,cs),
(20,579,o),
(59,540,o),
(108,540,cs)
);
}
);
width = 215;
}
);
},
{
glyphname = slashlongcomb.case;
lastChange = "2026-05-27 02:21:55 +0000";
layers = (
{
anchors = (
{
name = _center;
pos = (230,337);
}
);
layerId = m01;
shapes = (
{
attr = {
identifier = ID0x31a4e2160;
lineCapEnd = "4";
lineCapStart = "4";
strokeWidth = 60;
};
closed = 0;
nodes = (
(406,736,l),
(53,-63,l)
);
}
);
width = 459;
}
);
},
{
glyphname = apostrophemod;
lastChange = "2026-06-03 23:46:39 +0000";
layers = (
{
layerId = m01;
shapes = (
{
closed = 1;
nodes = (
(91,494,l),
(116,700,l),
(10,700,l),
(34,494,l)
);
}
);
width = 126;
}
);
unicode = 700;
},
{
glyphname = "punc-tittle";
lastChange = "2026-06-03 23:46:39 +0000";
layers = (
{
layerId = m01;
shapes = (
{
closed = 1;
nodes = (
(148,-9,o),
(188,30,o),
(188,79,cs),
(188,129,o),
(148,168,o),
(99,168,cs),
(50,168,o),
(10,129,o),
(10,79,cs),
(10,30,o),
(50,-9,o),
(99,-9,cs)
);
}
